{
.appVersion = "1352";
DisplayStrings = (

glyphs = (
{
glyphname = .notdef;
layers = (
{
hints = (
{
horizontal = 1;
place = "{0, 87}";
type = Stem;
},
{
horizontal = 1;
place = "{813, 87}";
type = Stem;
},
{
place = "{87, 86}";
type = Stem;
},
{
place = "{519, 87}";
type = Stem;
}
);
layerId = "64752FBD-EC7B-42BB-A7F3-340BB4BBD1AC";
paths = (
{
closed = 1;
nodes = (
"606 0 LINE",
"606 900 LINE",
"87 900 LINE",
"87 0 LINE"
);
},
{
closed = 1;
nodes = (
"173 813 LINE",
"519 813 LINE",
"519 87 LINE",
"173 87 LINE"
);
}
);
width = 693;
}
);
note = .notdef;
},
{
glyphname = A;
lastChange = "2021-11-24 20:48:23 +0000";
layers = (
{
hints = (
{
horizontal = 1;
place = "{-89, 15}";
type = Stem;
},
{
horizontal = 1;
place = "{-9, 13}";
type = Stem;
},
{
horizontal = 1;
place = "{263, 15}";
type = Stem;
},
{
horizontal = 1;
place = "{369, 12}";
type = Stem;
},
{
horizontal = 1;
place = "{589, 13}";
type = Stem;
},
{
horizontal = 1;
place = "{655, 34}";
type = Stem;
},
{
place = "{26, 55}";
type = Stem;
},
{
place = "{188, 21}";
type = Stem;
},
{
place = "{318, 8}";
type = Stem;
},
{
place = "{380, 37}";
type = Stem;
},
{
place = "{513, 10}";
type = Stem;
},
{
place = "{675, 19}";
type = Stem;
},
{
place = "{747, 22}";
type = Stem;
},
{
place = "{833, 48}";
type = Stem;
},
{
place = "{1060, 37}";
type = Stem;
},
{
horizontal = 1;
place = "{688, 19}";
type = Stem;
},
{
horizontal = 1;
place = "{585, 12}";
type = Stem;
},
{
horizontal = 1;
place = "{383, 36}";
type = Stem;
},
{
horizontal = 1;
place = "{244, 19}";
type = Stem;
},
{
horizontal = 1;
place = "{233, 22}";
type = Stem;
},
{
place = "{836, 50}";
type = Stem;
},
{
horizontal = 1;
place = "{247, 18}";
type = Stem;
}
);
layerId = "64752FBD-EC7B-42BB-A7F3-340BB4BBD1AC";
paths = (
{
closed = 1;
nodes = (
"276 -89 OFFCURVE",
"320 -81 OFFCURVE",
"365 -66 CURVE SMOOTH",
"483 -27 OFFCURVE",
"593 76 OFFCURVE",
"695 244 CURVE",
"752 238 OFFCURVE",
"799 234 OFFCURVE",
"836 233 CURVE",
"850 99 OFFCURVE",
"901 2 OFFCURVE",
"988 -57 CURVE SMOOTH",
"992 -60 OFFCURVE",
"995 -61 OFFCURVE",
"998 -61 CURVE SMOOTH",
"1001 -61 OFFCURVE",
"1004 -52 OFFCURVE",
"1007 -34 CURVE SMOOTH",
"1010 -17 OFFCURVE",
"1018 -8 OFFCURVE",
"1032 -8 CURVE SMOOTH",
"1033 -8 OFFCURVE",
"1035 -8 OFFCURVE",
"1038 -9 CURVE",
"1044 -9 LINE SMOOTH",
"1073 -9 OFFCURVE",
"1097 3 OFFCURVE",
"1117 26 CURVE SMOOTH",
"1137 49 OFFCURVE",
"1147 75 OFFCURVE",
"1147 104 CURVE SMOOTH",
"1147 108 OFFCURVE",
"1146 110 OFFCURVE",
"1145 110 CURVE SMOOTH",
"1144 110 OFFCURVE",
"1142 109 OFFCURVE",
"1141 107 CURVE SMOOTH",
"1123 63 OFFCURVE",
"1114 40 OFFCURVE",
"1113 39 CURVE",
"1099 16 OFFCURVE",
"1078 4 OFFCURVE",
"1051 4 CURVE SMOOTH",
"1001 4 OFFCURVE",
"961 31 OFFCURVE",
"930 86 CURVE SMOOTH",
"907 127 OFFCURVE",
"893 176 OFFCURVE",
"886 233 CURVE",
"988 236 OFFCURVE",
"1051 271 OFFCURVE",
"1075 337 CURVE SMOOTH",
"1082 356 OFFCURVE",
"1086 371 OFFCURVE",
"1086 382 CURVE SMOOTH",
"1086 387 OFFCURVE",
"1084 390 OFFCURVE",
"1080 390 CURVE SMOOTH",
"1077 390 OFFCURVE",
"1075 388 OFFCURVE",
"1074 384 CURVE SMOOTH",
"1069 359 OFFCURVE",
"1063 341 OFFCURVE",
"1058 330 CURVE SMOOTH",
"1032 283 OFFCURVE",
"974 258 OFFCURVE",
"883 255 CURVE",
"882 273 OFFCURVE",
"881 291 OFFCURVE",
"881 309 CURVE SMOOTH",
"881 425 OFFCURVE",
"903 518 OFFCURVE",
"947 589 CURVE",
"1047 592 OFFCURVE",
"1097 617 OFFCURVE",
"1097 663 CURVE SMOOTH",
"1097 692 OFFCURVE",
"1078 707 OFFCURVE",
"1040 707 CURVE SMOOTH",
"1015 707 OFFCURVE",
"989 696 OFFCURVE",
"961 675 CURVE SMOOTH",
"939 659 OFFCURVE",
"916 635 OFFCURVE",
"893 603 CURVE",
"858 606 OFFCURVE",
"816 612 OFFCURVE",
"769 622 CURVE",
"768 667 OFFCURVE",
"760 702 OFFCURVE",
"745 727 CURVE SMOOTH",
"738 740 OFFCURVE",
"732 746 OFFCURVE",
"725 746 CURVE SMOOTH",
"720 746 OFFCURVE",
"717 743 OFFCURVE",
"717 738 CURVE SMOOTH",
"717 735 OFFCURVE",
"718 730 OFFCURVE",
"721 725 CURVE SMOOTH",
"737 697 OFFCURVE",
"746 664 OFFCURVE",
"747 626 CURVE",
"575 667 LINE SMOOTH",
"509 682 OFFCURVE",
"458 689 OFFCURVE",
"423 689 CURVE SMOOTH",
"319 689 OFFCURVE",
"248 656 OFFCURVE",
"209 591 CURVE SMOOTH",
"195 567 OFFCURVE",
"188 542 OFFCURVE",
"188 515 CURVE SMOOTH",
"188 470 OFFCURVE",
"205 433 OFFCURVE",
"239 406 CURVE SMOOTH",
"271 381 OFFCURVE",
"310 369 OFFCURVE",
"356 369 CURVE SMOOTH",
"397 369 OFFCURVE",
"434 381 OFFCURVE",
"468 406 CURVE SMOOTH",
"505 433 OFFCURVE",
"523 467 OFFCURVE",
"523 506 CURVE SMOOTH",
"523 533 OFFCURVE",
"511 556 OFFCURVE",
"487 573 CURVE SMOOTH",
"466 589 OFFCURVE",
"441 597 OFFCURVE",
"412 597 CURVE SMOOTH",
"388 597 OFFCURVE",
"367 592 OFFCURVE",
"349 581 CURVE SMOOTH",
"328 568 OFFCURVE",
"318 551 OFFCURVE",
"318 528 CURVE SMOOTH",
"318 527 OFFCURVE",
"318 525 OFFCURVE",
"319 524 CURVE",
"322 528 OFFCURVE",
"324 532 OFFCURVE",
"325 535 CURVE SMOOTH",
"328 549 LINE",
"336 573 OFFCURVE",
"364 585 OFFCURVE",
"412 585 CURVE SMOOTH",
"437 585 OFFCURVE",
"459 578 OFFCURVE",
"479 564 CURVE SMOOTH",
"502 549 OFFCURVE",
"513 529 OFFCURVE",
"513 506 CURVE SMOOTH",
"513 470 OFFCURVE",
"495 439 OFFCURVE",
"460 414 CURVE SMOOTH",
"428 392 OFFCURVE",
"393 381 OFFCURVE",
"356 381 CURVE SMOOTH",
"317 381 OFFCURVE",
"283 390 OFFCURVE",
"256 408 CURVE SMOOTH",
"225 429 OFFCURVE",
"209 458 OFFCURVE",
"209 495 CURVE SMOOTH",
"209 520 OFFCURVE",
"217 544 OFFCURVE",
"233 567 CURVE SMOOTH",
"274 626 OFFCURVE",
"345 655 OFFCURVE",
"447 655 CURVE SMOOTH",
"483 655 OFFCURVE",
"532 649 OFFCURVE",
"595 638 CURVE SMOOTH",
"662 625 OFFCURVE",
"713 616 OFFCURVE",
"747 609 CURVE",
"746 540 OFFCURVE",
"729 461 OFFCURVE",
"694 373 CURVE",
"698 404 OFFCURVE",
"688 419 OFFCURVE",
"665 419 CURVE SMOOTH",
"641 419 OFFCURVE",
"627 407 OFFCURVE",
"623 383 CURVE",
"654 384 OFFCURVE",
"674 359 OFFCURVE",
"675 328 CURVE",
"666 308 OFFCURVE",
"656 288 OFFCURVE",
"645 268 CURVE",
"574 275 OFFCURVE",
"518 278 OFFCURVE",
"477 278 CURVE SMOOTH",
"440 278 OFFCURVE",
"407 276 OFFCURVE",
"378 273 CURVE SMOOTH",
"214 254 OFFCURVE",
"106 207 OFFCURVE",
"53 134 CURVE SMOOTH",
"35 109 OFFCURVE",
"26 84 OFFCURVE",
"26 57 CURVE SMOOTH",
"26 10 OFFCURVE",
"50 -28 OFFCURVE",
"97 -55 CURVE SMOOTH",
"137 -78 OFFCURVE",
"182 -89 OFFCURVE",
"233 -89 CURVE SMOOTH"
);
},
{
closed = 1;
nodes = (
"202 -74 OFFCURVE",
"165 -64 OFFCURVE",
"134 -45 CURVE SMOOTH",
"99 -22 OFFCURVE",
"81 11 OFFCURVE",
"81 52 CURVE SMOOTH",
"81 93 OFFCURVE",
"99 131 OFFCURVE",
"135 165 CURVE SMOOTH",
"164 193 OFFCURVE",
"201 215 OFFCURVE",
"246 232 CURVE SMOOTH",
"304 253 OFFCURVE",
"373 263 OFFCURVE",
"452 263 CURVE SMOOTH",
"497 263 OFFCURVE",
"558 259 OFFCURVE",
"635 251 CURVE",
"556 110 OFFCURVE",
"472 27 OFFCURVE",
"383 0 CURVE",
"409 18 LINE",
"414 26 OFFCURVE",
"417 48 OFFCURVE",
"417 83 CURVE SMOOTH",
"417 84 OFFCURVE",
"416 85 OFFCURVE",
"414 85 CURVE SMOOTH",
"401 85 OFFCURVE",
"390 75 OFFCURVE",
"380 54 CURVE",
"380 52 LINE SMOOTH",
"379 19 OFFCURVE",
"372 -3 OFFCURVE",
"357 -13 CURVE",
"457 0 OFFCURVE",
"555 88 OFFCURVE",
"650 249 CURVE",
"683 245 LINE",
"584 82 OFFCURVE",
"478 -18 OFFCURVE",
"363 -55 CURVE SMOOTH",
"321 -68 OFFCURVE",
"282 -74 OFFCURVE",
"245 -74 CURVE SMOOTH"
);
},
{
closed = 1;
nodes = (
"660 267 LINE",
"689 319 OFFCURVE",
"713 369 OFFCURVE",
"730 417 CURVE SMOOTH",
"755 486 OFFCURVE",
"768 549 OFFCURVE",
"769 605 CURVE",
"812 598 OFFCURVE",
"850 593 OFFCURVE",
"883 590 CURVE",
"824 495 OFFCURVE",
"782 424 OFFCURVE",
"757 375 CURVE SMOOTH",
"728 322 OFFCURVE",
"707 285 OFFCURVE",
"694 264 CURVE"
);
},
{
closed = 1;
nodes = (
"801 256 OFFCURVE",
"758 258 OFFCURVE",
"707 263 CURVE",
"722 288 OFFCURVE",
"742 323 OFFCURVE",
"767 369 CURVE SMOOTH",
"833 488 OFFCURVE",
"876 561 OFFCURVE",
"897 590 CURVE",
"902 589 OFFCURVE",
"908 589 OFFCURVE",
"913 589 CURVE",
"860 509 OFFCURVE",
"833 411 OFFCURVE",
"833 295 CURVE SMOOTH",
"833 282 OFFCURVE",
"833 268 OFFCURVE",
"834 255 CURVE"
);
},
{
closed = 1;
nodes = (
"917 602 OFFCURVE",
"911 602 OFFCURVE",
"906 602 CURVE",
"951 662 OFFCURVE",
"990 688 OFFCURVE",
"1022 688 CURVE SMOOTH",
"1047 688 OFFCURVE",
"1060 678 OFFCURVE",
"1060 657 CURVE SMOOTH",
"1060 626 OFFCURVE",
"1026 607 OFFCURVE",
"957 602 CURVE",
"974 626 OFFCURVE",
"994 644 OFFCURVE",
"1016 656 CURVE",
"1017 657 OFFCURVE",
"1018 657 OFFCURVE",
"1018 657 CURVE",
"1018 658 OFFCURVE",
"1018 658 OFFCURVE",
"1017 658 CURVE SMOOTH",
"1010 658 OFFCURVE",
"998 654 OFFCURVE",
"980 647 CURVE SMOOTH",
"962 640 OFFCURVE",
"951 635 OFFCURVE",
"946 630 CURVE SMOOTH",
"939 623 OFFCURVE",
"931 613 OFFCURVE",
"922 601 CURVE"
);
}
);
width = 1099;
}
);
note = A;
unicode = 0041;
},
{
glyphname = AE;
lastChange = "2021-12-21 16:46:12 +0000";
layers = (
{
hints = (
{
horizontal = 1;
place = "{-89, 15}";
type = Stem;
},
{
horizontal = 1;
place = "{-9, 13}";
type = Stem;
},
{
horizontal = 1;
place = "{263, 15}";
type = Stem;
},
{
horizontal = 1;
place = "{369, 12}";
type = Stem;
},
{
horizontal = 1;
place = "{589, 13}";
type = Stem;
},
{
horizontal = 1;
place = "{655, 34}";
type = Stem;
},
{
place = "{26, 55}";
type = Stem;
},
{
place = "{188, 21}";
type = Stem;
},
{
place = "{318, 8}";
type = Stem;
},
{
place = "{380, 37}";
type = Stem;
},
{
place = "{513, 10}";
type = Stem;
},
{
place = "{675, 19}";
type = Stem;
},
{
place = "{747, 22}";
type = Stem;
},
{
place = "{833, 48}";
type = Stem;
},
{
place = "{1060, 37}";
type = Stem;
},
{
horizontal = 1;
place = "{688, 19}";
type = Stem;
},
{
horizontal = 1;
place = "{585, 12}";
type = Stem;
},
{
horizontal = 1;
place = "{383, 36}";
type = Stem;
},
{
horizontal = 1;
place = "{244, 19}";
type = Stem;
},
{
horizontal = 1;
place = "{233, 22}";
type = Stem;
},
{
place = "{836, 50}";
type = Stem;
},
{
horizontal = 1;
place = "{247, 18}";
type = Stem;
}
);
layerId = "64752FBD-EC7B-42BB-A7F3-340BB4BBD1AC";
paths = (
{
closed = 1;
nodes = (
"202 -74 OFFCURVE",
"165 -64 OFFCURVE",
"134 -45 CURVE SMOOTH",
"99 -22 OFFCURVE",
"81 11 OFFCURVE",
"81 52 CURVE SMOOTH",
"81 93 OFFCURVE",
"99 131 OFFCURVE",
"135 165 CURVE SMOOTH",
"164 193 OFFCURVE",
"201 215 OFFCURVE",
"246 232 CURVE SMOOTH",
"304 253 OFFCURVE",
"373 263 OFFCURVE",
"452 263 CURVE SMOOTH",
"497 263 OFFCURVE",
"558 259 OFFCURVE",
"635 251 CURVE",
"556 110 OFFCURVE",
"472 27 OFFCURVE",
"383 0 CURVE",
"409 18 LINE",
"414 26 OFFCURVE",
"417 48 OFFCURVE",
"417 83 CURVE SMOOTH",
"417 84 OFFCURVE",
"416 85 OFFCURVE",
"414 85 CURVE SMOOTH",
"401 85 OFFCURVE",
"390 75 OFFCURVE",
"380 54 CURVE",
"380 52 LINE SMOOTH",
"380 19 OFFCURVE",
"372 -3 OFFCURVE",
"357 -13 CURVE",
"457 0 OFFCURVE",
"555 88 OFFCURVE",
"650 249 CURVE",
"683 245 LINE",
"584 82 OFFCURVE",
"478 -18 OFFCURVE",
"363 -55 CURVE SMOOTH",
"321 -68 OFFCURVE",
"282 -74 OFFCURVE",
"245 -74 CURVE SMOOTH"
);
},
{
closed = 1;
nodes = (
"755 363 OFFCURVE",
"701 275 CURVE",
"667 278 LINE",
"689 319 OFFCURVE",
"713 369 OFFCURVE",
"730 417 CURVE SMOOTH",
"767 518 OFFCURVE",
"788 655 OFFCURVE",
"745 727 CURVE SMOOTH",
"738 740 OFFCURVE",
"732 746 OFFCURVE",
"725 746 CURVE SMOOTH",
"720 746 OFFCURVE",
"717 743 OFFCURVE",
"717 738 CURVE SMOOTH",
"717 735 OFFCURVE",
"718 730 OFFCURVE",
"721 725 CURVE SMOOTH",
"737 697 OFFCURVE",
"747 664 OFFCURVE",
"747 626 CURVE SMOOTH",
"747 609 LINE SMOOTH",
"747 540 OFFCURVE",
"729 461 OFFCURVE",
"694 373 CURVE",
"698 404 OFFCURVE",
"688 419 OFFCURVE",
"665 419 CURVE SMOOTH",
"641 419 OFFCURVE",
"627 407 OFFCURVE",
"623 383 CURVE",
"654 384 OFFCURVE",
"674 359 OFFCURVE",
"675 328 CURVE",
"666 308 OFFCURVE",
"656 288 OFFCURVE",
"652 279 CURVE",
"413 294 OFFCURVE",
"148 265 OFFCURVE",
"53 134 CURVE SMOOTH",
"35 109 OFFCURVE",
"26 84 OFFCURVE",
"26 57 CURVE SMOOTH",
"26 10 OFFCURVE",
"50 -28 OFFCURVE",
"97 -55 CURVE SMOOTH",
"137 -78 OFFCURVE",
"182 -89 OFFCURVE",
"233 -89 CURVE SMOOTH",
"276 -89 OFFCURVE",
"320 -81 OFFCURVE",
"365 -66 CURVE SMOOTH",
"483 -27 OFFCURVE",
"593 48 OFFCURVE",
"707 244 CURVE",
"917 221 OFFCURVE",
"1227 153 OFFCURVE",
"1227 337 CURVE SMOOTH",
"1227 357 OFFCURVE",
"1238 371 OFFCURVE",
"1238 382 CURVE SMOOTH",
"1238 387 OFFCURVE",
"1236 390 OFFCURVE",
"1232 390 CURVE SMOOTH",
"1229 390 OFFCURVE",
"1227 388 OFFCURVE",
"1226 384 CURVE SMOOTH",
"1221 359 OFFCURVE",
"1215 341 OFFCURVE",
"1210 330 CURVE SMOOTH",
"1157 235 OFFCURVE",
"996 250 OFFCURVE",
"726 274 CURVE",
"854 520 OFFCURVE",
"912 625 OFFCURVE",
"996 675 CURVE SMOOTH",
"1011 684 OFFCURVE",
"1005 698 OFFCURVE",
"988 692 CURVE",
"874 641 OFFCURVE"
);
},
{
closed = 1;
nodes = (
"675 627 OFFCURVE",
"896 607 OFFCURVE",
"963 592 CURVE",
"946 577 OFFCURVE",
"931 562 OFFCURVE",
"920 546 CURVE",
"908 500 OFFCURVE",
"901 465 OFFCURVE",
"877 338 CURVE SMOOTH",
"855 223 OFFCURVE",
"820 132 OFFCURVE",
"777 67 CURVE",
"690 53 OFFCURVE",
"637 26 OFFCURVE",
"587 -49 CURVE SMOOTH",
"574 -68 OFFCURVE",
"568 -86 OFFCURVE",
"568 -105 CURVE SMOOTH",
"568 -140 OFFCURVE",
"595 -167 OFFCURVE",
"631 -167 CURVE SMOOTH",
"635 -167 OFFCURVE",
"637 -163 OFFCURVE",
"641 -162 CURVE SMOOTH",
"661 -158 OFFCURVE",
"671 -155 OFFCURVE",
"671 -154 CURVE SMOOTH",
"671 -153 OFFCURVE",
"659 -154 OFFCURVE",
"653 -154 CURVE SMOOTH",
"603 -154 OFFCURVE",
"578 -135 OFFCURVE",
"578 -96 CURVE SMOOTH",
"578 -45 OFFCURVE",
"630 1 OFFCURVE",
"724 19 CURVE SMOOTH",
"741 22 OFFCURVE",
"758 23 OFFCURVE",
"776 23 CURVE SMOOTH",
"806 23 OFFCURVE",
"838 19 OFFCURVE",
"872 12 CURVE SMOOTH",
"999 -15 OFFCURVE",
"1083 -29 OFFCURVE",
"1124 -29 CURVE SMOOTH",
"1219 -29 OFFCURVE",
"1286 -2 OFFCURVE",
"1325 51 CURVE SMOOTH",
"1340 72 OFFCURVE",
"1347 93 OFFCURVE",
"1347 116 CURVE SMOOTH",
"1347 144 OFFCURVE",
"1341 158 OFFCURVE",
"1328 158 CURVE SMOOTH",
"1323 158 OFFCURVE",
"1321 156 OFFCURVE",
"1321 151 CURVE SMOOTH",
"1321 150 OFFCURVE",
"1340 132 OFFCURVE",
"1340 109 CURVE SMOOTH",
"1340 89 OFFCURVE",
"1333 70 OFFCURVE",
"1318 53 CURVE SMOOTH",
"1293 24 OFFCURVE",
"1246 10 OFFCURVE",
"1177 10 CURVE SMOOTH",
"1106 10 OFFCURVE",
"1009 27 OFFCURVE",
"887 61 CURVE SMOOTH",
"866 67 OFFCURVE",
"843 70 OFFCURVE",
"820 70 CURVE SMOOTH",
"809 70 OFFCURVE",
"798 69 OFFCURVE",
"787 68 CURVE",
"839 114 LINE SMOOTH",
"875 145 OFFCURVE",
"903 219 OFFCURVE",
"921 333 CURVE SMOOTH",
"943 466 OFFCURVE",
"960 543 OFFCURVE",
"982 588 CURVE",
"1052 572 OFFCURVE",
"1109 564 OFFCURVE",
"1154 564 CURVE SMOOTH",
"1232 564 OFFCURVE",
"1287 593 OFFCURVE",
"1320 651 CURVE SMOOTH",
"1322 655 OFFCURVE",
"1323 658 OFFCURVE",
"1323 660 CURVE SMOOTH",
"1323 662 OFFCURVE",
"1322 663 OFFCURVE",
"1320 663 CURVE SMOOTH",
"1317 663 OFFCURVE",
"1312 659 OFFCURVE",
"1305 650 CURVE SMOOTH",
"1286 625 OFFCURVE",
"1247 613 OFFCURVE",
"1186 613 CURVE SMOOTH",
"1079 613 OFFCURVE",
"729 678 OFFCURVE",
"648 678 CURVE SMOOTH",
"607 678 OFFCURVE",
"560 659 OFFCURVE",
"507 620 CURVE SMOOTH",
"454 581 OFFCURVE",
"428 542 OFFCURVE",
"428 501 CURVE SMOOTH",
"428 488 OFFCURVE",
"432 477 OFFCURVE",
"441 468 CURVE",
"476 481 OFFCURVE",
"493 492 OFFCURVE",
"493 503 CURVE SMOOTH",
"493 504 OFFCURVE",
"489 510 OFFCURVE",
"482 522 CURVE SMOOTH",
"475 534 OFFCURVE",
"471 545 OFFCURVE",
"471 555 CURVE SMOOTH",
"471 581 OFFCURVE",
"491 600 OFFCURVE",
"530 613 CURVE SMOOTH",
"559 622 OFFCURVE",
"590 627 OFFCURVE",
"623 627 CURVE SMOOTH"
);
}
);
width = 1332;
}
);
note = AE;
unicode = 00C6;
},
{
glyphname = B;
lastChange = "2021-11-24 20:48:23 +0000";
layers = (
{
hints = (
{
horizontal = 1;
place = "{-154, 26}";
type = Stem;
},
{
horizontal = 1;
place = "{-36, 14}";
type = Stem;
},
{
horizontal = 1;
place = "{370, 21}";
type = Stem;
},
{
horizontal = 1;
place = "{557, 16}";
type = Stem;
},
{
horizontal = 1;
place = "{636, 40}";
type = Stem;
},
{
horizontal = 1;
place = "{766, 18}";
type = Stem;
},
{
place = "{17, 36}";
type = Stem;
},
{
place = "{292, 45}";
type = Stem;
},
{
place = "{393, 17}";
type = Stem;
},
{
place = "{808, 63}";
type = Stem;
},
{
place = "{202, 80}";
type = Stem;
},
{
place = "{788, 51}";
type = Stem;
}
);
layerId = "64752FBD-EC7B-42BB-A7F3-340BB4BBD1AC";
paths = (
{
closed = 1;
nodes = (
"227 -154 OFFCURVE",
"303 -87 OFFCURVE",
"367 48 CURVE",
"423 -8 OFFCURVE",
"497 -36 OFFCURVE",
"589 -36 CURVE SMOOTH",
"618 -36 OFFCURVE",
"646 -33 OFFCURVE",
"673 -26 CURVE SMOOTH",
"728 -13 OFFCURVE",
"775 13 OFFCURVE",
"812 53 CURVE SMOOTH",
"851 96 OFFCURVE",
"871 144 OFFCURVE",
"871 199 CURVE SMOOTH",
"871 258 OFFCURVE",
"848 304 OFFCURVE",
"801 339 CURVE SMOOTH",
"761 368 OFFCURVE",
"710 386 OFFCURVE",
"647 391 CURVE",
"775 422 OFFCURVE",
"839 464 OFFCURVE",
"839 518 CURVE SMOOTH",
"839 563 OFFCURVE",
"796 601 OFFCURVE",
"709 631 CURVE SMOOTH",
"674 643 OFFCURVE",
"636 653 OFFCURVE",
"593 660 CURVE",
"634 731 OFFCURVE",
"680 766 OFFCURVE",
"731 766 CURVE SMOOTH",
"757 766 OFFCURVE",
"779 753 OFFCURVE",
"798 728 CURVE SMOOTH",
"817 703 OFFCURVE",
"827 690 OFFCURVE",
"828 690 CURVE SMOOTH",
"835 690 OFFCURVE",
"838 697 OFFCURVE",
"838 711 CURVE SMOOTH",
"838 718 OFFCURVE",
"838 722 OFFCURVE",
"837 724 CURVE SMOOTH",
"817 764 OFFCURVE",
"787 784 OFFCURVE",
"748 784 CURVE SMOOTH",
"689 784 OFFCURVE",
"634 743 OFFCURVE",
"581 662 CURVE",
"523 671 OFFCURVE",
"461 676 OFFCURVE",
"394 676 CURVE SMOOTH",
"317 676 OFFCURVE",
"245 670 OFFCURVE",
"178 659 CURVE SMOOTH",
"71 641 OFFCURVE",
"17 602 OFFCURVE",
"17 542 CURVE SMOOTH",
"17 515 OFFCURVE",
"35 486 OFFCURVE",
"70 455 CURVE SMOOTH",
"105 424 OFFCURVE",
"135 409 OFFCURVE",
"160 409 CURVE",
"167 410 OFFCURVE",
"170 411 OFFCURVE",
"170 413 CURVE",
"168 415 LINE",
"91 446 OFFCURVE",
"53 482 OFFCURVE",
"53 524 CURVE SMOOTH",
"53 599 OFFCURVE",
"164 636 OFFCURVE",
"386 636 CURVE SMOOTH",
"447 636 OFFCURVE",
"505 632 OFFCURVE",
"559 624 CURVE",
"522 558 OFFCURVE",
"483 463 OFFCURVE",
"441 338 CURVE",
"429 330 OFFCURVE",
"418 321 OFFCURVE",
"407 310 CURVE",
"409 327 OFFCURVE",
"410 344 OFFCURVE",
"410 361 CURVE SMOOTH",
"410 386 OFFCURVE",
"408 410 OFFCURVE",
"403 433 CURVE SMOOTH",
"396 470 OFFCURVE",
"379 502 OFFCURVE",
"352 529 CURVE SMOOTH",
"323 558 OFFCURVE",
"290 573 OFFCURVE",
"255 573 CURVE SMOOTH",
"218 573 OFFCURVE",
"201 559 OFFCURVE",
"202 531 CURVE SMOOTH",
"202 530 LINE",
"207 531 OFFCURVE",
"213 532 OFFCURVE",
"218 532 CURVE SMOOTH",
"243 532 OFFCURVE",
"259 517 OFFCURVE",
"268 486 CURVE",
"277 495 OFFCURVE",
"282 506 OFFCURVE",
"282 519 CURVE SMOOTH",
"282 541 OFFCURVE",
"271 554 OFFCURVE",
"248 557 CURVE",
"251 557 LINE SMOOTH",
"286 558 OFFCURVE",
"316 544 OFFCURVE",
"341 515 CURVE SMOOTH",
"362 490 OFFCURVE",
"377 458 OFFCURVE",
"385 421 CURVE SMOOTH",
"390 393 OFFCURVE",
"393 365 OFFCURVE",
"393 337 CURVE SMOOTH",
"393 322 OFFCURVE",
"392 308 OFFCURVE",
"390 293 CURVE",
"379 280 OFFCURVE",
"366 262 OFFCURVE",
"366 257 CURVE SMOOTH",
"366 255 OFFCURVE",
"367 254 OFFCURVE",
"369 254 CURVE SMOOTH",
"380 254 OFFCURVE",
"385 268 OFFCURVE",
"388 273 CURVE",
"382 237 OFFCURVE",
"371 196 OFFCURVE",
"354 149 CURVE",
"343 188 OFFCURVE",
"337 230 OFFCURVE",
"337 276 CURVE SMOOTH",
"337 301 OFFCURVE",
"337 314 OFFCURVE",
"336 314 CURVE SMOOTH",
"333 313 OFFCURVE",
"331 310 OFFCURVE",
"330 305 CURVE SMOOTH",
"328 292 OFFCURVE",
"326 284 OFFCURVE",
"324 280 CURVE SMOOTH",
"322 276 OFFCURVE",
"316 269 OFFCURVE",
"306 260 CURVE SMOOTH",
"297 251 OFFCURVE",
"292 243 OFFCURVE",
"292 235 CURVE SMOOTH",
"292 181 OFFCURVE",
"305 133 OFFCURVE",
"332 91 CURVE",
"327 80 LINE",
"327 79 OFFCURVE",
"327 77 OFFCURVE",
"326 75 CURVE",
"327 70 OFFCURVE",
"328 68 OFFCURVE",
"330 68 CURVE",
"331 69 OFFCURVE",
"332 70 OFFCURVE",
"332 71 CURVE",
"337 83 LINE",
"346 70 LINE",
"287 -62 OFFCURVE",
"232 -128 OFFCURVE",
"181 -128 CURVE SMOOTH",
"165 -128 OFFCURVE",
"149 -121 OFFCURVE",
"134 -108 CURVE SMOOTH",
"119 -95 OFFCURVE",
"111 -88 OFFCURVE",
"108 -88 CURVE SMOOTH",
"98 -88 OFFCURVE",
"93 -97 OFFCURVE",
"93 -115 CURVE SMOOTH",
"93 -138 OFFCURVE",
"117 -154 OFFCURVE",
"138 -154 CURVE SMOOTH"
);
},
{
closed = 1;
nodes = (
"363 122 OFFCURVE",
"361 128 OFFCURVE",
"359 134 CURVE",
"383 196 OFFCURVE",
"398 250 OFFCURVE",
"405 297 CURVE",
"414 306 OFFCURVE",
"424 314 OFFCURVE",
"436 321 CURVE",
"397 202 OFFCURVE",
"374 134 OFFCURVE",
"367 119 CURVE SMOOTH",
"366 116 LINE"
);
},
{
closed = 1;
nodes = (
"485 -22 OFFCURVE",
"423 13 OFFCURVE",
"382 82 CURVE",
"405 136 OFFCURVE",
"435 222 OFFCURVE",
"472 340 CURVE",
"519 360 OFFCURVE",
"570 370 OFFCURVE",
"625 370 CURVE SMOOTH",
"747 370 OFFCURVE",
"808 317 OFFCURVE",
"808 211 CURVE SMOOTH",
"808 144 OFFCURVE",
"785 88 OFFCURVE",
"738 44 CURVE SMOOTH",
"692 0 OFFCURVE",
"635 -22 OFFCURVE",
"568 -22 CURVE SMOOTH"
);
},
{
closed = 1;
nodes = (
"517 484 OFFCURVE",
"549 572 OFFCURVE",
"573 622 CURVE",
"618 615 OFFCURVE",
"656 606 OFFCURVE",
"689 594 CURVE SMOOTH",
"755 569 OFFCURVE",
"788 541 OFFCURVE",
"788 510 CURVE SMOOTH",
"788 467 OFFCURVE",
"735 431 OFFCURVE",
"630 404 CURVE SMOOTH",
"548 383 OFFCURVE",
"497 368 OFFCURVE",
"478 359 CURVE"
);
}
);
width = 894;
}
);
note = B;
unicode = 0042;
},
{
glyphname = C;
lastChange = "2021-11-24 20:48:23 +0000";
layers = (
{
hints = (
{
horizontal = 1;
place = "{-37, 15}";
type = Stem;
},
{
horizontal = 1;
place = "{217, 11}";
type = Stem;
},
{
horizontal = 1;
place = "{498, 15}";
type = Stem;
},
{
horizontal = 1;
place = "{667, 19}";
type = Stem;
},
{
place = "{26, 56}";
type = Stem;
},
{
place = "{158, 79}";
type = Stem;
},
{
place = "{301, 22}";
type = Stem;
},
{
place = "{367, 17}";
type = Stem;
},
{
place = "{650, 47}";
type = Stem;
},
{
place = "{307, 24}";
type = Stem;
},
{
horizontal = 1;
place = "{468, 28}";
type = Stem;
}
);
layerId = "64752FBD-EC7B-42BB-A7F3-340BB4BBD1AC";
paths = (
{
closed = 1;
nodes = (
"315 -96 OFFCURVE",
"321 -90 OFFCURVE",
"323 -79 CURVE SMOOTH",
"326 -59 OFFCURVE",
"327 -44 OFFCURVE",
"328 -34 CURVE",
"347 -36 OFFCURVE",
"367 -37 OFFCURVE",
"388 -37 CURVE SMOOTH",
"459 -37 OFFCURVE",
"525 -18 OFFCURVE",
"588 20 CURVE SMOOTH",
"661 64 OFFCURVE",
"697 120 OFFCURVE",
"697 187 CURVE SMOOTH",
"697 214 OFFCURVE",
"687 228 OFFCURVE",
"666 228 CURVE SMOOTH",
"647 228 OFFCURVE",
"637 225 OFFCURVE",
"637 218 CURVE",
"638 217 OFFCURVE",
"639 217 OFFCURVE",
"640 217 CURVE",
"647 214 OFFCURVE",
"650 206 OFFCURVE",
"650 195 CURVE SMOOTH",
"650 176 OFFCURVE",
"644 153 OFFCURVE",
"631 126 CURVE SMOOTH",
"584 27 OFFCURVE",
"508 -22 OFFCURVE",
"403 -22 CURVE SMOOTH",
"378 -22 OFFCURVE",
"354 -20 OFFCURVE",
"331 -15 CURVE",
"332 -3 OFFCURVE",
"334 9 OFFCURVE",
"336 21 CURVE",
"343 24 OFFCURVE",
"348 33 OFFCURVE",
"351 46 CURVE SMOOTH",
"357 77 LINE SMOOTH",
"370 135 OFFCURVE",
"379 184 OFFCURVE",
"382 223 CURVE",
"395 268 OFFCURVE",
"409 312 OFFCURVE",
"425 355 CURVE",
"454 378 OFFCURVE",
"467 391 OFFCURVE",
"463 392 CURVE",
"456 391 OFFCURVE",
"449 395 OFFCURVE",
"443 404 CURVE",
"477 489 OFFCURVE",
"515 567 OFFCURVE",
"558 639 CURVE",
"610 620 OFFCURVE",
"641 603 OFFCURVE",
"652 588 CURVE",
"628 539 OFFCURVE",
"616 494 OFFCURVE",
"616 454 CURVE SMOOTH",
"616 436 OFFCURVE",
"618 427 OFFCURVE",
"622 427 CURVE SMOOTH",
"637 427 OFFCURVE",
"660 449 OFFCURVE",
"661 462 CURVE SMOOTH",
"670 556 OFFCURVE",
"691 629 OFFCURVE",
"725 680 CURVE",
"725 681 OFFCURVE",
"725 682 OFFCURVE",
"726 683 CURVE",
"726 686 OFFCURVE",
"724 688 OFFCURVE",
"720 688 CURVE SMOOTH",
"717 688 OFFCURVE",
"714 685 OFFCURVE",
"710 680 CURVE SMOOTH",
"700 667 OFFCURVE",
"691 655 OFFCURVE",
"683 642 CURVE",
"647 655 OFFCURVE",
"612 665 OFFCURVE",
"579 672 CURVE",
"604 711 OFFCURVE",
"638 758 OFFCURVE",
"682 811 CURVE SMOOTH",
"686 816 OFFCURVE",
"688 821 OFFCURVE",
"688 825 CURVE SMOOTH",
"688 826 OFFCURVE",
"688 827 OFFCURVE",
"687 827 CURVE",
"683 825 LINE",
"641 780 OFFCURVE",
"602 730 OFFCURVE",
"567 675 CURVE",
"529 682 OFFCURVE",
"492 686 OFFCURVE",
"456 686 CURVE SMOOTH",
"376 686 OFFCURVE",
"305 670 OFFCURVE",
"242 637 CURVE SMOOTH",
"177 603 OFFCURVE",
"124 554 OFFCURVE",
"85 489 CURVE SMOOTH",
"46 425 OFFCURVE",
"26 356 OFFCURVE",
"26 283 CURVE SMOOTH",
"26 196 OFFCURVE",
"53 125 OFFCURVE",
"106 69 CURVE SMOOTH",
"155 17 OFFCURVE",
"221 -16 OFFCURVE",
"304 -30 CURVE",
"302 -52 OFFCURVE",
"301 -73 OFFCURVE",
"301 -92 CURVE SMOOTH",
"301 -95 OFFCURVE",
"302 -96 OFFCURVE",
"305 -96 CURVE SMOOTH"
);
},
{
closed = 1;
nodes = (
"238 12 OFFCURVE",
"184 51 OFFCURVE",
"143 108 CURVE SMOOTH",
"102 166 OFFCURVE",
"82 233 OFFCURVE",
"82 310 CURVE SMOOTH",
"82 409 OFFCURVE",
"113 493 OFFCURVE",
"176 562 CURVE SMOOTH",
"239 632 OFFCURVE",
"320 667 OFFCURVE",
"418 667 CURVE SMOOTH",
"459 667 OFFCURVE",
"502 659 OFFCURVE",
"547 643 CURVE",
"538 629 LINE SMOOTH",
"505 573 OFFCURVE",
"470 504 OFFCURVE",
"435 422 CURVE",
"432 431 LINE",
"420 430 OFFCURVE",
"401 401 OFFCURVE",
"401 388 CURVE SMOOTH",
"401 377 OFFCURVE",
"404 368 OFFCURVE",
"410 360 CURVE",
"401 337 OFFCURVE",
"392 314 OFFCURVE",
"384 291 CURVE",
"383 332 OFFCURVE",
"376 369 OFFCURVE",
"363 402 CURVE SMOOTH",
"352 433 OFFCURVE",
"333 458 OFFCURVE",
"308 479 CURVE SMOOTH",
"280 502 OFFCURVE",
"250 513 OFFCURVE",
"219 513 CURVE SMOOTH",
"178 513 OFFCURVE",
"158 499 OFFCURVE",
"158 471 CURVE SMOOTH",
"158 468 OFFCURVE",
"158 465 OFFCURVE",
"159 463 CURVE",
"167 466 OFFCURVE",
"175 468 OFFCURVE",
"182 468 CURVE SMOOTH",
"201 468 OFFCURVE",
"217 456 OFFCURVE",
"228 432 CURVE",
"234 439 OFFCURVE",
"237 448 OFFCURVE",
"237 458 CURVE SMOOTH",
"237 483 OFFCURVE",
"224 496 OFFCURVE",
"198 496 CURVE",
"205 497 OFFCURVE",
"211 498 OFFCURVE",
"218 498 CURVE SMOOTH",
"277 498 OFFCURVE",
"321 461 OFFCURVE",
"348 388 CURVE SMOOTH",
"361 352 OFFCURVE",
"367 311 OFFCURVE",
"367 265 CURVE SMOOTH",
"367 242 LINE",
"336 148 OFFCURVE",
"316 64 OFFCURVE",
"307 -9 CURVE"
);
}
);
width = 729;
}
);
note = C;
unicode = 0043;
},
{
glyphname = D;
lastChange = "2021-11-24 20:48:23 +0000";
layers = (
{
hints = (
{
horizontal = 1;
place = "{-92, 18}";
type = Stem;
},
{
horizontal = 1;
place = "{-20, 12}";
type = Stem;
},
{
horizontal = 1;
place = "{112, 44}";
type = Stem;
},
{
horizontal = 1;
place = "{197, 10}";
type = Stem;
},
{
horizontal = 1;
place = "{621, 37}";
type = Stem;
},
{
horizontal = 1;
place = "{761, 12}";
type = Stem;
},
{
place = "{12, 7}";
type = Stem;
},
{
place = "{391, 22}";
type = Stem;
},
{
place = "{910, 47}";
type = Stem;
},
{
horizontal = 1;
place = "{731, 16}";
type = Stem;
},
{
horizontal = 1;
place = "{618, 38}";
type = Stem;
},
{
place = "{8, 37}";
type = Stem;
},
{
place = "{287, 19}";
type = Stem;
}
);
layerId = "64752FBD-EC7B-42BB-A7F3-340BB4BBD1AC";
paths = (
{
closed = 1;
nodes = (
"162 -118 OFFCURVE",
"163 -118 OFFCURVE",
"163 -117 CURVE",
"162 -115 OFFCURVE",
"160 -114 OFFCURVE",
"159 -114 CURVE",
"138 -105 OFFCURVE",
"122 -97 OFFCURVE",
"109 -88 CURVE SMOOTH",
"49 -49 OFFCURVE",
"19 -3 OFFCURVE",
"19 48 CURVE SMOOTH",
"19 91 OFFCURVE",
"44 112 OFFCURVE",
"94 112 CURVE SMOOTH",
"105 112 OFFCURVE",
"118 111 OFFCURVE",
"133 108 CURVE SMOOTH",
"176 99 OFFCURVE",
"228 83 OFFCURVE",
"289 59 CURVE",
"282 41 OFFCURVE",
"278 31 OFFCURVE",
"278 30 CURVE SMOOTH",
"278 25 OFFCURVE",
"279 23 OFFCURVE",
"282 23 CURVE SMOOTH",
"284 23 OFFCURVE",
"286 25 OFFCURVE",
"288 30 CURVE SMOOTH",
"299 55 LINE",
"336 40 LINE",
"297 -36 OFFCURVE",
"258 -74 OFFCURVE",
"217 -74 CURVE SMOOTH",
"201 -74 OFFCURVE",
"185 -68 OFFCURVE",
"169 -55 CURVE SMOOTH",
"153 -43 OFFCURVE",
"144 -37 OFFCURVE",
"142 -37 CURVE SMOOTH",
"133 -37 OFFCURVE",
"128 -45 OFFCURVE",
"128 -61 CURVE SMOOTH",
"128 -82 OFFCURVE",
"141 -93 OFFCURVE",
"166 -92 CURVE SMOOTH",
"169 -92 LINE SMOOTH",
"254 -89 OFFCURVE",
"325 -51 OFFCURVE",
"382 22 CURVE",
"458 -6 OFFCURVE",
"529 -20 OFFCURVE",
"595 -20 CURVE SMOOTH",
"688 -20 OFFCURVE",
"772 14 OFFCURVE",
"846 82 CURVE SMOOTH",
"920 150 OFFCURVE",
"957 230 OFFCURVE",
"957 323 CURVE SMOOTH",
"957 505 OFFCURVE",
"838 613 OFFCURVE",
"599 648 CURVE",
"631 701 OFFCURVE",
"671 731 OFFCURVE",
"715 731 CURVE SMOOTH",
"738 731 OFFCURVE",
"757 721 OFFCURVE",
"772 700 CURVE SMOOTH",
"788 680 OFFCURVE",
"797 670 OFFCURVE",
"798 670 CURVE SMOOTH",
"805 670 OFFCURVE",
"808 676 OFFCURVE",
"808 689 CURVE SMOOTH",
"808 704 OFFCURVE",
"799 718 OFFCURVE",
"782 729 CURVE SMOOTH",
"765 741 OFFCURVE",
"748 747 OFFCURVE",
"732 747 CURVE SMOOTH",
"677 747 OFFCURVE",
"623 715 OFFCURVE",
"570 652 CURVE",
"533 656 OFFCURVE",
"495 658 OFFCURVE",
"455 658 CURVE SMOOTH",
"437 658 OFFCURVE",
"419 658 OFFCURVE",
"402 657 CURVE",
"384 734 OFFCURVE",
"347 773 OFFCURVE",
"291 773 CURVE SMOOTH",
"259 773 OFFCURVE",
"238 761 OFFCURVE",
"227 736 CURVE",
"261 737 OFFCURVE",
"281 718 OFFCURVE",
"287 678 CURVE",
"300 685 OFFCURVE",
"306 698 OFFCURVE",
"306 717 CURVE SMOOTH",
"306 738 OFFCURVE",
"297 753 OFFCURVE",
"278 761 CURVE",
"292 761 LINE SMOOTH",
"338 761 OFFCURVE",
"368 726 OFFCURVE",
"382 656 CURVE",
"303 651 OFFCURVE",
"231 640 OFFCURVE",
"167 621 CURVE SMOOTH",
"61 591 OFFCURVE",
"8 547 OFFCURVE",
"8 489 CURVE SMOOTH",
"8 462 OFFCURVE",
"26 433 OFFCURVE",
"63 402 CURVE SMOOTH",
"98 373 OFFCURVE",
"127 359 OFFCURVE",
"150 359 CURVE SMOOTH",
"157 359 OFFCURVE",
"161 360 OFFCURVE",
"161 362 CURVE",
"160 363 OFFCURVE",
"160 364 OFFCURVE",
"159 364 CURVE",
"83 395 OFFCURVE",
"45 431 OFFCURVE",
"45 472 CURVE SMOOTH",
"45 517 OFFCURVE",
"86 553 OFFCURVE",
"168 580 CURVE SMOOTH",
"227 599 OFFCURVE",
"301 612 OFFCURVE",
"388 618 CURVE",
"390 599 OFFCURVE",
"391 577 OFFCURVE",
"391 554 CURVE SMOOTH",
"391 473 OFFCURVE",
"373 357 OFFCURVE",
"336 207 CURVE",
"325 208 OFFCURVE",
"315 220 OFFCURVE",
"308 242 CURVE",
"296 241 OFFCURVE",
"283 218 OFFCURVE",
"283 206 CURVE SMOOTH",
"283 190 OFFCURVE",
"290 178 OFFCURVE",
"304 170 CURVE",
"316 180 OFFCURVE",
"326 189 OFFCURVE",
"334 197 CURVE",
"324 158 OFFCURVE",
"314 124 OFFCURVE",
"303 94 CURVE",
"282 106 LINE SMOOTH",
"219 139 OFFCURVE",
"166 156 OFFCURVE",
"124 156 CURVE SMOOTH",
"61 156 OFFCURVE",
"12 112 OFFCURVE",
"12 49 CURVE SMOOTH",
"12 -18 OFFCURVE",
"47 -71 OFFCURVE",
"117 -110 CURVE SMOOTH",
"121 -112 LINE",
"125 -110 OFFCURVE",
"126 -109 OFFCURVE",
"124 -109 CURVE SMOOTH",
"132 -109 OFFCURVE",
"152 -118 OFFCURVE",
"160 -118 CURVE SMOOTH"
);
},
{
closed = 1;
nodes = (
"312 90 LINE",
"341 164 OFFCURVE",
"369 262 OFFCURVE",
"397 384 CURVE SMOOTH",
"408 431 OFFCURVE",
"413 484 OFFCURVE",
"413 543 CURVE SMOOTH",
"413 570 OFFCURVE",
"411 596 OFFCURVE",
"408 619 CURVE",
"427 620 OFFCURVE",
"443 621 OFFCURVE",
"457 621 CURVE SMOOTH",
"487 621 OFFCURVE",
"516 620 OFFCURVE",
"544 617 CURVE",
"501 554 OFFCURVE",
"469 476 OFFCURVE",
"448 385 CURVE SMOOTH",
"417 252 OFFCURVE",
"385 147 OFFCURVE",
"350 70 CURVE"
);
},
{
closed = 1;
nodes = (
"545 -8 OFFCURVE",
"480 10 OFFCURVE",
"399 47 CURVE",
"420 79 OFFCURVE",
"435 114 OFFCURVE",
"446 152 CURVE SMOOTH",
"500 375 LINE SMOOTH",
"526 479 OFFCURVE",
"553 558 OFFCURVE",
"580 613 CURVE",
"800 582 OFFCURVE",
"910 480 OFFCURVE",
"910 307 CURVE SMOOTH",
"910 220 OFFCURVE",
"879 145 OFFCURVE",
"818 84 CURVE SMOOTH",
"757 23 OFFCURVE",
"682 -8 OFFCURVE",
"595 -8 CURVE SMOOTH"
);
}
);
width = 932;
}
);
note = D;
unicode = 0044;
},
{
glyphname = Eth;
lastChange = "2021-11-24 20:48:23 +0000";
layers = (
{
hints = (
{
horizontal = 1;
place = "{-92, 18}";
type = Stem;
},
{
horizontal = 1;
place = "{-20, 12}";
type = Stem;
},
{
horizontal = 1;
place = "{112, 44}";
type = Stem;
},
{
horizontal = 1;
place = "{194, 20}";
type = Stem;
},
{
horizontal = 1;
place = "{621, 37}";
type = Stem;
},
{
horizontal = 1;
place = "{761, 12}";
type = Stem;
},
{
place = "{12, 7}";
type = Stem;
},
{
place = "{391, 22}";
type = Stem;
},
{
place = "{910, 47}";
type = Stem;
},
{
horizontal = 1;
place = "{731, 16}";
type = Stem;
},
{
horizontal = 1;
place = "{618, 38}";
type = Stem;
},
{
place = "{8, 37}";
type = Stem;
},
{
place = "{287, 19}";
type = Stem;
}
);
layerId = "64752FBD-EC7B-42BB-A7F3-340BB4BBD1AC";
paths = (
{
closed = 1;
nodes = (
"162 -118 OFFCURVE",
"163 -118 OFFCURVE",
"163 -117 CURVE",
"162 -115 OFFCURVE",
"160 -114 OFFCURVE",
"159 -114 CURVE",
"138 -105 OFFCURVE",
"122 -97 OFFCURVE",
"109 -88 CURVE SMOOTH",
"49 -49 OFFCURVE",
"19 -3 OFFCURVE",
"19 48 CURVE SMOOTH",
"19 91 OFFCURVE",
"44 112 OFFCURVE",
"94 112 CURVE SMOOTH",
"105 112 OFFCURVE",
"118 111 OFFCURVE",
"133 108 CURVE SMOOTH",
"176 99 OFFCURVE",
"228 83 OFFCURVE",
"289 59 CURVE",
"282 41 OFFCURVE",
"278 31 OFFCURVE",
"278 30 CURVE SMOOTH",
"278 25 OFFCURVE",
"279 23 OFFCURVE",
"282 23 CURVE SMOOTH",
"284 23 OFFCURVE",
"286 25 OFFCURVE",
"288 30 CURVE SMOOTH",
"299 55 LINE",
"336 40 LINE",
"297 -36 OFFCURVE",
"258 -74 OFFCURVE",
"217 -74 CURVE SMOOTH",
"201 -74 OFFCURVE",
"185 -68 OFFCURVE",
"169 -55 CURVE SMOOTH",
"153 -43 OFFCURVE",
"144 -37 OFFCURVE",
"142 -37 CURVE SMOOTH",
"133 -37 OFFCURVE",
"128 -45 OFFCURVE",
"128 -61 CURVE SMOOTH",
"128 -82 OFFCURVE",
"141 -93 OFFCURVE",
"166 -92 CURVE SMOOTH",
"169 -92 LINE SMOOTH",
"254 -89 OFFCURVE",
"325 -51 OFFCURVE",
"382 22 CURVE",
"458 -6 OFFCURVE",
"529 -20 OFFCURVE",
"595 -20 CURVE SMOOTH",
"688 -20 OFFCURVE",
"772 14 OFFCURVE",
"846 82 CURVE SMOOTH",
"920 150 OFFCURVE",
"957 230 OFFCURVE",
"957 323 CURVE SMOOTH",
"957 505 OFFCURVE",
"838 613 OFFCURVE",
"599 648 CURVE",
"631 701 OFFCURVE",
"671 731 OFFCURVE",
"715 731 CURVE SMOOTH",
"738 731 OFFCURVE",
"757 721 OFFCURVE",
"772 700 CURVE SMOOTH",
"788 680 OFFCURVE",
"797 670 OFFCURVE",
"798 670 CURVE SMOOTH",
"805 670 OFFCURVE",
"808 676 OFFCURVE",
"808 689 CURVE SMOOTH",
"808 704 OFFCURVE",
"799 718 OFFCURVE",
"782 729 CURVE SMOOTH",
"765 741 OFFCURVE",
"748 747 OFFCURVE",
"732 747 CURVE SMOOTH",
"677 747 OFFCURVE",
"623 715 OFFCURVE",
"570 652 CURVE",
"533 656 OFFCURVE",
"495 658 OFFCURVE",
"455 658 CURVE SMOOTH",
"437 658 OFFCURVE",
"419 658 OFFCURVE",
"402 657 CURVE",
"384 734 OFFCURVE",
"347 773 OFFCURVE",
"291 773 CURVE SMOOTH",
"259 773 OFFCURVE",
"238 761 OFFCURVE",
"227 736 CURVE",
"261 737 OFFCURVE",
"281 718 OFFCURVE",
"287 678 CURVE",
"300 685 OFFCURVE",
"306 698 OFFCURVE",
"306 717 CURVE SMOOTH",
"306 738 OFFCURVE",
"297 753 OFFCURVE",
"278 761 CURVE",
"292 761 LINE SMOOTH",
"338 761 OFFCURVE",
"368 726 OFFCURVE",
"382 656 CURVE",
"303 651 OFFCURVE",
"231 640 OFFCURVE",
"167 621 CURVE SMOOTH",
"61 591 OFFCURVE",
"8 547 OFFCURVE",
"8 489 CURVE SMOOTH",
"8 462 OFFCURVE",
"26 433 OFFCURVE",
"63 402 CURVE SMOOTH",
"98 373 OFFCURVE",
"127 359 OFFCURVE",
"150 359 CURVE SMOOTH",
"157 359 OFFCURVE",
"161 360 OFFCURVE",
"161 362 CURVE",
"160 363 OFFCURVE",
"160 364 OFFCURVE",
"159 364 CURVE",
"83 395 OFFCURVE",
"45 431 OFFCURVE",
"45 472 CURVE SMOOTH",
"45 517 OFFCURVE",
"86 553 OFFCURVE",
"168 580 CURVE SMOOTH",
"227 599 OFFCURVE",
"301 612 OFFCURVE",
"388 618 CURVE",
"390 599 OFFCURVE",
"391 577 OFFCURVE",
"391 554 CURVE SMOOTH",
"391 414 OFFCURVE",
"339 193 OFFCURVE",
"303 94 CURVE",
"282 106 LINE SMOOTH",
"219 139 OFFCURVE",
"166 156 OFFCURVE",
"124 156 CURVE SMOOTH",
"61 156 OFFCURVE",
"12 112 OFFCURVE",
"12 49 CURVE SMOOTH",
"12 -18 OFFCURVE",
"47 -71 OFFCURVE",
"117 -110 CURVE SMOOTH",
"121 -112 LINE",
"125 -110 OFFCURVE",
"126 -109 OFFCURVE",
"124 -109 CURVE SMOOTH",
"132 -109 OFFCURVE",
"152 -118 OFFCURVE",
"160 -118 CURVE SMOOTH"
);
},
{
closed = 1;
nodes = (
"249 183 OFFCURVE",
"278 185 OFFCURVE",
"349 188 CURVE SMOOTH",
"423 192 OFFCURVE",
"489 194 OFFCURVE",
"546 194 CURVE SMOOTH",
"552 194 OFFCURVE",
"555 196 OFFCURVE",
"555 199 CURVE SMOOTH",
"555 201 OFFCURVE",
"554 202 OFFCURVE",
"550 203 CURVE SMOOTH",
"514 210 OFFCURVE",
"459 214 OFFCURVE",
"383 214 CURVE SMOOTH",
"335 214 OFFCURVE",
"284 212 OFFCURVE",
"230 208 CURVE",
"227 206 LINE",
"229 199 OFFCURVE",
"249 183 OFFCURVE",
"260 183 CURVE"
);
},
{
closed = 1;
nodes = (
"312 90 LINE",
"341 164 OFFCURVE",
"369 251 OFFCURVE",
"397 373 CURVE SMOOTH",
"408 420 OFFCURVE",
"413 484 OFFCURVE",
"413 543 CURVE SMOOTH",
"413 570 OFFCURVE",
"411 596 OFFCURVE",
"408 619 CURVE",
"427 620 OFFCURVE",
"443 621 OFFCURVE",
"457 621 CURVE SMOOTH",
"487 621 OFFCURVE",
"516 620 OFFCURVE",
"544 617 CURVE",
"501 554 OFFCURVE",
"469 476 OFFCURVE",
"448 385 CURVE SMOOTH",
"417 252 OFFCURVE",
"385 147 OFFCURVE",
"350 70 CURVE"
);
},
{
closed = 1;
nodes = (
"545 -8 OFFCURVE",
"480 10 OFFCURVE",
"399 47 CURVE",
"420 79 OFFCURVE",
"435 114 OFFCURVE",
"446 152 CURVE SMOOTH",
"500 375 LINE SMOOTH",
"526 479 OFFCURVE",
"553 558 OFFCURVE",
"580 613 CURVE",
"800 582 OFFCURVE",
"910 480 OFFCURVE",
"910 307 CURVE SMOOTH",
"910 220 OFFCURVE",
"879 145 OFFCURVE",
"818 84 CURVE SMOOTH",
"757 23 OFFCURVE",
"682 -8 OFFCURVE",
"595 -8 CURVE SMOOTH"
);
}
);
width = 932;
}
);
note = Eth;
unicode = 00D0;
},
{
glyphname = E;
lastChange = "2021-11-24 20:48:23 +0000";
layers = (
{
hints = (
{
horizontal = 1;
place = "{-167, 13}";
type = Stem;
},
{
horizontal = 1;
place = "{-29, 39}";
type = Stem;
},
{
horizontal = 1;
place = "{311, 36}";
type = Stem;
},
{
horizontal = 1;
place = "{564, 49}";
type = Stem;
},
{
place = "{2, 10}";
type = Stem;
},
{
place = "{207, 14}";
type = Stem;
},
{
place = "{774, 7}";
type = Stem;
},
{
horizontal = 1;
place = "{23, 47}";
type = Stem;
},
{
horizontal = 1;
place = "{341, 34}";
type = Stem;
},
{
horizontal = 1;
place = "{300, 11}";
type = Stem;
},
{
place = "{125, 31}";
type = Stem;
},
{
horizontal = 1;
place = "{617, 51}";
type = Stem;
},
{
place = "{46, 43}";
type = Stem;
}
);
layerId = "64752FBD-EC7B-42BB-A7F3-340BB4BBD1AC";
paths = (
{
closed = 1;
nodes = (
"69 -167 OFFCURVE",
"71 -163 OFFCURVE",
"75 -162 CURVE SMOOTH",
"95 -158 OFFCURVE",
"105 -155 OFFCURVE",
"105 -154 CURVE SMOOTH",
"105 -153 OFFCURVE",
"93 -154 OFFCURVE",
"87 -154 CURVE SMOOTH",
"37 -154 OFFCURVE",
"12 -135 OFFCURVE",
"12 -96 CURVE SMOOTH",
"12 -48 OFFCURVE",
"65 1 OFFCURVE",
"145 17 CURVE",
"134 -8 OFFCURVE",
"122 -31 OFFCURVE",
"111 -53 CURVE SMOOTH",
"105 -65 OFFCURVE",
"102 -72 OFFCURVE",
"102 -75 CURVE SMOOTH",
"102 -76 OFFCURVE",
"102 -76 OFFCURVE",
"103 -76 CURVE SMOOTH",
"106 -76 OFFCURVE",
"112 -69 OFFCURVE",
"120 -55 CURVE SMOOTH",
"133 -34 OFFCURVE",
"145 -9 OFFCURVE",
"158 19 CURVE",
"175 22 OFFCURVE",
"192 23 OFFCURVE",
"210 23 CURVE SMOOTH",
"240 23 OFFCURVE",
"272 19 OFFCURVE",
"306 12 CURVE SMOOTH",
"433 -15 OFFCURVE",
"517 -29 OFFCURVE",
"558 -29 CURVE SMOOTH",
"653 -29 OFFCURVE",
"720 -2 OFFCURVE",
"759 51 CURVE SMOOTH",
"774 72 OFFCURVE",
"781 93 OFFCURVE",
"781 116 CURVE SMOOTH",
"781 144 OFFCURVE",
"775 158 OFFCURVE",
"762 158 CURVE SMOOTH",
"757 158 OFFCURVE",
"755 156 OFFCURVE",
"755 151 CURVE SMOOTH",
"755 150 OFFCURVE",
"774 132 OFFCURVE",
"774 109 CURVE SMOOTH",
"774 89 OFFCURVE",
"767 70 OFFCURVE",
"752 53 CURVE SMOOTH",
"727 24 OFFCURVE",
"680 10 OFFCURVE",
"611 10 CURVE SMOOTH",
"540 10 OFFCURVE",
"443 27 OFFCURVE",
"321 61 CURVE SMOOTH",
"300 67 OFFCURVE",
"277 70 OFFCURVE",
"254 70 CURVE SMOOTH",
"243 70 OFFCURVE",
"232 69 OFFCURVE",
"221 68 CURVE",
"273 114 LINE SMOOTH",
"308 146 OFFCURVE",
"335 219 OFFCURVE",
"355 333 CURVE",
"454 318 OFFCURVE",
"516 311 OFFCURVE",
"541 311 CURVE SMOOTH",
"570 311 OFFCURVE",
"596 316 OFFCURVE",
"619 327 CURVE SMOOTH",
"650 341 OFFCURVE",
"665 354 OFFCURVE",
"665 367 CURVE SMOOTH",
"665 369 OFFCURVE",
"664 370 OFFCURVE",
"661 370 CURVE",
"633 355 OFFCURVE",
"599 347 OFFCURVE",
"558 347 CURVE SMOOTH",
"549 347 OFFCURVE",
"484 355 OFFCURVE",
"361 370 CURVE",
"378 477 OFFCURVE",
"397 549 OFFCURVE",
"416 588 CURVE",
"486 572 OFFCURVE",
"543 564 OFFCURVE",
"588 564 CURVE SMOOTH",
"666 564 OFFCURVE",
"721 593 OFFCURVE",
"754 651 CURVE SMOOTH",
"756 655 OFFCURVE",
"757 658 OFFCURVE",
"757 660 CURVE SMOOTH",
"757 662 OFFCURVE",
"756 663 OFFCURVE",
"754 663 CURVE SMOOTH",
"751 663 OFFCURVE",
"746 659 OFFCURVE",
"739 650 CURVE SMOOTH",
"720 625 OFFCURVE",
"681 613 OFFCURVE",
"620 613 CURVE SMOOTH",
"563 613 OFFCURVE",
"477 627 OFFCURVE",
"363 654 CURVE",
"376 681 OFFCURVE",
"391 707 OFFCURVE",
"406 731 CURVE",
"395 722 OFFCURVE",
"386 716 OFFCURVE",
"381 711 CURVE SMOOTH",
"368 700 OFFCURVE",
"356 683 OFFCURVE",
"344 658 CURVE",
"313 665 OFFCURVE",
"287 668 OFFCURVE",
"266 668 CURVE SMOOTH",
"225 668 OFFCURVE",
"178 649 OFFCURVE",
"125 610 CURVE SMOOTH",
"72 571 OFFCURVE",
"46 532 OFFCURVE",
"46 491 CURVE SMOOTH",
"46 478 OFFCURVE",
"50 467 OFFCURVE",
"59 458 CURVE",
"94 471 OFFCURVE",
"111 482 OFFCURVE",
"111 493 CURVE SMOOTH",
"111 494 OFFCURVE",
"107 500 OFFCURVE",
"100 512 CURVE SMOOTH",
"93 524 OFFCURVE",
"89 535 OFFCURVE",
"89 545 CURVE SMOOTH",
"89 571 OFFCURVE",
"109 590 OFFCURVE",
"148 603 CURVE SMOOTH",
"177 612 OFFCURVE",
"208 617 OFFCURVE",
"241 617 CURVE SMOOTH",
"267 617 OFFCURVE",
"294 614 OFFCURVE",
"323 609 CURVE",
"304 556 OFFCURVE",
"283 478 OFFCURVE",
"261 374 CURVE",
"206 371 OFFCURVE",
"164 358 OFFCURVE",
"136 335 CURVE SMOOTH",
"100 306 LINE",
"102 303 LINE",
"140 329 OFFCURVE",
"189 342 OFFCURVE",
"249 342 CURVE SMOOTH",
"254 342 LINE",
"246 304 LINE SMOOTH",
"235 251 OFFCURVE",
"225 210 OFFCURVE",
"214 179 CURVE",
"219 200 OFFCURVE",
"221 219 OFFCURVE",
"221 235 CURVE SMOOTH",
"221 286 OFFCURVE",
"199 311 OFFCURVE",
"156 311 CURVE SMOOTH",
"127 311 OFFCURVE",
"103 299 OFFCURVE",
"85 276 CURVE",
"112 277 OFFCURVE",
"125 265 OFFCURVE",
"125 239 CURVE SMOOTH",
"125 234 OFFCURVE",
"124 228 OFFCURVE",
"123 222 CURVE",
"145 233 OFFCURVE",
"156 250 OFFCURVE",
"156 274 CURVE SMOOTH",
"156 286 OFFCURVE",
"151 294 OFFCURVE",
"141 299 CURVE",
"146 300 OFFCURVE",
"150 300 OFFCURVE",
"154 300 CURVE SMOOTH",
"189 300 OFFCURVE",
"207 278 OFFCURVE",
"207 233 CURVE SMOOTH",
"207 190 OFFCURVE",
"192 130 OFFCURVE",
"161 55 CURVE",
"100 36 OFFCURVE",
"54 1 OFFCURVE",
"21 -49 CURVE SMOOTH",
"8 -68 OFFCURVE",
"2 -86 OFFCURVE",
"2 -105 CURVE SMOOTH",
"2 -140 OFFCURVE",
"29 -167 OFFCURVE",
"65 -167 CURVE SMOOTH"
);
},
{
closed = 1;
nodes = (
"189 90 LINE SMOOTH",
"217 151 OFFCURVE",
"236 201 OFFCURVE",
"245 239 CURVE SMOOTH",
"269 341 LINE",
"282 341 OFFCURVE",
"296 340 OFFCURVE",
"311 338 CURVE",
"287 223 OFFCURVE",
"254 132 OFFCURVE",
"211 67 CURVE",
"200 65 OFFCURVE",
"188 63 OFFCURVE",
"177 60 CURVE"
);
},
{
closed = 1;
nodes = (
"305 375 OFFCURVE",
"294 375 OFFCURVE",
"285 375 CURVE SMOOTH",
"276 375 LINE",
"299 473 OFFCURVE",
"321 550 OFFCURVE",
"342 605 CURVE",
"397 592 LINE",
"380 577 OFFCURVE",
"365 562 OFFCURVE",
"354 546 CURVE",
"338 483 OFFCURVE",
"326 426 OFFCURVE",
"318 375 CURVE SMOOTH",
"318 374 LINE"
);
}
);
width = 766;
}
);
note = E;
unicode = 0045;
},
{
glyphname = F;
lastChange = "2021-11-24 20:48:23 +0000";
layers = (
{
hints = (
{
horizontal = 1;
place = "{-54, 10}";
type = Stem;
},
{
horizontal = 1;
place = "{17, 10}";
type = Stem;
},
{
horizontal = 1;
place = "{370, 30}";
type = Stem;
},
{
horizontal = 1;
place = "{497, 9}";
type = Stem;
},
{
horizontal = 1;
place = "{565, 31}";
type = Stem;
},
{
horizontal = 1;
place = "{651, 39}";
type = Stem;
},
{
place = "{19, 9}";
type = Stem;
},
{
place = "{521, 13}";
type = Stem;
},
{
place = "{885, 8}";
type = Stem;
},
{
horizontal = 1;
place = "{676, 13}";
type = Stem;
},
{
horizontal = 1;
place = "{356, 34}";
type = Stem;
},
{
horizontal = 1;
place = "{533, 12}";
type = Stem;
},
{
place = "{439, 9}";
type = Stem;
},
{
horizontal = 1;
place = "{343, 32}";
type = Stem;
}
);
layerId = "64752FBD-EC7B-42BB-A7F3-340BB4BBD1AC";
paths = (
{
closed = 1;
nodes = (
"366 -54 OFFCURVE",
"448 -13 OFFCURVE",
"513 70 CURVE SMOOTH",
"559 129 OFFCURVE",
"602 220 OFFCURVE",
"641 344 CURVE",
"646 343 OFFCURVE",
"652 343 OFFCURVE",
"657 343 CURVE SMOOTH",
"682 343 OFFCURVE",
"704 348 OFFCURVE",
"725 357 CURVE SMOOTH",
"752 370 OFFCURVE",
"766 382 OFFCURVE",
"766 393 CURVE SMOOTH",
"766 394 OFFCURVE",
"765 395 OFFCURVE",
"762 395 CURVE",
"737 382 OFFCURVE",
"707 375 OFFCURVE",
"672 375 CURVE SMOOTH",
"651 375 LINE",
"686 488 OFFCURVE",
"706 552 OFFCURVE",
"711 565 CURVE",
"719 565 LINE SMOOTH",
"835 564 OFFCURVE",
"893 599 OFFCURVE",
"893 668 CURVE SMOOTH",
"893 697 OFFCURVE",
"887 711 OFFCURVE",
"874 711 CURVE SMOOTH",
"870 711 OFFCURVE",
"868 709 OFFCURVE",
"868 706 CURVE",
"868 706 OFFCURVE",
"885 688 OFFCURVE",
"885 668 CURVE SMOOTH",
"885 651 OFFCURVE",
"879 635 OFFCURVE",
"866 620 CURVE SMOOTH",
"851 604 OFFCURVE",
"820 596 OFFCURVE",
"772 596 CURVE SMOOTH",
"757 596 OFFCURVE",
"740 597 OFFCURVE",
"723 598 CURVE",
"732 617 LINE SMOOTH",
"749 656 OFFCURVE",
"770 676 OFFCURVE",
"795 676 CURVE SMOOTH",
"806 676 OFFCURVE",
"817 671 OFFCURVE",
"826 660 CURVE SMOOTH",
"836 650 OFFCURVE",
"842 645 OFFCURVE",
"844 645 CURVE SMOOTH",
"850 645 OFFCURVE",
"853 649 OFFCURVE",
"853 656 CURVE SMOOTH",
"853 675 OFFCURVE",
"820 689 OFFCURVE",
"800 689 CURVE SMOOTH",
"781 689 OFFCURVE",
"760 682 OFFCURVE",
"739 669 CURVE SMOOTH",
"718 656 OFFCURVE",
"702 641 OFFCURVE",
"691 624 CURVE SMOOTH",
"677 602 LINE",
"526 632 OFFCURVE",
"413 657 OFFCURVE",
"338 676 CURVE SMOOTH",
"293 685 OFFCURVE",
"254 690 OFFCURVE",
"220 690 CURVE SMOOTH",
"136 690 OFFCURVE",
"74 661 OFFCURVE",
"35 603 CURVE SMOOTH",
"24 587 OFFCURVE",
"19 571 OFFCURVE",
"19 555 CURVE SMOOTH",
"19 527 OFFCURVE",
"32 509 OFFCURVE",
"59 500 CURVE SMOOTH",
"66 498 OFFCURVE",
"71 497 OFFCURVE",
"74 497 CURVE SMOOTH",
"78 497 OFFCURVE",
"80 500 OFFCURVE",
"83 500 CURVE SMOOTH",
"100 501 OFFCURVE",
"109 503 OFFCURVE",
"109 505 CURVE SMOOTH",
"109 506 OFFCURVE",
"108 506 OFFCURVE",
"106 506 CURVE SMOOTH",
"54 506 OFFCURVE",
"28 525 OFFCURVE",
"28 562 CURVE SMOOTH",
"28 583 OFFCURVE",
"38 602 OFFCURVE",
"59 619 CURVE SMOOTH",
"85 640 OFFCURVE",
"125 651 OFFCURVE",
"178 651 CURVE SMOOTH",
"220 651 OFFCURVE",
"273 644 OFFCURVE",
"337 631 CURVE SMOOTH",
"390 619 OFFCURVE",
"444 607 OFFCURVE",
"498 594 CURVE SMOOTH",
"561 580 OFFCURVE",
"615 571 OFFCURVE",
"660 568 CURVE",
"643 529 OFFCURVE",
"622 467 OFFCURVE",
"599 380 CURVE",
"570 385 OFFCURVE",
"549 388 OFFCURVE",
"534 390 CURVE",
"530 431 OFFCURVE",
"518 465 OFFCURVE",
"498 494 CURVE SMOOTH",
"474 528 OFFCURVE",
"443 545 OFFCURVE",
"406 545 CURVE SMOOTH",
"381 545 OFFCURVE",
"368 540 OFFCURVE",
"368 529 CURVE SMOOTH",
"368 528 OFFCURVE",
"369 527 OFFCURVE",
"371 527 CURVE SMOOTH",
"378 527 OFFCURVE",
"394 533 OFFCURVE",
"402 533 CURVE SMOOTH",
"433 533 OFFCURVE",
"459 517 OFFCURVE",
"481 486 CURVE SMOOTH",
"500 460 OFFCURVE",
"513 429 OFFCURVE",
"519 392 CURVE",
"485 397 OFFCURVE",
"456 400 OFFCURVE",
"433 400 CURVE SMOOTH",
"375 400 OFFCURVE",
"332 388 OFFCURVE",
"303 365 CURVE SMOOTH",
"271 339 LINE",
"273 336 LINE",
"306 359 OFFCURVE",
"349 370 OFFCURVE",
"402 370 CURVE SMOOTH",
"430 370 OFFCURVE",
"470 366 OFFCURVE",
"521 358 CURVE",
"520 297 OFFCURVE",
"496 245 OFFCURVE",
"448 202 CURVE",
"462 226 LINE",
"463 227 OFFCURVE",
"463 229 OFFCURVE",
"463 231 CURVE SMOOTH",
"463 236 OFFCURVE",
"457 253 OFFCURVE",
"445 280 CURVE",
"443 282 LINE",
"435 279 OFFCURVE",
"426 253 OFFCURVE",
"426 244 CURVE",
"435 223 OFFCURVE",
"439 210 OFFCURVE",
"439 205 CURVE SMOOTH",
"439 197 OFFCURVE",
"437 189 OFFCURVE",
"433 182 CURVE",
"496 222 OFFCURVE",
"529 280 OFFCURVE",
"534 356 CURVE",
"558 352 OFFCURVE",
"577 349 OFFCURVE",
"591 348 CURVE",
"556 221 OFFCURVE",
"522 132 OFFCURVE",
"488 80 CURVE SMOOTH",
"434 -3 OFFCURVE",
"360 -44 OFFCURVE",
"265 -44 CURVE SMOOTH",
"178 -44 OFFCURVE",
"114 2 OFFCURVE",
"73 93 CURVE SMOOTH",
"96 42 OFFCURVE",
"144 17 OFFCURVE",
"218 17 CURVE SMOOTH",
"270 17 OFFCURVE",
"296 23 OFFCURVE",
"296 36 CURVE SMOOTH",
"296 37 OFFCURVE",
"295 38 OFFCURVE",
"293 39 CURVE",
"291 39 OFFCURVE",
"283 37 OFFCURVE",
"269 33 CURVE SMOOTH",
"255 29 OFFCURVE",
"244 27 OFFCURVE",
"235 27 CURVE SMOOTH",
"180 27 OFFCURVE",
"137 45 OFFCURVE",
"106 81 CURVE SMOOTH",
"93 95 OFFCURVE",
"82 112 OFFCURVE",
"75 131 CURVE SMOOTH",
"71 142 OFFCURVE",
"65 160 OFFCURVE",
"58 186 CURVE SMOOTH",
"57 191 OFFCURVE",
"54 193 OFFCURVE",
"50 193 CURVE SMOOTH",
"35 193 OFFCURVE",
"27 182 OFFCURVE",
"27 160 CURVE SMOOTH",
"27 141 OFFCURVE",
"32 116 OFFCURVE",
"43 86 CURVE SMOOTH",
"58 43 OFFCURVE",
"88 9 OFFCURVE",
"133 -18 CURVE SMOOTH",
"174 -42 OFFCURVE",
"219 -54 OFFCURVE",
"266 -54 CURVE SMOOTH"
);
}
);
width = 703;
}
);
note = F;
unicode = 0046;
},
{
glyphname = G;
lastChange = "2021-11-24 20:48:23 +0000";
layers = (
{
hints = (
{
horizontal = 1;
place = "{-267, 12}";
type = Stem;
},
{
horizontal = 1;
place = "{-165, 29}";
type = Stem;
},
{
horizontal = 1;
place = "{7, 27}";
type = Stem;
},
{
horizontal = 1;
place = "{336, 37}";
type = Stem;
},
{
horizontal = 1;
place = "{692, 13}";
type = Stem;
},
{
place = "{38, 53}";
type = Stem;
},
{
place = "{367, 40}";
type = Stem;
},
{
place = "{453, 13}";
type = Stem;
},
{
place = "{546, 12}";
type = Stem;
},
{
horizontal = 1;
place = "{305, 15}";
type = Stem;
},
{
place = "{-91, 49}";
type = Stem;
},
{
place = "{276, 16}";
type = Stem;
},
{
horizontal = 1;
place = "{309, 38}";
type = Stem;
},
{
place = "{699, 28}";
type = Stem;
}
);
layerId = "64752FBD-EC7B-42BB-A7F3-340BB4BBD1AC";
paths = (
{
closed = 1;
nodes = (
"210 -267 OFFCURVE",
"272 -250 OFFCURVE",
"328 -215 CURVE SMOOTH",
"403 -169 OFFCURVE",
"459 -104 OFFCURVE",
"496 -21 CURVE SMOOTH",
"511 13 OFFCURVE",
"537 96 OFFCURVE",
"574 227 CURVE SMOOTH",
"585 268 OFFCURVE",
"596 299 OFFCURVE",
"607 320 CURVE",
"642 313 OFFCURVE",
"665 309 OFFCURVE",
"675 309 CURVE SMOOTH",
"707 309 OFFCURVE",
"736 322 OFFCURVE",
"762 348 CURVE SMOOTH",
"768 354 OFFCURVE",
"771 359 OFFCURVE",
"771 363 CURVE SMOOTH",
"771 366 OFFCURVE",
"770 367 OFFCURVE",
"768 367 CURVE SMOOTH",
"766 367 OFFCURVE",
"764 366 OFFCURVE",
"762 364 CURVE SMOOTH",
"750 353 OFFCURVE",
"732 347 OFFCURVE",
"708 347 CURVE SMOOTH",
"695 347 OFFCURVE",
"669 351 OFFCURVE",
"632 358 CURVE",
"648 374 OFFCURVE",
"654 376 OFFCURVE",
"655 379 CURVE SMOOTH",
"655 380 OFFCURVE",
"653 381 OFFCURVE",
"650 381 CURVE SMOOTH",
"635 381 OFFCURVE",
"617 376 OFFCURVE",
"596 365 CURVE",
"567 370 OFFCURVE",
"541 373 OFFCURVE",
"520 373 CURVE",
"527 405 OFFCURVE",
"532 433 OFFCURVE",
"536 458 CURVE SMOOTH",
"550 542 OFFCURVE",
"557 619 OFFCURVE",
"558 690 CURVE",
"609 684 OFFCURVE",
"649 663 OFFCURVE",
"679 626 CURVE SMOOTH",
"692 609 OFFCURVE",
"699 596 OFFCURVE",
"699 585 CURVE SMOOTH",
"699 577 OFFCURVE",
"693 569 OFFCURVE",
"693 568 CURVE SMOOTH",
"693 564 OFFCURVE",
"696 562 OFFCURVE",
"703 562 CURVE SMOOTH",
"716 562 OFFCURVE",
"727 585 OFFCURVE",
"727 598 CURVE SMOOTH",
"727 611 OFFCURVE",
"721 624 OFFCURVE",
"709 639 CURVE SMOOTH",
"677 679 OFFCURVE",
"627 701 OFFCURVE",
"558 705 CURVE",
"557 764 OFFCURVE",
"555 795 OFFCURVE",
"551 798 CURVE",
"548 796 OFFCURVE",
"546 791 OFFCURVE",
"546 782 CURVE SMOOTH",
"546 758 LINE SMOOTH",
"547 747 OFFCURVE",
"547 739 OFFCURVE",
"547 734 CURVE SMOOTH",
"547 705 LINE",
"537 705 LINE SMOOTH",
"475 705 OFFCURVE",
"411 691 OFFCURVE",
"344 663 CURVE SMOOTH",
"254 624 OFFCURVE",
"182 569 OFFCURVE",
"127 498 CURVE SMOOTH",
"68 421 OFFCURVE",
"38 336 OFFCURVE",
"38 243 CURVE SMOOTH",
"38 176 OFFCURVE",
"56 121 OFFCURVE",
"93 78 CURVE SMOOTH",
"132 31 OFFCURVE",
"185 7 OFFCURVE",
"250 7 CURVE SMOOTH",
"322 7 OFFCURVE",
"381 40 OFFCURVE",
"428 107 CURVE",
"384 -18 OFFCURVE",
"342 -97 OFFCURVE",
"302 -128 CURVE SMOOTH",
"297 -132 OFFCURVE",
"293 -135 OFFCURVE",
"290 -136 CURVE",
"291 -135 OFFCURVE",
"292 -133 OFFCURVE",
"292 -132 CURVE SMOOTH",
"292 -126 OFFCURVE",
"287 -119 OFFCURVE",
"277 -112 CURVE SMOOTH",
"267 -105 OFFCURVE",
"261 -100 OFFCURVE",
"260 -96 CURVE",
"249 -96 OFFCURVE",
"235 -120 OFFCURVE",
"235 -132 CURVE SMOOTH",
"235 -148 OFFCURVE",
"242 -160 OFFCURVE",
"256 -168 CURVE",
"264 -162 OFFCURVE",
"271 -156 OFFCURVE",
"276 -150 CURVE",
"278 -160 OFFCURVE",
"282 -165 OFFCURVE",
"287 -165 CURVE SMOOTH",
"324 -165 OFFCURVE",
"371 -91 OFFCURVE",
"426 58 CURVE SMOOTH",
"463 159 OFFCURVE",
"492 252 OFFCURVE",
"511 335 CURVE",
"526 334 OFFCURVE",
"542 331 OFFCURVE",
"561 328 CURVE",
"549 293 OFFCURVE",
"541 267 OFFCURVE",
"536 249 CURVE SMOOTH",
"506 132 OFFCURVE",
"482 51 OFFCURVE",
"463 8 CURVE SMOOTH",
"428 -76 OFFCURVE",
"378 -143 OFFCURVE",
"314 -192 CURVE SMOOTH",
"259 -234 OFFCURVE",
"202 -255 OFFCURVE",
"142 -255 CURVE SMOOTH",
"52 -255 OFFCURVE",
"-12 -209 OFFCURVE",
"-49 -116 CURVE SMOOTH",
"-46 -122 OFFCURVE",
"-37 -132 OFFCURVE",
"-24 -146 CURVE SMOOTH",
"-11 -160 OFFCURVE",
"-2 -167 OFFCURVE",
"3 -167 CURVE SMOOTH",
"4 -167 OFFCURVE",
"5 -166 OFFCURVE",
"6 -165 CURVE",
"6 -163 OFFCURVE",
"5 -161 OFFCURVE",
"2 -158 CURVE SMOOTH",
"-23 -133 OFFCURVE",
"-38 -99 OFFCURVE",
"-42 -58 CURVE SMOOTH",
"-43 -43 OFFCURVE",
"-45 -31 OFFCURVE",
"-46 -24 CURVE SMOOTH",
"-47 -19 OFFCURVE",
"-51 -17 OFFCURVE",
"-58 -17 CURVE SMOOTH",
"-80 -17 OFFCURVE",
"-91 -29 OFFCURVE",
"-91 -54 CURVE SMOOTH",
"-91 -73 OFFCURVE",
"-87 -96 OFFCURVE",
"-79 -123 CURVE SMOOTH",
"-64 -170 OFFCURVE",
"-35 -207 OFFCURVE",
"7 -232 CURVE SMOOTH",
"46 -255 OFFCURVE",
"92 -267 OFFCURVE",
"143 -267 CURVE SMOOTH"
);
},
{
closed = 1;
nodes = (
"221 34 OFFCURVE",
"174 59 OFFCURVE",
"139 109 CURVE SMOOTH",
"107 154 OFFCURVE",
"91 206 OFFCURVE",
"91 267 CURVE SMOOTH",
"91 369 OFFCURVE",
"138 465 OFFCURVE",
"232 556 CURVE SMOOTH",
"327 647 OFFCURVE",
"425 692 OFFCURVE",
"527 692 CURVE SMOOTH",
"546 692 LINE",
"543 597 OFFCURVE",
"528 491 OFFCURVE",
"503 373 CURVE",
"448 370 OFFCURVE",
"405 355 OFFCURVE",
"373 329 CURVE SMOOTH",
"368 324 OFFCURVE",
"361 318 OFFCURVE",
"352 311 CURVE",
"344 307 OFFCURVE",
"336 302 OFFCURVE",
"327 295 CURVE",
"330 294 OFFCURVE",
"332 294 OFFCURVE",
"334 294 CURVE",
"335 292 LINE",
"336 293 LINE",
"357 286 OFFCURVE",
"367 273 OFFCURVE",
"367 253 CURVE SMOOTH",
"367 245 OFFCURVE",
"365 236 OFFCURVE",
"361 226 CURVE",
"385 231 OFFCURVE",
"407 256 OFFCURVE",
"407 279 CURVE SMOOTH",
"407 290 OFFCURVE",
"403 298 OFFCURVE",
"394 305 CURVE",
"433 301 OFFCURVE",
"453 269 OFFCURVE",
"453 208 CURVE SMOOTH",
"453 163 OFFCURVE",
"435 123 OFFCURVE",
"400 87 CURVE SMOOTH",
"365 52 OFFCURVE",
"324 34 OFFCURVE",
"279 34 CURVE SMOOTH"
);
},
{
closed = 1;
nodes = (
"464 251 OFFCURVE",
"457 273 OFFCURVE",
"445 290 CURVE SMOOTH",
"430 310 OFFCURVE",
"411 320 OFFCURVE",
"388 320 CURVE",
"417 331 OFFCURVE",
"449 336 OFFCURVE",
"484 336 CURVE SMOOTH",
"494 336 LINE",
"488 308 LINE SMOOTH",
"482 283 OFFCURVE",
"475 255 OFFCURVE",
"466 226 CURVE"
);
}
);
width = 623;
}
);
note = G;
unicode = 0047;
},
{
glyphname = H;
lastChange = "2021-11-24 20:48:23 +0000";
layers = (
{
hints = (
{
horizontal = 1;
place = "{-50, 14}";
type = Stem;
},
{
horizontal = 1;
place = "{247, 28}";
type = Stem;
},
{
horizontal = 1;
place = "{330, 15}";
type = Stem;
},
{
horizontal = 1;
place = "{588, 13}";
type = Stem;
},
{
horizontal = 1;
place = "{655, 34}";
type = Stem;
},
{
horizontal = 1;
place = "{774, 13}";
type = Stem;
},
{
place = "{5, 55}";
type = Stem;
},
{
place = "{126, 21}";
type = Stem;
},
{
place = "{255, 8}";
type = Stem;
},
{
place = "{450, 11}";
type = Stem;
},
{
place = "{512, 30}";
type = Stem;
},
{
place = "{577, 21}";
type = Stem;
},
{
place = "{869, 29}";
type = Stem;
},
{
place = "{1378, 7}";
type = Stem;
},
{
horizontal = 1;
place = "{-10, 13}";
type = Stem;
},
{
horizontal = 1;
place = "{299, 22}";
type = Stem;
},
{
horizontal = 1;
place = "{687, 12}";
type = Stem;
},
{
horizontal = 1;
place = "{369, 12}";
type = Stem;
},
{
horizontal = 1;
place = "{585, 12}";
type = Stem;
},
{
horizontal = 1;
place = "{756, 10}";
type = Stem;
},
{
horizontal = 1;
place = "{321, 19}";
type = Stem;
},
{
horizontal = 1;
place = "{267, 20}";
type = Stem;
},
{
horizontal = 1;
place = "{272, 20}";
type = Stem;
},
{
place = "{245, 56}";
type = Stem;
},
{
horizontal = 1;
place = "{247, 19}";
type = Stem;
}
);
layerId = "64752FBD-EC7B-42BB-A7F3-340BB4BBD1AC";
paths = (
{
closed = 1;
nodes = (
"264 -50 OFFCURVE",
"307 -43 OFFCURVE",
"348 -28 CURVE SMOOTH",
"450 8 OFFCURVE",
"534 104 OFFCURVE",
"599 261 CURVE",
"690 252 OFFCURVE",
"755 247 OFFCURVE",
"794 247 CURVE SMOOTH",
"832 247 OFFCURVE",
"863 250 OFFCURVE",
"887 257 CURVE",
"870 168 OFFCURVE",
"856 105 OFFCURVE",
"845 69 CURVE SMOOTH",
"831 25 OFFCURVE",
"811 3 OFFCURVE",
"784 3 CURVE SMOOTH",
"774 3 OFFCURVE",
"764 7 OFFCURVE",
"754 16 CURVE SMOOTH",
"744 25 OFFCURVE",
"738 30 OFFCURVE",
"736 30 CURVE SMOOTH",
"730 30 OFFCURVE",
"727 26 OFFCURVE",
"727 19 CURVE SMOOTH",
"727 10 OFFCURVE",
"734 3 OFFCURVE",
"747 -3 CURVE SMOOTH",
"758 -8 OFFCURVE",
"768 -10 OFFCURVE",
"778 -10 CURVE SMOOTH",
"798 -10 OFFCURVE",
"819 -2 OFFCURVE",
"840 13 CURVE SMOOTH",
"862 29 OFFCURVE",
"877 47 OFFCURVE",
"886 66 CURVE SMOOTH",
"899 95 OFFCURVE",
"910 132 OFFCURVE",
"921 178 CURVE SMOOTH",
"928 205 OFFCURVE",
"937 249 OFFCURVE",
"949 312 CURVE",
"1000 327 OFFCURVE",
"1034 358 OFFCURVE",
"1051 403 CURVE SMOOTH",
"1058 423 OFFCURVE",
"1062 438 OFFCURVE",
"1062 449 CURVE SMOOTH",
"1062 454 OFFCURVE",
"1060 456 OFFCURVE",
"1056 456 CURVE SMOOTH",
"1053 456 OFFCURVE",
"1051 454 OFFCURVE",
"1050 450 CURVE SMOOTH",
"1045 425 OFFCURVE",
"1039 406 OFFCURVE",
"1032 395 CURVE SMOOTH",
"1017 367 OFFCURVE",
"990 347 OFFCURVE",
"953 335 CURVE",
"975 448 OFFCURVE",
"997 531 OFFCURVE",
"1019 586 CURVE SMOOTH",
"1053 670 OFFCURVE",
"1099 726 OFFCURVE",
"1157 754 CURVE SMOOTH",
"1186 767 OFFCURVE",
"1214 774 OFFCURVE",
"1243 774 CURVE SMOOTH",
"1273 774 OFFCURVE",
"1301 769 OFFCURVE",
"1327 759 CURVE SMOOTH",
"1361 745 OFFCURVE",
"1378 725 OFFCURVE",
"1378 700 CURVE SMOOTH",
"1378 695 OFFCURVE",
"1373 682 OFFCURVE",
"1373 678 CURVE SMOOTH",
"1373 676 OFFCURVE",
"1374 675 OFFCURVE",
"1375 675 CURVE SMOOTH",
"1382 675 OFFCURVE",
"1385 684 OFFCURVE",
"1385 703 CURVE SMOOTH",
"1385 708 LINE",
"1384 711 OFFCURVE",
"1384 713 OFFCURVE",
"1384 714 CURVE SMOOTH",
"1384 721 OFFCURVE",
"1396 724 OFFCURVE",
"1396 727 CURVE",
"1394 731 LINE",
"1361 768 OFFCURVE",
"1317 787 OFFCURVE",
"1262 787 CURVE SMOOTH",
"1213 787 OFFCURVE",
"1167 776 OFFCURVE",
"1126 754 CURVE SMOOTH",
"1062 721 OFFCURVE",
"1011 661 OFFCURVE",
"973 576 CURVE SMOOTH",
"946 517 OFFCURVE",
"922 433 OFFCURVE",
"900 324 CURVE",
"882 322 OFFCURVE",
"861 321 OFFCURVE",
"837 321 CURVE SMOOTH",
"795 321 OFFCURVE",
"725 325 OFFCURVE",
"627 334 CURVE",
"715 593 LINE",
"737 590 OFFCURVE",
"757 588 OFFCURVE",
"775 588 CURVE SMOOTH",
"804 588 OFFCURVE",
"830 593 OFFCURVE",
"853 604 CURVE SMOOTH",
"883 617 OFFCURVE",
"898 637 OFFCURVE",
"898 663 CURVE SMOOTH",
"898 690 OFFCURVE",
"888 703 OFFCURVE",
"867 703 CURVE SMOOTH",
"858 703 OFFCURVE",
"854 700 OFFCURVE",
"854 693 CURVE SMOOTH",
"854 686 OFFCURVE",
"869 673 OFFCURVE",
"869 657 CURVE SMOOTH",
"869 620 OFFCURVE",
"837 601 OFFCURVE",
"773 601 CURVE SMOOTH",
"757 601 OFFCURVE",
"740 603 OFFCURVE",
"721 606 CURVE",
"731 628 LINE SMOOTH",
"750 667 OFFCURVE",
"771 687 OFFCURVE",
"795 687 CURVE SMOOTH",
"807 687 OFFCURVE",
"818 682 OFFCURVE",
"827 671 CURVE SMOOTH",
"836 660 OFFCURVE",
"842 655 OFFCURVE",
"844 655 CURVE SMOOTH",
"851 655 OFFCURVE",
"854 659 OFFCURVE",
"854 667 CURVE SMOOTH",
"854 676 OFFCURVE",
"847 684 OFFCURVE",
"833 691 CURVE SMOOTH",
"822 696 OFFCURVE",
"811 699 OFFCURVE",
"801 699 CURVE SMOOTH",
"758 699 OFFCURVE",
"721 678 OFFCURVE",
"690 635 CURVE SMOOTH",
"685 629 OFFCURVE",
"681 622 OFFCURVE",
"677 615 CURVE",
"656 620 OFFCURVE",
"629 628 OFFCURVE",
"597 638 CURVE",
"598 646 OFFCURVE",
"598 654 OFFCURVE",
"598 662 CURVE SMOOTH",
"598 731 OFFCURVE",
"576 766 OFFCURVE",
"532 766 CURVE SMOOTH",
"508 766 OFFCURVE",
"487 754 OFFCURVE",
"470 730 CURVE",
"498 732 OFFCURVE",
"512 719 OFFCURVE",
"512 692 CURVE SMOOTH",
"512 687 OFFCURVE",
"512 683 OFFCURVE",
"511 678 CURVE",
"532 689 OFFCURVE",
"542 706 OFFCURVE",
"542 730 CURVE SMOOTH",
"542 743 OFFCURVE",
"537 751 OFFCURVE",
"526 756 CURVE",
"533 756 LINE SMOOTH",
"562 756 OFFCURVE",
"577 725 OFFCURVE",
"577 663 CURVE SMOOTH",
"577 644 LINE",
"480 674 OFFCURVE",
"408 689 OFFCURVE",
"361 689 CURVE SMOOTH",
"254 689 OFFCURVE",
"182 655 OFFCURVE",
"145 587 CURVE SMOOTH",
"132 564 OFFCURVE",
"126 540 OFFCURVE",
"126 515 CURVE SMOOTH",
"126 470 OFFCURVE",
"143 433 OFFCURVE",
"177 406 CURVE SMOOTH",
"208 381 OFFCURVE",
"247 369 OFFCURVE",
"294 369 CURVE SMOOTH",
"335 369 OFFCURVE",
"372 381 OFFCURVE",
"405 406 CURVE SMOOTH",
"442 433 OFFCURVE",
"461 467 OFFCURVE",
"461 506 CURVE SMOOTH",
"461 533 OFFCURVE",
"449 555 OFFCURVE",
"426 572 CURVE SMOOTH",
"403 589 OFFCURVE",
"378 597 OFFCURVE",
"350 597 CURVE SMOOTH",
"326 597 OFFCURVE",
"305 592 OFFCURVE",
"287 581 CURVE SMOOTH",
"266 568 OFFCURVE",
"255 551 OFFCURVE",
"255 528 CURVE SMOOTH",
"255 527 OFFCURVE",
"256 525 OFFCURVE",
"257 524 CURVE",
"260 525 OFFCURVE",
"262 529 OFFCURVE",
"263 535 CURVE SMOOTH",
"264 544 OFFCURVE",
"266 550 OFFCURVE",
"267 553 CURVE SMOOTH",
"277 574 OFFCURVE",
"305 585 OFFCURVE",
"350 585 CURVE SMOOTH",
"375 585 OFFCURVE",
"397 578 OFFCURVE",
"418 563 CURVE SMOOTH",
"439 548 OFFCURVE",
"450 529 OFFCURVE",
"450 506 CURVE SMOOTH",
"450 470 OFFCURVE",
"433 439 OFFCURVE",
"398 414 CURVE SMOOTH",
"366 392 OFFCURVE",
"331 381 OFFCURVE",
"294 381 CURVE SMOOTH",
"255 381 OFFCURVE",
"221 390 OFFCURVE",
"194 408 CURVE SMOOTH",
"163 429 OFFCURVE",
"147 458 OFFCURVE",
"147 495 CURVE SMOOTH",
"147 518 OFFCURVE",
"154 540 OFFCURVE",
"167 561 CURVE SMOOTH",
"206 624 OFFCURVE",
"278 655 OFFCURVE",
"384 655 CURVE SMOOTH",
"431 655 OFFCURVE",
"495 645 OFFCURVE",
"576 625 CURVE",
"571 560 OFFCURVE",
"553 468 OFFCURVE",
"513 343 CURVE",
"492 344 OFFCURVE",
"471 345 OFFCURVE",
"452 345 CURVE SMOOTH",
"416 345 OFFCURVE",
"383 343 OFFCURVE",
"353 339 CURVE SMOOTH",
"190 320 OFFCURVE",
"83 272 OFFCURVE",
"32 195 CURVE SMOOTH",
"14 169 OFFCURVE",
"5 142 OFFCURVE",
"5 113 CURVE SMOOTH",
"5 62 OFFCURVE",
"29 21 OFFCURVE",
"77 -10 CURVE SMOOTH",
"119 -37 OFFCURVE",
"167 -50 OFFCURVE",
"221 -50 CURVE SMOOTH"
);
},
{
closed = 1;
nodes = (
"181 -36 OFFCURVE",
"143 -24 OFFCURVE",
"112 -1 CURVE SMOOTH",
"77 25 OFFCURVE",
"60 60 OFFCURVE",
"60 104 CURVE SMOOTH",
"60 132 OFFCURVE",
"68 159 OFFCURVE",
"83 186 CURVE SMOOTH",
"130 267 OFFCURVE",
"220 313 OFFCURVE",
"354 326 CURVE SMOOTH",
"377 329 OFFCURVE",
"401 330 OFFCURVE",
"428 330 CURVE SMOOTH",
"453 330 OFFCURVE",
"479 329 OFFCURVE",
"508 327 CURVE",
"496 291 LINE",
"477 292 OFFCURVE",
"459 292 OFFCURVE",
"442 292 CURVE SMOOTH",
"366 292 OFFCURVE",
"310 279 OFFCURVE",
"273 252 CURVE SMOOTH",
"254 238 OFFCURVE",
"245 224 OFFCURVE",
"245 209 CURVE SMOOTH",
"245 190 OFFCURVE",
"251 177 OFFCURVE",
"263 168 CURVE",
"290 191 OFFCURVE",
"303 205 OFFCURVE",
"301 209 CURVE",
"290 208 OFFCURVE",
"282 219 OFFCURVE",
"276 240 CURVE",
"310 261 OFFCURVE",
"363 272 OFFCURVE",
"435 272 CURVE SMOOTH",
"452 272 OFFCURVE",
"469 272 OFFCURVE",
"488 271 CURVE",
"435 123 OFFCURVE",
"385 37 OFFCURVE",
"337 12 CURVE SMOOTH",
"323 5 OFFCURVE",
"316 0 OFFCURVE",
"316 -3 CURVE SMOOTH",
"316 -4 OFFCURVE",
"318 -5 OFFCURVE",
"322 -5 CURVE SMOOTH",
"328 -5 OFFCURVE",
"335 -3 OFFCURVE",
"343 0 CURVE SMOOTH",
"388 21 OFFCURVE",
"441 111 OFFCURVE",
"504 270 CURVE",
"556 265 LINE",
"519 154 OFFCURVE",
"474 76 OFFCURVE",
"422 31 CURVE SMOOTH",
"399 12 OFFCURVE",
"373 -4 OFFCURVE",
"343 -15 CURVE SMOOTH",
"304 -29 OFFCURVE",
"266 -36 OFFCURVE",
"227 -36 CURVE SMOOTH"
);
},
{
closed = 1;
nodes = (
"511 290 LINE",
"525 325 LINE",
"540 324 OFFCURVE",
"556 323 OFFCURVE",
"573 321 CURVE",
"570 308 OFFCURVE",
"566 296 OFFCURVE",
"562 285 CURVE"
);
},
{
closed = 1;
nodes = (
"764 266 OFFCURVE",
"698 271 OFFCURVE",
"607 281 CURVE",
"611 292 OFFCURVE",
"615 304 OFFCURVE",
"620 316 CURVE",
"721 305 OFFCURVE",
"794 299 OFFCURVE",
"839 299 CURVE SMOOTH",
"860 299 OFFCURVE",
"879 300 OFFCURVE",
"896 302 CURVE",
"890 275 LINE",
"868 269 OFFCURVE",
"839 266 OFFCURVE",
"803 266 CURVE SMOOTH"
);
},
{
closed = 1;
nodes = (
"530 342 LINE",
"545 387 OFFCURVE",
"558 430 OFFCURVE",
"569 472 CURVE SMOOTH",
"584 530 OFFCURVE",
"593 579 OFFCURVE",
"596 620 CURVE",
"629 611 OFFCURVE",
"653 605 OFFCURVE",
"669 602 CURVE",
"652 571 OFFCURVE",
"634 526 OFFCURVE",
"617 469 CURVE SMOOTH",
"578 339 LINE"
);
}
);
width = 975;
}
);
note = H;
unicode = 0048;
},
{
glyphname = I;
lastChange = "2021-12-23 19:22:05 +0000";
layers = (
{
hints = (
{
horizontal = 1;
place = "{0, 21}";
target = up;
type = BottomGhost;
},
{
horizontal = 1;
place = "{32, 57}";
type = Stem;
},
{
horizontal = 1;
place = "{407, 11}";
type = Stem;
},
{
horizontal = 1;
place = "{625, 49}";
type = Stem;
},
{
horizontal = 1;
place = "{856, -20}";
target = down;
type = TopGhost;
},
{
place = "{202, 20}";
type = Stem;
},
{
horizontal = 1;
place = "{25, 52}";
type = Stem;
},
{
horizontal = 1;
place = "{-2, 53}";
type = Stem;
},
{
horizontal = 1;
place = "{688, 36}";
type = Stem;
},
{
horizontal = 1;
place = "{678, 51}";
type = Stem;
},
{
place = "{114, 33}";
type = Stem;
},
{
place = "{124, 26}";
type = Stem;
}
);
layerId = "64752FBD-EC7B-42BB-A7F3-340BB4BBD1AC";
paths = (
{
closed = 1;
nodes = (
"66 -166 OFFCURVE",
"79 -157 OFFCURVE",
"100 -140 CURVE SMOOTH",
"121 -123 OFFCURVE",
"148 -68 OFFCURVE",
"180 27 CURVE",
"208 23 LINE",
"204 16 OFFCURVE",
"200 9 OFFCURVE",
"195 2 CURVE",
"197 0 LINE",
"238 19 LINE",
"328 5 OFFCURVE",
"381 -2 OFFCURVE",
"397 -2 CURVE SMOOTH",
"428 -2 OFFCURVE",
"455 6 OFFCURVE",
"478 21 CURVE SMOOTH",
"515 46 OFFCURVE",
"533 63 OFFCURVE",
"533 72 CURVE SMOOTH",
"533 73 OFFCURVE",
"532 74 OFFCURVE",
"530 74 CURVE",
"501 59 OFFCURVE",
"467 51 OFFCURVE",
"426 51 CURVE SMOOTH",
"393 51 OFFCURVE",
"346 57 OFFCURVE",
"286 68 CURVE",
"303 106 OFFCURVE",
"326 195 OFFCURVE",
"355 334 CURVE SMOOTH",
"387 487 OFFCURVE",
"411 589 OFFCURVE",
"428 640 CURVE",
"467 630 OFFCURVE",
"501 625 OFFCURVE",
"530 625 CURVE SMOOTH",
"590 625 OFFCURVE",
"632 654 OFFCURVE",
"657 711 CURVE SMOOTH",
"659 715 OFFCURVE",
"660 718 OFFCURVE",
"660 721 CURVE SMOOTH",
"660 722 OFFCURVE",
"659 723 OFFCURVE",
"658 724 CURVE",
"655 724 OFFCURVE",
"651 720 OFFCURVE",
"646 711 CURVE SMOOTH",
"631 686 OFFCURVE",
"601 674 OFFCURVE",
"555 674 CURVE SMOOTH",
"523 674 OFFCURVE",
"487 679 OFFCURVE",
"447 688 CURVE",
"453 703 OFFCURVE",
"459 715 OFFCURVE",
"466 724 CURVE",
"459 724 OFFCURVE",
"452 723 OFFCURVE",
"445 721 CURVE SMOOTH",
"419 714 OFFCURVE",
"403 708 OFFCURVE",
"396 702 CURVE",
"348 717 LINE",
"367 792 OFFCURVE",
"383 839 OFFCURVE",
"396 856 CURVE",
"383 854 OFFCURVE",
"373 849 OFFCURVE",
"366 841 CURVE SMOOTH",
"362 837 OFFCURVE",
"355 827 OFFCURVE",
"346 812 CURVE",
"327 723 LINE",
"310 727 OFFCURVE",
"296 729 OFFCURVE",
"283 729 CURVE SMOOTH",
"247 729 OFFCURVE",
"210 709 OFFCURVE",
"171 668 CURVE SMOOTH",
"133 627 OFFCURVE",
"114 589 OFFCURVE",
"114 552 CURVE SMOOTH",
"114 538 OFFCURVE",
"117 527 OFFCURVE",
"124 518 CURVE",
"151 531 OFFCURVE",
"164 543 OFFCURVE",
"164 554 CURVE",
"164 554 OFFCURVE",
"161 560 OFFCURVE",
"155 573 CURVE SMOOTH",
"150 586 OFFCURVE",
"147 597 OFFCURVE",
"147 606 CURVE SMOOTH",
"147 631 OFFCURVE",
"161 650 OFFCURVE",
"189 663 CURVE SMOOTH",
"211 673 OFFCURVE",
"236 678 OFFCURVE",
"264 678 CURVE SMOOTH",
"281 678 OFFCURVE",
"298 676 OFFCURVE",
"316 672 CURVE",
"275 481 OFFCURVE",
"241 335 OFFCURVE",
"214 236 CURVE",
"219 267 OFFCURVE",
"222 294 OFFCURVE",
"222 317 CURVE SMOOTH",
"222 385 OFFCURVE",
"200 419 OFFCURVE",
"155 419 CURVE SMOOTH",
"121 419 OFFCURVE",
"95 402 OFFCURVE",
"78 374 CURVE",
"82 375 OFFCURVE",
"86 375 OFFCURVE",
"89 375 CURVE SMOOTH",
"114 375 OFFCURVE",
"125 354 OFFCURVE",
"124 326 CURVE",
"141 337 OFFCURVE",
"151 353 OFFCURVE",
"151 372 CURVE SMOOTH",
"151 390 OFFCURVE",
"144 400 OFFCURVE",
"131 404 CURVE",
"137 406 OFFCURVE",
"141 407 OFFCURVE",
"143 407 CURVE SMOOTH",
"182 408 OFFCURVE",
"202 374 OFFCURVE",
"202 306 CURVE SMOOTH",
"202 247 OFFCURVE",
"189 174 OFFCURVE",
"164 87 CURVE",
"151 88 OFFCURVE",
"138 89 OFFCURVE",
"126 89 CURVE SMOOTH",
"87 89 OFFCURVE",
"56 82 OFFCURVE",
"33 67 CURVE SMOOTH",
"24 61 OFFCURVE",
"0 39 OFFCURVE",
"-41 0 CURVE",
"-39 -2 LINE",
"-6 21 OFFCURVE",
"41 32 OFFCURVE",
"104 32 CURVE SMOOTH",
"117 32 OFFCURVE",
"132 31 OFFCURVE",
"147 30 CURVE",
"147 29 OFFCURVE",
"147 29 OFFCURVE",
"148 29 CURVE SMOOTH",
"149 29 OFFCURVE",
"149 29 OFFCURVE",
"150 30 CURVE",
"151 30 LINE",
"126 -41 OFFCURVE",
"105 -93 OFFCURVE",
"90 -124 CURVE SMOOTH",
"80 -144 OFFCURVE",
"67 -156 OFFCURVE",
"50 -161 CURVE SMOOTH",
"45 -162 OFFCURVE",
"44 -163 OFFCURVE",
"47 -166 CURVE SMOOTH",
"50 -168 OFFCURVE",
"54 -168 OFFCURVE",
"60 -167 CURVE SMOOTH"
);
},
{
closed = 1;
nodes = (
"222 80 OFFCURVE",
"209 82 OFFCURVE",
"198 83 CURVE",
"225 170 OFFCURVE",
"245 245 OFFCURVE",
"258 308 CURVE SMOOTH",
"299 503 OFFCURVE",
"324 623 OFFCURVE",
"335 667 CURVE",
"374 656 LINE",
"361 577 LINE SMOOTH",
"323 352 OFFCURVE",
"281 186 OFFCURVE",
"235 77 CURVE"
);
}
);
width = 510;
}
);
note = I;
unicode = 0049;
},
{
glyphname = J;
lastChange = "2021-12-23 19:19:14 +0000";
layers = (
{
hints = (
{
horizontal = 1;
place = "{-239, 16}";
type = Stem;
},
{
horizontal = 1;
place = "{-185, 13}";
type = Stem;
},
{
horizontal = 1;
place = "{129, 21}";
type = Stem;
},
{
horizontal = 1;
place = "{640, 27}";
type = Stem;
},
{
horizontal = 1;
place = "{758, 16}";
type = Stem;
},
{
place = "{60, 51}";
type = Stem;
},
{
place = "{297, 8}";
type = Stem;
},
{
place = "{365, 13}";
type = Stem;
},
{
place = "{529, 20}";
type = Stem;
},
{
place = "{782, 8}";
type = Stem;
},
{
horizontal = 1;
place = "{652, 19}";
type = Stem;
},
{
place = "{277, 72}";
type = Stem;
},
{
horizontal = 1;
place = "{358, 44}";
type = Stem;
}
);
layerId = "64752FBD-EC7B-42BB-A7F3-340BB4BBD1AC";
paths = (
{
closed = 1;
nodes = (
"336 -239 OFFCURVE",
"446 -170 OFFCURVE",
"534 -31 CURVE SMOOTH",
"563 16 OFFCURVE",
"593 82 OFFCURVE",
"623 165 CURVE SMOOTH",
"627 177 LINE",
"684 210 OFFCURVE",
"723 251 OFFCURVE",
"743 301 CURVE SMOOTH",
"747 311 OFFCURVE",
"749 319 OFFCURVE",
"749 326 CURVE SMOOTH",
"749 341 OFFCURVE",
"744 349 OFFCURVE",
"733 349 CURVE SMOOTH",
"726 349 OFFCURVE",
"722 346 OFFCURVE",
"722 341 CURVE SMOOTH",
"722 340 OFFCURVE",
"729 336 OFFCURVE",
"729 327 CURVE SMOOTH",
"729 320 OFFCURVE",
"727 311 OFFCURVE",
"722 299 CURVE SMOOTH",
"704 256 OFFCURVE",
"674 220 OFFCURVE",
"632 192 CURVE",
"657 264 OFFCURVE",
"688 369 OFFCURVE",
"725 508 CURVE SMOOTH",
"761 643 LINE",
"766 643 LINE SMOOTH",
"813 641 OFFCURVE",
"840 640 OFFCURVE",
"849 640 CURVE SMOOTH",
"924 640 OFFCURVE",
"969 666 OFFCURVE",
"986 717 CURVE SMOOTH",
"989 726 OFFCURVE",
"990 734 OFFCURVE",
"990 743 CURVE SMOOTH",
"990 752 OFFCURVE",
"988 763 OFFCURVE",
"983 777 CURVE SMOOTH",
"978 794 OFFCURVE",
"973 803 OFFCURVE",
"966 803 CURVE SMOOTH",
"964 803 OFFCURVE",
"963 802 OFFCURVE",
"963 799 CURVE SMOOTH",
"963 795 OFFCURVE",
"982 765 OFFCURVE",
"982 742 CURVE SMOOTH",
"982 692 OFFCURVE",
"935 667 OFFCURVE",
"840 667 CURVE SMOOTH",
"824 667 OFFCURVE",
"801 668 OFFCURVE",
"770 669 CURVE",
"790 728 OFFCURVE",
"816 758 OFFCURVE",
"849 758 CURVE SMOOTH",
"862 758 OFFCURVE",
"872 753 OFFCURVE",
"881 742 CURVE SMOOTH",
"890 732 OFFCURVE",
"896 727 OFFCURVE",
"897 727 CURVE SMOOTH",
"905 727 OFFCURVE",
"909 733 OFFCURVE",
"909 745 CURVE SMOOTH",
"909 761 OFFCURVE",
"883 774 OFFCURVE",
"866 774 CURVE SMOOTH",
"825 774 OFFCURVE",
"786 745 OFFCURVE",
"751 687 CURVE SMOOTH",
"741 670 LINE",
"725 671 OFFCURVE",
"711 671 OFFCURVE",
"700 671 CURVE SMOOTH",
"649 671 OFFCURVE",
"602 665 OFFCURVE",
"560 652 CURVE",
"545 711 OFFCURVE",
"523 755 OFFCURVE",
"494 782 CURVE",
"496 776 OFFCURVE",
"497 770 OFFCURVE",
"497 764 CURVE SMOOTH",
"497 749 OFFCURVE",
"488 730 OFFCURVE",
"470 705 CURVE",
"470 698 LINE SMOOTH",
"470 672 OFFCURVE",
"474 659 OFFCURVE",
"482 659 CURVE SMOOTH",
"485 659 OFFCURVE",
"491 667 OFFCURVE",
"500 683 CURVE SMOOTH",
"510 699 OFFCURVE",
"515 710 OFFCURVE",
"515 717 CURVE",
"505 747 LINE",
"523 722 OFFCURVE",
"537 689 OFFCURVE",
"548 648 CURVE",
"471 623 OFFCURVE",
"406 580 OFFCURVE",
"351 519 CURVE SMOOTH",
"290 452 OFFCURVE",
"260 381 OFFCURVE",
"260 305 CURVE SMOOTH",
"260 248 OFFCURVE",
"278 204 OFFCURVE",
"314 173 CURVE SMOOTH",
"348 144 OFFCURVE",
"394 129 OFFCURVE",
"451 129 CURVE SMOOTH",
"461 129 OFFCURVE",
"471 129 OFFCURVE",
"482 130 CURVE",
"397 -71 OFFCURVE",
"285 -172 OFFCURVE",
"147 -172 CURVE SMOOTH",
"86 -172 OFFCURVE",
"25 -134 OFFCURVE",
"-37 -57 CURVE SMOOTH",
"-50 -39 OFFCURVE",
"-59 -25 OFFCURVE",
"-65 -16 CURVE SMOOTH",
"-68 -12 OFFCURVE",
"-72 -10 OFFCURVE",
"-78 -10 CURVE SMOOTH",
"-101 -10 OFFCURVE",
"-112 -17 OFFCURVE",
"-112 -31 CURVE SMOOTH",
"-112 -50 OFFCURVE",
"-92 -82 OFFCURVE",
"-53 -129 CURVE SMOOTH",
"-24 -163 OFFCURVE",
"15 -190 OFFCURVE",
"63 -210 CURVE SMOOTH",
"109 -229 OFFCURVE",
"156 -239 OFFCURVE",
"203 -239 CURVE SMOOTH"
);
},
{
closed = 1;
nodes = (
"119 -223 OFFCURVE",
"45 -187 OFFCURVE",
"-25 -116 CURVE SMOOTH",
"21 -162 OFFCURVE",
"83 -185 OFFCURVE",
"160 -185 CURVE SMOOTH",
"192 -185 OFFCURVE",
"220 -180 OFFCURVE",
"245 -170 CURVE SMOOTH",
"353 -127 OFFCURVE",
"439 -26 OFFCURVE",
"502 133 CURVE",
"523 136 OFFCURVE",
"543 141 OFFCURVE",
"563 148 CURVE",
"540 81 OFFCURVE",
"516 28 OFFCURVE",
"491 -12 CURVE SMOOTH",
"403 -153 OFFCURVE",
"305 -223 OFFCURVE",
"198 -223 CURVE SMOOTH"
);
},
{
closed = 1;
nodes = (
"437 150 OFFCURVE",
"395 164 OFFCURVE",
"363 191 CURVE SMOOTH",
"328 220 OFFCURVE",
"311 260 OFFCURVE",
"311 311 CURVE SMOOTH",
"311 379 OFFCURVE",
"335 445 OFFCURVE",
"382 510 CURVE SMOOTH",
"429 575 OFFCURVE",
"485 618 OFFCURVE",
"550 639 CURVE",
"560 596 OFFCURVE",
"565 549 OFFCURVE",
"565 498 CURVE SMOOTH",
"565 447 OFFCURVE",
"560 396 OFFCURVE",
"549 345 CURVE",
"550 383 OFFCURVE",
"539 402 OFFCURVE",
"517 402 CURVE SMOOTH",
"496 402 OFFCURVE",
"476 380 OFFCURVE",
"477 360 CURVE SMOOTH",
"477 355 LINE",
"482 357 OFFCURVE",
"486 358 OFFCURVE",
"491 358 CURVE SMOOTH",
"517 358 OFFCURVE",
"534 344 OFFCURVE",
"543 315 CURVE",
"529 258 OFFCURVE",
"511 203 OFFCURVE",
"490 150 CURVE",
"488 150 LINE SMOOTH"
);
},
{
closed = 1;
nodes = (
"555 273 OFFCURVE",
"578 387 OFFCURVE",
"578 494 CURVE SMOOTH",
"578 546 OFFCURVE",
"573 595 OFFCURVE",
"562 642 CURVE",
"586 649 OFFCURVE",
"613 652 OFFCURVE",
"642 652 CURVE SMOOTH",
"655 652 OFFCURVE",
"684 650 OFFCURVE",
"729 646 CURVE",
"714 615 OFFCURVE",
"696 569 OFFCURVE",
"676 508 CURVE SMOOTH",
"627 355 OFFCURVE",
"591 239 OFFCURVE",
"568 162 CURVE",
"549 156 OFFCURVE",
"529 152 OFFCURVE",
"509 150 CURVE"
);
}
);
width = 701;
}
);
note = J;
unicode = 004A;
},
{
glyphname = K;
lastChange = "2021-11-24 20:48:23 +0000";
layers = (
{
hints = (
{
horizontal = 1;
place = "{-54, 10}";
type = Stem;
},
{
horizontal = 1;
place = "{662, 40}";
type = Stem;
},
{
horizontal = 1;
place = "{781, 11}";
type = Stem;
},
{
place = "{31, 36}";
type = Stem;
},
{
place = "{281, 13}";
type = Stem;
},
{
place = "{504, 20}";
type = Stem;
},
{
place = "{599, 47}";
type = Stem;
},
{
place = "{1049, 12}";
type = Stem;
},
{
horizontal = 1;
place = "{652, 43}";
type = Stem;
},
{
horizontal = 1;
place = "{425, 44}";
type = Stem;
},
{
horizontal = 1;
place = "{-51, 13}";
type = Stem;
},
{
horizontal = 1;
place = "{412, 9}";
type = Stem;
}
);
layerId = "64752FBD-EC7B-42BB-A7F3-340BB4BBD1AC";
paths = (
{
closed = 1;
nodes = (
"945 -103 OFFCURVE",
"947 -101 OFFCURVE",
"947 -96 CURVE SMOOTH",
"947 -89 OFFCURVE",
"942 -74 OFFCURVE",
"942 -67 CURVE SMOOTH",
"942 -56 OFFCURVE",
"949 -51 OFFCURVE",
"963 -51 CURVE SMOOTH",
"976 -51 LINE SMOOTH",
"1033 -51 OFFCURVE",
"1061 -27 OFFCURVE",
"1061 22 CURVE SMOOTH",
"1061 45 OFFCURVE",
"1058 57 OFFCURVE",
"1051 57 CURVE SMOOTH",
"1049 57 OFFCURVE",
"1048 55 OFFCURVE",
"1048 50 CURVE SMOOTH",
"1048 49 OFFCURVE",
"1048 47 OFFCURVE",
"1049 44 CURVE",
"1049 37 LINE SMOOTH",
"1049 -13 OFFCURVE",
"1022 -38 OFFCURVE",
"967 -38 CURVE SMOOTH",
"907 -38 OFFCURVE",
"847 -8 OFFCURVE",
"786 51 CURVE SMOOTH",
"730 105 OFFCURVE",
"689 167 OFFCURVE",
"664 238 CURVE",
"719 277 OFFCURVE",
"785 346 OFFCURVE",
"861 445 CURVE SMOOTH",
"1038 673 LINE",
"1101 745 OFFCURVE",
"1156 781 OFFCURVE",
"1201 781 CURVE SMOOTH",
"1241 781 OFFCURVE",
"1269 757 OFFCURVE",
"1284 710 CURVE SMOOTH",
"1287 699 OFFCURVE",
"1291 694 OFFCURVE",
"1296 694 CURVE SMOOTH",
"1305 694 OFFCURVE",
"1310 702 OFFCURVE",
"1310 719 CURVE SMOOTH",
"1310 723 OFFCURVE",
"1307 730 OFFCURVE",
"1302 741 CURVE SMOOTH",
"1285 775 OFFCURVE",
"1254 792 OFFCURVE",
"1210 792 CURVE SMOOTH",
"1134 792 OFFCURVE",
"1046 734 OFFCURVE",
"947 619 CURVE",
"739 351 LINE",
"708 316 OFFCURVE",
"680 287 OFFCURVE",
"656 266 CURVE",
"649 291 OFFCURVE",
"646 314 OFFCURVE",
"646 335 CURVE SMOOTH",
"646 366 OFFCURVE",
"653 392 OFFCURVE",
"668 412 CURVE",
"667 418 OFFCURVE",
"664 421 OFFCURVE",
"660 421 CURVE SMOOTH",
"653 421 OFFCURVE",
"642 413 OFFCURVE",
"629 396 CURVE SMOOTH",
"617 382 OFFCURVE",
"609 370 OFFCURVE",
"606 361 CURVE SMOOTH",
"601 348 OFFCURVE",
"599 332 OFFCURVE",
"599 313 CURVE SMOOTH",
"599 287 OFFCURVE",
"603 259 OFFCURVE",
"611 230 CURVE",
"579 208 OFFCURVE",
"552 197 OFFCURVE",
"529 198 CURVE SMOOTH",
"528 198 LINE",
"555 255 OFFCURVE",
"582 325 OFFCURVE",
"609 410 CURVE SMOOTH",
"667 605 LINE SMOOTH",
"681 653 OFFCURVE",
"695 695 OFFCURVE",
"710 732 CURVE SMOOTH",
"714 741 OFFCURVE",
"716 747 OFFCURVE",
"716 752 CURVE SMOOTH",
"716 761 OFFCURVE",
"711 766 OFFCURVE",
"701 766 CURVE SMOOTH",
"682 766 OFFCURVE",
"667 757 OFFCURVE",
"656 739 CURVE SMOOTH",
"649 728 OFFCURVE",
"641 705 OFFCURVE",
"632 669 CURVE",
"593 681 OFFCURVE",
"550 690 OFFCURVE",
"505 695 CURVE",
"492 739 OFFCURVE",
"474 772 OFFCURVE",
"449 793 CURVE SMOOTH",
"444 798 OFFCURVE",
"439 800 OFFCURVE",
"434 800 CURVE SMOOTH",
"428 800 OFFCURVE",
"425 797 OFFCURVE",
"425 792 CURVE SMOOTH",
"425 789 OFFCURVE",
"428 784 OFFCURVE",
"433 778 CURVE SMOOTH",
"454 757 OFFCURVE",
"470 730 OFFCURVE",
"481 698 CURVE",
"449 701 OFFCURVE",
"416 702 OFFCURVE",
"382 702 CURVE SMOOTH",
"148 702 OFFCURVE",
"31 658 OFFCURVE",
"31 570 CURVE SMOOTH",
"31 543 OFFCURVE",
"49 514 OFFCURVE",
"84 483 CURVE SMOOTH",
"119 452 OFFCURVE",
"149 437 OFFCURVE",
"174 437 CURVE",
"181 438 OFFCURVE",
"184 439 OFFCURVE",
"184 441 CURVE",
"182 443 LINE",
"105 473 OFFCURVE",
"67 509 OFFCURVE",
"67 552 CURVE SMOOTH",
"67 625 OFFCURVE",
"168 662 OFFCURVE",
"369 662 CURVE SMOOTH",
"413 662 OFFCURVE",
"454 660 OFFCURVE",
"493 655 CURVE",
"500 621 OFFCURVE",
"504 580 OFFCURVE",
"504 533 CURVE SMOOTH",
"504 502 OFFCURVE",
"502 468 OFFCURVE",
"497 433 CURVE",
"494 457 OFFCURVE",
"483 469 OFFCURVE",
"466 469 CURVE SMOOTH",
"446 469 OFFCURVE",
"426 448 OFFCURVE",
"427 427 CURVE SMOOTH",
"427 423 LINE",
"431 424 OFFCURVE",
"435 425 OFFCURVE",
"440 425 CURVE SMOOTH",
"465 425 OFFCURVE",
"481 411 OFFCURVE",
"490 384 CURVE",
"483 336 OFFCURVE",
"472 290 OFFCURVE",
"458 246 CURVE",
"455 248 OFFCURVE",
"453 249 OFFCURVE",
"451 249 CURVE SMOOTH",
"438 249 OFFCURVE",
"432 240 OFFCURVE",
"432 222 CURVE SMOOTH",
"432 216 OFFCURVE",
"436 210 OFFCURVE",
"443 203 CURVE",
"404 99 OFFCURVE",
"355 28 OFFCURVE",
"294 -9 CURVE",
"314 14 LINE",
"315 18 OFFCURVE",
"316 22 OFFCURVE",
"316 27 CURVE SMOOTH",
"316 32 OFFCURVE",
"312 49 OFFCURVE",
"305 79 CURVE",
"303 81 LINE",
"296 80 OFFCURVE",
"288 73 OFFCURVE",
"278 61 CURVE SMOOTH",
"269 50 OFFCURVE",
"263 41 OFFCURVE",
"261 34 CURVE",
"264 27 OFFCURVE",
"281 3 OFFCURVE",
"281 -9 CURVE SMOOTH",
"281 -16 OFFCURVE",
"278 -22 OFFCURVE",
"272 -29 CURVE",
"343 0 OFFCURVE",
"403 75 OFFCURVE",
"452 196 CURVE",
"461 190 OFFCURVE",
"474 186 OFFCURVE",
"491 184 CURVE",
"441 79 OFFCURVE",
"382 10 OFFCURVE",
"314 -22 CURVE SMOOTH",
"284 -37 OFFCURVE",
"252 -44 OFFCURVE",
"218 -44 CURVE SMOOTH",
"131 -44 OFFCURVE",
"67 2 OFFCURVE",
"26 93 CURVE",
"37 77 OFFCURVE",
"53 61 OFFCURVE",
"76 45 CURVE SMOOTH",
"99 30 OFFCURVE",
"120 22 OFFCURVE",
"137 22 CURVE SMOOTH",
"141 22 OFFCURVE",
"143 23 OFFCURVE",
"143 24 CURVE SMOOTH",
"143 25 OFFCURVE",
"140 28 OFFCURVE",
"133 31 CURVE",
"94 53 OFFCURVE",
"69 70 OFFCURVE",
"59 81 CURVE SMOOTH",
"40 102 OFFCURVE",
"24 137 OFFCURVE",
"11 186 CURVE SMOOTH",
"10 191 OFFCURVE",
"8 193 OFFCURVE",
"3 193 CURVE SMOOTH",
"-12 193 OFFCURVE",
"-20 182 OFFCURVE",
"-20 160 CURVE SMOOTH",
"-20 141 OFFCURVE",
"-14 117 OFFCURVE",
"-3 86 CURVE SMOOTH",
"12 43 OFFCURVE",
"41 9 OFFCURVE",
"86 -18 CURVE SMOOTH",
"127 -42 OFFCURVE",
"172 -54 OFFCURVE",
"220 -54 CURVE SMOOTH",
"272 -54 OFFCURVE",
"319 -41 OFFCURVE",
"360 -15 CURVE SMOOTH",
"419 22 OFFCURVE",
"473 88 OFFCURVE",
"521 183 CURVE",
"552 184 OFFCURVE",
"584 192 OFFCURVE",
"617 209 CURVE",
"666 62 OFFCURVE",
"770 -41 OFFCURVE",
"929 -100 CURVE SMOOTH",
"934 -102 OFFCURVE",
"937 -103 OFFCURVE",
"940 -103 CURVE SMOOTH"
);
},
{
closed = 1;
nodes = (
"484 217 OFFCURVE",
"473 228 OFFCURVE",
"467 235 CURVE",
"482 278 OFFCURVE",
"495 322 OFFCURVE",
"504 366 CURVE SMOOTH",
"517 429 OFFCURVE",
"524 490 OFFCURVE",
"524 548 CURVE SMOOTH",
"524 585 OFFCURVE",
"521 619 OFFCURVE",
"515 652 CURVE",
"553 647 OFFCURVE",
"589 639 OFFCURVE",
"622 629 CURVE",
"602 539 LINE SMOOTH",
"569 394 OFFCURVE",
"535 283 OFFCURVE",
"500 204 CURVE"
);
}
);
width = 950;
}
);
note = K;
unicode = 004B;
},
{
glyphname = L;
lastChange = "2021-11-24 20:48:23 +0000";
layers = (
{
hints = (
{
horizontal = 1;
place = "{-41, 15}";
type = Stem;
},
{
horizontal = 1;
place = "{267, 22}";
type = Stem;
},
{
horizontal = 1;
place = "{705, 16}";
type = Stem;
},
{
place = "{22, 17}";
type = Stem;
},
{
place = "{368, 15}";
type = Stem;
},
{
place = "{1083, 14}";
type = Stem;
},
{
place = "{1029, 28}";
type = Stem;
},
{
horizontal = 1;
place = "{-94, 26}";
type = Stem;
},
{
horizontal = 1;
place = "{545, 39}";
type = Stem;
},
{
horizontal = 1;
place = "{262, 44}";
type = Stem;
}
);
layerId = "64752FBD-EC7B-42BB-A7F3-340BB4BBD1AC";
paths = (
{
closed = 1;
nodes = (
"570 -137 OFFCURVE",
"571 -134 OFFCURVE",
"572 -129 CURVE SMOOTH",
"578 -74 OFFCURVE",
"592 -10 OFFCURVE",
"614 63 CURVE",
"706 -3 OFFCURVE",
"770 -45 OFFCURVE",
"806 -63 CURVE SMOOTH",
"847 -84 OFFCURVE",
"889 -94 OFFCURVE",
"932 -94 CURVE SMOOTH",
"979 -94 OFFCURVE",
"1018 -83 OFFCURVE",
"1049 -60 CURVE SMOOTH",
"1081 -38 OFFCURVE",
"1097 -9 OFFCURVE",
"1097 26 CURVE SMOOTH",
"1097 55 OFFCURVE",
"1093 70 OFFCURVE",
"1084 70 CURVE SMOOTH",
"1081 70 OFFCURVE",
"1079 67 OFFCURVE",
"1079 61 CURVE SMOOTH",
"1079 54 OFFCURVE",
"1083 39 OFFCURVE",
"1083 32 CURVE SMOOTH",
"1083 2 OFFCURVE",
"1069 -22 OFFCURVE",
"1040 -40 CURVE SMOOTH",
"1012 -59 OFFCURVE",
"979 -68 OFFCURVE",
"941 -68 CURVE SMOOTH",
"912 -68 OFFCURVE",
"885 -62 OFFCURVE",
"862 -51 CURVE SMOOTH",
"805 -23 OFFCURVE",
"727 30 OFFCURVE",
"628 109 CURVE",
"633 124 OFFCURVE",
"638 140 OFFCURVE",
"644 156 CURVE",
"645 155 LINE",
"676 180 OFFCURVE",
"693 194 OFFCURVE",
"692 197 CURVE SMOOTH",
"691 204 OFFCURVE",
"670 209 OFFCURVE",
"664 212 CURVE",
"686 268 LINE",
"808 278 OFFCURVE",
"911 332 OFFCURVE",
"994 430 CURVE SMOOTH",
"1036 480 OFFCURVE",
"1057 532 OFFCURVE",
"1057 586 CURVE SMOOTH",
"1057 663 OFFCURVE",
"1009 721 OFFCURVE",
"940 721 CURVE SMOOTH",
"902 721 OFFCURVE",
"863 705 OFFCURVE",
"822 672 CURVE SMOOTH",
"751 616 OFFCURVE",
"673 488 OFFCURVE",
"590 289 CURVE",
"544 294 OFFCURVE",
"503 310 OFFCURVE",
"468 335 CURVE SMOOTH",
"411 376 OFFCURVE",
"383 426 OFFCURVE",
"383 483 CURVE SMOOTH",
"383 516 OFFCURVE",
"401 536 OFFCURVE",
"436 543 CURVE SMOOTH",
"441 544 OFFCURVE",
"445 545 OFFCURVE",
"450 545 CURVE SMOOTH",
"465 545 OFFCURVE",
"475 540 OFFCURVE",
"480 531 CURVE",
"481 517 OFFCURVE",
"488 510 OFFCURVE",
"501 510 CURVE SMOOTH",
"511 510 OFFCURVE",
"516 515 OFFCURVE",
"516 526 CURVE SMOOTH",
"516 527 OFFCURVE",
"516 528 OFFCURVE",
"516 529 CURVE SMOOTH",
"512 562 OFFCURVE",
"483 584 OFFCURVE",
"449 584 CURVE SMOOTH",
"400 584 OFFCURVE",
"368 541 OFFCURVE",
"368 484 CURVE SMOOTH",
"368 421 OFFCURVE",
"399 368 OFFCURVE",
"463 324 CURVE SMOOTH",
"500 299 OFFCURVE",
"540 282 OFFCURVE",
"584 273 CURVE",
"570 240 LINE SMOOTH",
"558 211 OFFCURVE",
"550 190 OFFCURVE",
"543 176 CURVE",
"478 225 OFFCURVE",
"418 261 OFFCURVE",
"365 283 CURVE SMOOTH",
"328 298 OFFCURVE",
"290 306 OFFCURVE",
"250 306 CURVE SMOOTH",
"201 306 OFFCURVE",
"157 294 OFFCURVE",
"119 271 CURVE SMOOTH",
"78 246 OFFCURVE",
"50 212 OFFCURVE",
"34 168 CURVE SMOOTH",
"26 144 OFFCURVE",
"22 121 OFFCURVE",
"22 100 CURVE SMOOTH",
"22 55 OFFCURVE",
"38 17 OFFCURVE",
"69 -15 CURVE SMOOTH",
"96 -43 OFFCURVE",
"128 -61 OFFCURVE",
"163 -68 CURVE SMOOTH",
"168 -69 OFFCURVE",
"173 -69 OFFCURVE",
"176 -69 CURVE SMOOTH",
"185 -69 OFFCURVE",
"190 -67 OFFCURVE",
"190 -61 CURVE SMOOTH",
"190 -58 OFFCURVE",
"186 -55 OFFCURVE",
"178 -54 CURVE SMOOTH",
"148 -48 OFFCURVE",
"118 -29 OFFCURVE",
"88 4 CURVE SMOOTH",
"55 40 OFFCURVE",
"39 78 OFFCURVE",
"39 118 CURVE SMOOTH",
"39 132 OFFCURVE",
"41 146 OFFCURVE",
"46 160 CURVE SMOOTH",
"70 228 OFFCURVE",
"128 262 OFFCURVE",
"221 262 CURVE SMOOTH",
"266 262 OFFCURVE",
"308 252 OFFCURVE",
"348 233 CURVE SMOOTH",
"399 208 OFFCURVE",
"457 173 OFFCURVE",
"522 129 CURVE",
"470 26 OFFCURVE",
"405 -26 OFFCURVE",
"327 -26 CURVE SMOOTH",
"303 -26 OFFCURVE",
"277 -22 OFFCURVE",
"250 -13 CURVE SMOOTH",
"246 -12 OFFCURVE",
"242 -11 OFFCURVE",
"239 -11 CURVE SMOOTH",
"235 -11 OFFCURVE",
"233 -12 OFFCURVE",
"233 -14 CURVE SMOOTH",
"233 -19 OFFCURVE",
"239 -23 OFFCURVE",
"250 -27 CURVE SMOOTH",
"281 -36 OFFCURVE",
"309 -41 OFFCURVE",
"336 -41 CURVE SMOOTH",
"420 -41 OFFCURVE",
"492 9 OFFCURVE",
"551 108 CURVE",
"566 98 OFFCURVE",
"583 86 OFFCURVE",
"603 71 CURVE",
"587 13 OFFCURVE",
"575 -41 OFFCURVE",
"568 -92 CURVE SMOOTH",
"565 -112 OFFCURVE",
"563 -125 OFFCURVE",
"563 -130 CURVE SMOOTH",
"564 -135 OFFCURVE",
"565 -137 OFFCURVE",
"567 -137 CURVE SMOOTH"
);
},
{
closed = 1;
nodes = (
"600 132 OFFCURVE",
"586 143 OFFCURVE",
"575 151 CURVE",
"590 182 OFFCURVE",
"608 220 OFFCURVE",
"627 267 CURVE",
"641 266 OFFCURVE",
"655 266 OFFCURVE",
"670 267 CURVE",
"665 254 OFFCURVE",
"660 241 OFFCURVE",
"655 230 CURVE",
"654 230 LINE SMOOTH",
"636 228 OFFCURVE",
"621 199 OFFCURVE",
"621 188 CURVE",
"622 182 OFFCURVE",
"624 173 OFFCURVE",
"632 165 CURVE",
"617 118 LINE"
);
},
{
closed = 1;
nodes = (
"680 396 OFFCURVE",
"709 465 OFFCURVE",
"723 494 CURVE SMOOTH",
"795 641 OFFCURVE",
"876 705 OFFCURVE",
"944 705 CURVE SMOOTH",
"995 705 OFFCURVE",
"1029 663 OFFCURVE",
"1029 603 CURVE SMOOTH",
"1029 555 OFFCURVE",
"1010 507 OFFCURVE",
"971 459 CURVE SMOOTH",
"901 372 OFFCURVE",
"810 317 OFFCURVE",
"697 294 CURVE",
"778 487 OFFCURVE",
"843 602 OFFCURVE",
"890 639 CURVE SMOOTH",
"893 641 OFFCURVE",
"894 643 OFFCURVE",
"894 646 CURVE SMOOTH",
"894 651 OFFCURVE",
"892 653 OFFCURVE",
"887 653 CURVE SMOOTH",
"866 652 OFFCURVE",
"827 597 OFFCURVE",
"772 490 CURVE SMOOTH",
"737 421 OFFCURVE",
"707 354 OFFCURVE",
"680 291 CURVE",
"665 289 OFFCURVE",
"650 288 OFFCURVE",
"635 287 CURVE"
);
}
);
width = 964;
}
);
note = L;
unicode = 004C;
},
{
color = 11;
glyphname = Lslash;
lastChange = "2021-12-23 19:08:07 +0000";
layers = (
{
layerId = "64752FBD-EC7B-42BB-A7F3-340BB4BBD1AC";
paths = (
{
closed = 1;
nodes = (
"570 -137 OFFCURVE",
"571 -134 OFFCURVE",
"572 -129 CURVE SMOOTH",
"578 -74 OFFCURVE",
"592 -10 OFFCURVE",
"614 63 CURVE",
"706 -3 OFFCURVE",
"770 -45 OFFCURVE",
"806 -63 CURVE SMOOTH",
"847 -84 OFFCURVE",
"889 -94 OFFCURVE",
"932 -94 CURVE SMOOTH",
"979 -94 OFFCURVE",
"1018 -83 OFFCURVE",
"1049 -60 CURVE SMOOTH",
"1081 -38 OFFCURVE",
"1097 -9 OFFCURVE",
"1097 26 CURVE SMOOTH",
"1097 55 OFFCURVE",
"1093 70 OFFCURVE",
"1084 70 CURVE SMOOTH",
"1081 70 OFFCURVE",
"1079 67 OFFCURVE",
"1079 61 CURVE SMOOTH",
"1079 54 OFFCURVE",
"1083 39 OFFCURVE",
"1083 32 CURVE SMOOTH",
"1083 2 OFFCURVE",
"1069 -22 OFFCURVE",
"1040 -40 CURVE SMOOTH",
"1012 -59 OFFCURVE",
"979 -68 OFFCURVE",
"941 -68 CURVE SMOOTH",
"912 -68 OFFCURVE",
"885 -62 OFFCURVE",
"862 -51 CURVE SMOOTH",
"805 -23 OFFCURVE",
"727 30 OFFCURVE",
"628 109 CURVE",
"631 119 OFFCURVE",
"653 179 OFFCURVE",
"669 223 CURVE",
"706 228 OFFCURVE",
"741 232 OFFCURVE",
"772 234 CURVE SMOOTH",
"776 234 OFFCURVE",
"779 236 OFFCURVE",
"779 238 CURVE SMOOTH",
"779 238 OFFCURVE",
"779 239 OFFCURVE",
"779 239 CURVE",
"779 241 OFFCURVE",
"778 242 OFFCURVE",
"775 243 CURVE",
"751 246 OFFCURVE",
"719 247 OFFCURVE",
"678 246 CURVE",
"681 256 OFFCURVE",
"684 264 OFFCURVE",
"686 268 CURVE",
"808 278 OFFCURVE",
"911 332 OFFCURVE",
"994 430 CURVE SMOOTH",
"1036 480 OFFCURVE",
"1057 532 OFFCURVE",
"1057 586 CURVE SMOOTH",
"1057 663 OFFCURVE",
"1009 721 OFFCURVE",
"940 721 CURVE SMOOTH",
"902 721 OFFCURVE",
"863 705 OFFCURVE",
"822 672 CURVE SMOOTH",
"751 616 OFFCURVE",
"673 488 OFFCURVE",
"590 289 CURVE",
"544 294 OFFCURVE",
"503 310 OFFCURVE",
"468 335 CURVE SMOOTH",
"411 376 OFFCURVE",
"383 426 OFFCURVE",
"383 483 CURVE SMOOTH",
"383 516 OFFCURVE",
"401 536 OFFCURVE",
"436 543 CURVE SMOOTH",
"441 544 OFFCURVE",
"445 545 OFFCURVE",
"450 545 CURVE SMOOTH",
"465 545 OFFCURVE",
"475 540 OFFCURVE",
"480 531 CURVE",
"481 517 OFFCURVE",
"488 510 OFFCURVE",
"501 510 CURVE SMOOTH",
"511 510 OFFCURVE",
"516 515 OFFCURVE",
"516 526 CURVE SMOOTH",
"516 527 OFFCURVE",
"516 528 OFFCURVE",
"516 529 CURVE SMOOTH",
"512 562 OFFCURVE",
"483 584 OFFCURVE",
"449 584 CURVE SMOOTH",
"400 584 OFFCURVE",
"368 541 OFFCURVE",
"368 484 CURVE SMOOTH",
"368 421 OFFCURVE",
"399 368 OFFCURVE",
"463 324 CURVE SMOOTH",
"500 299 OFFCURVE",
"540 282 OFFCURVE",
"584 273 CURVE",
"570 240 LINE",
"570 239 OFFCURVE",
"569 238 OFFCURVE",
"569 237 CURVE",
"544 234 OFFCURVE",
"518 231 OFFCURVE",
"492 227 CURVE",
"489 224 LINE",
"492 217 OFFCURVE",
"510 205 OFFCURVE",
"520 204 CURVE",
"557 209 LINE",
"552 195 OFFCURVE",
"547 184 OFFCURVE",
"543 176 CURVE",
"478 225 OFFCURVE",
"418 261 OFFCURVE",
"365 283 CURVE SMOOTH",
"328 298 OFFCURVE",
"290 306 OFFCURVE",
"250 306 CURVE SMOOTH",
"201 306 OFFCURVE",
"157 294 OFFCURVE",
"119 271 CURVE SMOOTH",
"78 246 OFFCURVE",
"50 212 OFFCURVE",
"34 168 CURVE SMOOTH",
"26 144 OFFCURVE",
"22 121 OFFCURVE",
"22 100 CURVE SMOOTH",
"22 55 OFFCURVE",
"38 17 OFFCURVE",
"69 -15 CURVE SMOOTH",
"96 -43 OFFCURVE",
"128 -61 OFFCURVE",
"163 -68 CURVE SMOOTH",
"168 -69 OFFCURVE",
"173 -69 OFFCURVE",
"176 -69 CURVE SMOOTH",
"185 -69 OFFCURVE",
"190 -67 OFFCURVE",
"190 -61 CURVE SMOOTH",
"190 -58 OFFCURVE",
"186 -55 OFFCURVE",
"178 -54 CURVE SMOOTH",
"148 -48 OFFCURVE",
"118 -29 OFFCURVE",
"88 4 CURVE SMOOTH",
"55 40 OFFCURVE",
"39 78 OFFCURVE",
"39 118 CURVE SMOOTH",
"39 132 OFFCURVE",
"41 146 OFFCURVE",
"46 160 CURVE SMOOTH",
"70 228 OFFCURVE",
"128 262 OFFCURVE",
"221 262 CURVE SMOOTH",
"266 262 OFFCURVE",
"308 252 OFFCURVE",
"348 233 CURVE SMOOTH",
"399 208 OFFCURVE",
"457 173 OFFCURVE",
"522 129 CURVE",
"470 26 OFFCURVE",
"405 -26 OFFCURVE",
"327 -26 CURVE SMOOTH",
"303 -26 OFFCURVE",
"277 -22 OFFCURVE",
"250 -13 CURVE SMOOTH",
"246 -12 OFFCURVE",
"242 -11 OFFCURVE",
"239 -11 CURVE SMOOTH",
"235 -11 OFFCURVE",
"233 -12 OFFCURVE",
"233 -14 CURVE SMOOTH",
"233 -19 OFFCURVE",
"239 -23 OFFCURVE",
"250 -27 CURVE SMOOTH",
"281 -36 OFFCURVE",
"309 -41 OFFCURVE",
"336 -41 CURVE SMOOTH",
"420 -41 OFFCURVE",
"492 9 OFFCURVE",
"551 108 CURVE",
"566 98 OFFCURVE",
"583 86 OFFCURVE",
"603 71 CURVE",
"587 13 OFFCURVE",
"575 -41 OFFCURVE",
"568 -92 CURVE SMOOTH",
"565 -112 OFFCURVE",
"563 -125 OFFCURVE",
"563 -130 CURVE SMOOTH",
"564 -135 OFFCURVE",
"565 -137 OFFCURVE",
"567 -137 CURVE SMOOTH"
);
},
{
closed = 1;
nodes = (
"521 204 OFFCURVE",
"521 204 OFFCURVE",
"522 204 CURVE SMOOTH",
"520 204 LINE SMOOTH"
);
},
{
closed = 1;
nodes = (
"600 132 OFFCURVE",
"586 143 OFFCURVE",
"575 151 CURVE",
"584 170 OFFCURVE",
"594 191 OFFCURVE",
"605 215 CURVE",
"652 221 LINE",
"646 204 OFFCURVE",
"640 189 OFFCURVE",
"636 176 CURVE SMOOTH",
"617 118 LINE"
);
},
{
closed = 1;
nodes = (
"620 250 OFFCURVE",
"624 258 OFFCURVE",
"627 267 CURVE",
"641 266 OFFCURVE",
"655 266 OFFCURVE",
"670 267 CURVE",
"661 245 LINE",
"650 245 OFFCURVE",
"638 244 OFFCURVE",
"626 243 CURVE SMOOTH",
"623 243 OFFCURVE",
"620 242 OFFCURVE",
"617 242 CURVE"
);
},
{
closed = 1;
nodes = (
"680 396 OFFCURVE",
"709 465 OFFCURVE",
"723 494 CURVE SMOOTH",
"795 641 OFFCURVE",
"876 705 OFFCURVE",
"944 705 CURVE SMOOTH",
"995 705 OFFCURVE",
"1029 663 OFFCURVE",
"1029 603 CURVE SMOOTH",
"1029 555 OFFCURVE",
"1010 507 OFFCURVE",
"971 459 CURVE SMOOTH",
"901 372 OFFCURVE",
"810 317 OFFCURVE",
"697 294 CURVE",
"778 487 OFFCURVE",
"843 602 OFFCURVE",
"890 639 CURVE SMOOTH",
"893 641 OFFCURVE",
"894 643 OFFCURVE",
"894 646 CURVE SMOOTH",
"894 651 OFFCURVE",
"892 653 OFFCURVE",
"887 653 CURVE SMOOTH",
"866 652 OFFCURVE",
"827 597 OFFCURVE",
"772 490 CURVE SMOOTH",
"737 421 OFFCURVE",
"707 354 OFFCURVE",
"680 291 CURVE",
"665 289 OFFCURVE",
"650 288 OFFCURVE",
"635 287 CURVE"
);
}
);
width = 964;
}
);
unicode = 0141;
},
{
glyphname = M;
lastChange = "2021-11-24 20:48:23 +0000";
layers = (
{
hints = (
{
horizontal = 1;
place = "{-86, 15}";
type = Stem;
},
{
horizontal = 1;
place = "{-28, 13}";
type = Stem;
},
{
horizontal = 1;
place = "{273, -20}";
target = down;
type = TopGhost;
},
{
horizontal = 1;
place = "{374, 12}";
type = Stem;
},
{
horizontal = 1;
place = "{588, 13}";
type = Stem;
},
{
horizontal = 1;
place = "{660, 34}";
type = Stem;
},
{
horizontal = 1;
place = "{752, 25}";
type = Stem;
},
{
place = "{9, 48}";
type = Stem;
},
{
place = "{258, 20}";
type = Stem;
},
{
place = "{373, 27}";
type = Stem;
},
{
place = "{582, 10}";
type = Stem;
},
{
place = "{627, 24}";
type = Stem;
},
{
place = "{820, 26}";
type = Stem;
},
{
place = "{885, 59}";
type = Stem;
},
{
place = "{1057, 37}";
type = Stem;
},
{
place = "{1143, 49}";
type = Stem;
},
{
horizontal = 1;
place = "{688, 19}";
type = Stem;
},
{
horizontal = 1;
place = "{735, 7}";
type = Stem;
},
{
place = "{676, 88}";
type = Stem;
},
{
horizontal = 1;
place = "{-23, 23}";
type = Stem;
},
{
horizontal = 1;
place = "{338, 35}";
type = Stem;
}
);
layerId = "64752FBD-EC7B-42BB-A7F3-340BB4BBD1AC";
paths = (
{
closed = 1;
nodes = (
"225 -86 OFFCURVE",
"264 -79 OFFCURVE",
"305 -66 CURVE SMOOTH",
"394 -37 OFFCURVE",
"478 22 OFFCURVE",
"558 112 CURVE SMOOTH",
"605 165 OFFCURVE",
"666 251 OFFCURVE",
"741 369 CURVE SMOOTH",
"787 443 LINE",
"846 334 OFFCURVE",
"878 241 OFFCURVE",
"884 165 CURVE",
"841 92 OFFCURVE",
"820 40 OFFCURVE",
"820 8 CURVE SMOOTH",
"820 -13 OFFCURVE",
"831 -23 OFFCURVE",
"853 -23 CURVE SMOOTH",
"881 -23 OFFCURVE",
"903 -10 OFFCURVE",
"920 15 CURVE SMOOTH",
"933 35 OFFCURVE",
"941 60 OFFCURVE",
"944 91 CURVE SMOOTH",
"945 103 OFFCURVE",
"945 115 OFFCURVE",
"945 128 CURVE SMOOTH",
"945 158 OFFCURVE",
"942 189 OFFCURVE",
"936 221 CURVE",
"1014 345 OFFCURVE",
"1106 462 OFFCURVE",
"1211 571 CURVE SMOOTH",
"1328 692 OFFCURVE",
"1415 752 OFFCURVE",
"1473 752 CURVE SMOOTH",
"1495 752 OFFCURVE",
"1506 755 OFFCURVE",
"1506 762 CURVE SMOOTH",
"1506 772 OFFCURVE",
"1494 777 OFFCURVE",
"1472 777 CURVE SMOOTH",
"1420 777 OFFCURVE",
"1335 717 OFFCURVE",
"1218 596 CURVE SMOOTH",
"1112 487 OFFCURVE",
"1017 368 OFFCURVE",
"932 240 CURVE",
"917 304 OFFCURVE",
"880 389 OFFCURVE",
"821 495 CURVE",
"847 535 OFFCURVE",
"871 568 OFFCURVE",
"892 594 CURVE",
"918 590 OFFCURVE",
"942 588 OFFCURVE",
"963 588 CURVE SMOOTH",
"1022 588 OFFCURVE",
"1061 603 OFFCURVE",
"1081 633 CURVE",
"1090 643 OFFCURVE",
"1094 654 OFFCURVE",
"1094 666 CURVE SMOOTH",
"1094 678 OFFCURVE",
"1089 688 OFFCURVE",
"1079 695 CURVE SMOOTH",
"1076 698 OFFCURVE",
"1072 701 OFFCURVE",
"1068 702 CURVE SMOOTH",
"1060 705 OFFCURVE",
"1051 707 OFFCURVE",
"1041 707 CURVE SMOOTH",
"997 707 OFFCURVE",
"947 674 OFFCURVE",
"890 608 CURVE",
"859 614 OFFCURVE",
"817 625 OFFCURVE",
"764 640 CURVE",
"764 681 OFFCURVE",
"757 712 OFFCURVE",
"743 735 CURVE",
"744 740 OFFCURVE",
"738 742 OFFCURVE",
"734 742 CURVE SMOOTH",
"731 742 OFFCURVE",
"728 740 OFFCURVE",
"726 737 CURVE",
"691 727 OFFCURVE",
"673 716 OFFCURVE",
"672 704 CURVE SMOOTH",
"671 693 OFFCURVE",
"673 680 OFFCURVE",
"676 666 CURVE",
"606 685 OFFCURVE",
"549 694 OFFCURVE",
"506 694 CURVE SMOOTH",
"400 694 OFFCURVE",
"326 660 OFFCURVE",
"283 593 CURVE SMOOTH",
"266 567 OFFCURVE",
"258 539 OFFCURVE",
"258 508 CURVE SMOOTH",
"258 469 OFFCURVE",
"272 437 OFFCURVE",
"301 412 CURVE SMOOTH",
"330 387 OFFCURVE",
"368 374 OFFCURVE",
"414 374 CURVE SMOOTH",
"455 374 OFFCURVE",
"493 387 OFFCURVE",
"529 412 CURVE SMOOTH",
"571 441 OFFCURVE",
"593 477 OFFCURVE",
"593 520 CURVE SMOOTH",
"593 543 OFFCURVE",
"582 563 OFFCURVE",
"562 579 CURVE SMOOTH",
"541 594 OFFCURVE",
"517 602 OFFCURVE",
"488 602 CURVE SMOOTH",
"437 602 OFFCURVE",
"400 579 OFFCURVE",
"377 532 CURVE SMOOTH",
"375 527 OFFCURVE",
"374 523 OFFCURVE",
"373 518 CURVE SMOOTH",
"373 517 OFFCURVE",
"378 501 OFFCURVE",
"389 468 CURVE",
"413 501 LINE",
"405 517 OFFCURVE",
"400 530 OFFCURVE",
"400 542 CURVE SMOOTH",
"400 574 OFFCURVE",
"430 590 OFFCURVE",
"487 590 CURVE SMOOTH",
"512 590 OFFCURVE",
"534 583 OFFCURVE",
"553 570 CURVE SMOOTH",
"572 556 OFFCURVE",
"582 538 OFFCURVE",
"582 517 CURVE SMOOTH",
"582 478 OFFCURVE",
"561 446 OFFCURVE",
"522 420 CURVE SMOOTH",
"488 397 OFFCURVE",
"452 386 OFFCURVE",
"415 386 CURVE SMOOTH",
"376 386 OFFCURVE",
"343 395 OFFCURVE",
"318 414 CURVE SMOOTH",
"291 433 OFFCURVE",
"278 459 OFFCURVE",
"278 491 CURVE SMOOTH",
"278 518 OFFCURVE",
"285 542 OFFCURVE",
"302 566 CURVE SMOOTH",
"347 629 OFFCURVE",
"422 660 OFFCURVE",
"528 660 CURVE SMOOTH",
"571 660 OFFCURVE",
"623 653 OFFCURVE",
"684 640 CURVE",
"693 616 OFFCURVE",
"709 582 OFFCURVE",
"734 538 CURVE",
"719 471 OFFCURVE",
"690 399 OFFCURVE",
"649 323 CURVE",
"650 328 OFFCURVE",
"651 334 OFFCURVE",
"651 339 CURVE SMOOTH",
"653 362 OFFCURVE",
"644 373 OFFCURVE",
"625 373 CURVE SMOOTH",
"601 373 OFFCURVE",
"586 361 OFFCURVE",
"580 338 CURVE",
"608 339 OFFCURVE",
"627 315 OFFCURVE",
"627 286 CURVE",
"531 126 OFFCURVE",
"431 31 OFFCURVE",
"328 0 CURVE",
"355 18 LINE",
"364 45 OFFCURVE",
"368 66 OFFCURVE",
"369 83 CURVE SMOOTH",
"369 84 OFFCURVE",
"368 85 OFFCURVE",
"366 85 CURVE SMOOTH",
"353 85 OFFCURVE",
"341 75 OFFCURVE",
"329 54 CURVE",
"329 52 LINE SMOOTH",
"326 19 OFFCURVE",
"316 -3 OFFCURVE",
"301 -13 CURVE",
"378 -3 OFFCURVE",
"460 53 OFFCURVE",
"545 156 CURVE SMOOTH",
"613 237 OFFCURVE",
"667 324 OFFCURVE",
"708 417 CURVE SMOOTH",
"723 452 OFFCURVE",
"736 486 OFFCURVE",
"745 519 CURVE",
"780 455 LINE",
"731 375 LINE SMOOTH",
"655 255 OFFCURVE",
"596 170 OFFCURVE",
"553 121 CURVE SMOOTH",
"474 31 OFFCURVE",
"391 -28 OFFCURVE",
"303 -55 CURVE SMOOTH",
"268 -66 OFFCURVE",
"234 -71 OFFCURVE",
"203 -71 CURVE SMOOTH",
"160 -71 OFFCURVE",
"125 -60 OFFCURVE",
"98 -39 CURVE SMOOTH",
"70 -17 OFFCURVE",
"57 12 OFFCURVE",
"57 48 CURVE SMOOTH",
"57 95 OFFCURVE",
"78 138 OFFCURVE",
"123 176 CURVE SMOOTH",
"156 205 OFFCURVE",
"197 227 OFFCURVE",
"245 241 CURVE SMOOTH",
"289 251 OFFCURVE",
"322 257 OFFCURVE",
"344 260 CURVE SMOOTH",
"354 261 OFFCURVE",
"359 264 OFFCURVE",
"360 268 CURVE",
"356 271 OFFCURVE",
"352 273 OFFCURVE",
"349 273 CURVE SMOOTH",
"344 273 LINE SMOOTH",
"305 270 OFFCURVE",
"260 261 OFFCURVE",
"209 245 CURVE SMOOTH",
"76 202 OFFCURVE",
"8 136 OFFCURVE",
"8 46 CURVE SMOOTH",
"8 6 OFFCURVE",
"27 -26 OFFCURVE",
"62 -51 CURVE SMOOTH",
"96 -74 OFFCURVE",
"137 -86 OFFCURVE",
"186 -86 CURVE SMOOTH"
);
},
{
closed = 1;
nodes = (
"849 0 OFFCURVE",
"846 6 OFFCURVE",
"846 18 CURVE SMOOTH",
"846 19 OFFCURVE",
"846 21 OFFCURVE",
"846 23 CURVE SMOOTH",
"848 49 OFFCURVE",
"861 85 OFFCURVE",
"885 132 CURVE",
"885 124 OFFCURVE",
"885 116 OFFCURVE",
"884 108 CURVE SMOOTH",
"879 36 OFFCURVE",
"869 0 OFFCURVE",
"856 0 CURVE SMOOTH"
);
},
{
closed = 1;
nodes = (
"789 552 OFFCURVE",
"772 586 OFFCURVE",
"762 609 CURVE",
"763 616 LINE",
"763 621 LINE",
"812 609 OFFCURVE",
"851 601 OFFCURVE",
"880 596 CURVE",
"859 571 OFFCURVE",
"837 542 OFFCURVE",
"814 507 CURVE"
);
},
{
closed = 1;
nodes = (
"1284 -81 OFFCURVE",
"1287 -72 OFFCURVE",
"1291 -54 CURVE SMOOTH",
"1296 -37 OFFCURVE",
"1305 -28 OFFCURVE",
"1319 -27 CURVE",
"1324 -28 OFFCURVE",
"1328 -28 OFFCURVE",
"1331 -28 CURVE SMOOTH",
"1360 -27 OFFCURVE",
"1385 -15 OFFCURVE",
"1407 8 CURVE SMOOTH",
"1429 31 OFFCURVE",
"1441 58 OFFCURVE",
"1443 87 CURVE",
"1442 90 OFFCURVE",
"1442 92 OFFCURVE",
"1441 93 CURVE",
"1438 91 OFFCURVE",
"1437 89 OFFCURVE",
"1436 86 CURVE SMOOTH",
"1415 18 OFFCURVE",
"1381 -15 OFFCURVE",
"1337 -15 CURVE SMOOTH",
"1285 -15 OFFCURVE",
"1246 16 OFFCURVE",
"1220 77 CURVE SMOOTH",
"1201 122 OFFCURVE",
"1192 175 OFFCURVE",
"1192 236 CURVE SMOOTH",
"1192 253 OFFCURVE",
"1193 270 OFFCURVE",
"1194 287 CURVE SMOOTH",
"1199 356 OFFCURVE",
"1214 420 OFFCURVE",
"1237 480 CURVE SMOOTH",
"1268 559 OFFCURVE",
"1308 611 OFFCURVE",
"1357 637 CURVE",
"1358 638 OFFCURVE",
"1358 638 OFFCURVE",
"1359 638 CURVE",
"1359 638 OFFCURVE",
"1359 638 OFFCURVE",
"1358 638 CURVE SMOOTH",
"1351 638 OFFCURVE",
"1338 634 OFFCURVE",
"1319 627 CURVE SMOOTH",
"1301 620 OFFCURVE",
"1289 614 OFFCURVE",
"1284 609 CURVE SMOOTH",
"1274 600 OFFCURVE",
"1262 586 OFFCURVE",
"1248 567 CURVE SMOOTH",
"1178 472 OFFCURVE",
"1143 357 OFFCURVE",
"1143 224 CURVE SMOOTH",
"1143 83 OFFCURVE",
"1186 -17 OFFCURVE",
"1271 -77 CURVE SMOOTH",
"1275 -80 OFFCURVE",
"1278 -81 OFFCURVE",
"1281 -81 CURVE SMOOTH"
);
},
{
closed = 1;
nodes = (
"943 601 OFFCURVE",
"923 603 OFFCURVE",
"902 606 CURVE",
"949 661 OFFCURVE",
"989 688 OFFCURVE",
"1021 688 CURVE SMOOTH",
"1045 688 OFFCURVE",
"1057 679 OFFCURVE",
"1057 661 CURVE SMOOTH",
"1057 642 OFFCURVE",
"1045 628 OFFCURVE",
"1019 617 CURVE SMOOTH",
"974 601 LINE",
"962 601 LINE SMOOTH"
);
}
);
width = 1407;
}
);
note = M;
unicode = 004D;
},
{
glyphname = N;
lastChange = "2021-11-24 20:48:23 +0000";
layers = (
{
hints = (
{
horizontal = 1;
place = "{-54, 11}";
type = Stem;
},
{
horizontal = 1;
place = "{17, 10}";
type = Stem;
},
{
horizontal = 1;
place = "{688, 9}";
type = Stem;
},
{
horizontal = 1;
place = "{764, 9}";
type = Stem;
},
{
place = "{224, 25}";
type = Stem;
},
{
place = "{575, 20}";
type = Stem;
},
{
horizontal = 1;
place = "{375, 40}";
type = Stem;
},
{
horizontal = 1;
place = "{696, 25}";
type = Stem;
},
{
place = "{477, 71}";
type = Stem;
},
{
horizontal = 1;
place = "{-63, 19}";
type = Stem;
}
);
layerId = "64752FBD-EC7B-42BB-A7F3-340BB4BBD1AC";
paths = (
{
closed = 1;
nodes = (
"964 -63 LINE SMOOTH",
"1004 -64 OFFCURVE",
"1038 -47 OFFCURVE",
"1065 -13 CURVE SMOOTH",
"1067 -10 OFFCURVE",
"1068 -7 OFFCURVE",
"1068 -4 CURVE SMOOTH",
"1068 1 OFFCURVE",
"1066 3 OFFCURVE",
"1061 3 CURVE SMOOTH",
"1060 3 OFFCURVE",
"1051 -5 OFFCURVE",
"1032 -20 CURVE SMOOTH",
"1013 -36 OFFCURVE",
"994 -44 OFFCURVE",
"973 -44 CURVE SMOOTH",
"939 -44 OFFCURVE",
"903 -14 OFFCURVE",
"864 45 CURVE",
"887 74 OFFCURVE",
"910 125 OFFCURVE",
"933 200 CURVE SMOOTH",
"944 235 OFFCURVE",
"957 286 OFFCURVE",
"974 354 CURVE SMOOTH",
"1037 609 OFFCURVE",
"1094 745 OFFCURVE",
"1146 761 CURVE SMOOTH",
"1152 763 OFFCURVE",
"1159 764 OFFCURVE",
"1166 764 CURVE SMOOTH",
"1193 764 OFFCURVE",
"1211 753 OFFCURVE",
"1220 730 CURVE SMOOTH",
"1221 726 OFFCURVE",
"1223 724 OFFCURVE",
"1226 724 CURVE SMOOTH",
"1230 724 OFFCURVE",
"1232 726 OFFCURVE",
"1232 731 CURVE SMOOTH",
"1232 734 OFFCURVE",
"1231 738 OFFCURVE",
"1228 741 CURVE SMOOTH",
"1211 762 OFFCURVE",
"1190 773 OFFCURVE",
"1163 773 CURVE SMOOTH",
"1080 773 OFFCURVE",
"1003 638 OFFCURVE",
"933 368 CURVE SMOOTH",
"897 217 LINE SMOOTH",
"882 152 OFFCURVE",
"867 101 OFFCURVE",
"852 64 CURVE",
"822 114 OFFCURVE",
"789 186 OFFCURVE",
"752 280 CURVE SMOOTH",
"670 496 LINE",
"711 624 OFFCURVE",
"751 688 OFFCURVE",
"792 688 CURVE SMOOTH",
"812 688 OFFCURVE",
"825 675 OFFCURVE",
"830 649 CURVE SMOOTH",
"832 642 OFFCURVE",
"834 638 OFFCURVE",
"836 638 CURVE SMOOTH",
"839 638 OFFCURVE",
"840 641 OFFCURVE",
"840 648 CURVE SMOOTH",
"840 673 OFFCURVE",
"816 697 OFFCURVE",
"791 697 CURVE SMOOTH",
"740 697 OFFCURVE",
"695 642 OFFCURVE",
"655 532 CURVE",
"636 576 OFFCURVE",
"615 611 OFFCURVE",
"591 637 CURVE",
"584 682 OFFCURVE",
"570 716 OFFCURVE",
"550 738 CURVE SMOOTH",
"545 744 OFFCURVE",
"539 747 OFFCURVE",
"534 747 CURVE SMOOTH",
"529 747 OFFCURVE",
"526 744 OFFCURVE",
"526 739 CURVE SMOOTH",
"526 736 OFFCURVE",
"528 731 OFFCURVE",
"532 726 CURVE SMOOTH",
"545 708 OFFCURVE",
"555 687 OFFCURVE",
"562 663 CURVE",
"515 702 OFFCURVE",
"461 721 OFFCURVE",
"402 721 CURVE SMOOTH",
"343 721 OFFCURVE",
"298 701 OFFCURVE",
"267 661 CURVE SMOOTH",
"238 625 OFFCURVE",
"224 577 OFFCURVE",
"224 516 CURVE SMOOTH",
"224 451 OFFCURVE",
"240 389 OFFCURVE",
"271 329 CURVE SMOOTH",
"306 263 OFFCURVE",
"351 219 OFFCURVE",
"408 198 CURVE SMOOTH",
"410 197 OFFCURVE",
"412 197 OFFCURVE",
"414 197 CURVE SMOOTH",
"421 197 OFFCURVE",
"424 199 OFFCURVE",
"424 204 CURVE SMOOTH",
"424 207 OFFCURVE",
"421 210 OFFCURVE",
"415 213 CURVE SMOOTH",
"391 223 OFFCURVE",
"372 233 OFFCURVE",
"359 243 CURVE SMOOTH",
"324 270 OFFCURVE",
"296 307 OFFCURVE",
"276 355 CURVE SMOOTH",
"258 399 OFFCURVE",
"249 445 OFFCURVE",
"249 493 CURVE SMOOTH",
"249 548 OFFCURVE",
"261 593 OFFCURVE",
"284 630 CURVE SMOOTH",
"311 674 OFFCURVE",
"351 696 OFFCURVE",
"403 696 CURVE SMOOTH",
"468 696 OFFCURVE",
"525 654 OFFCURVE",
"575 570 CURVE",
"575 564 LINE SMOOTH",
"575 507 OFFCURVE",
"566 443 OFFCURVE",
"548 373 CURVE",
"549 401 OFFCURVE",
"539 415 OFFCURVE",
"518 415 CURVE SMOOTH",
"497 415 OFFCURVE",
"477 396 OFFCURVE",
"477 375 CURVE",
"505 380 OFFCURVE",
"530 357 OFFCURVE",
"534 326 CURVE",
"523 291 OFFCURVE",
"508 255 OFFCURVE",
"489 216 CURVE SMOOTH",
"465 167 OFFCURVE",
"436 120 OFFCURVE",
"403 73 CURVE SMOOTH",
"356 8 OFFCURVE",
"317 -28 OFFCURVE",
"285 -35 CURVE SMOOTH",
"271 -38 OFFCURVE",
"262 -41 OFFCURVE",
"258 -43 CURVE",
"174 -40 OFFCURVE",
"112 5 OFFCURVE",
"73 93 CURVE SMOOTH",
"96 42 OFFCURVE",
"144 17 OFFCURVE",
"218 17 CURVE SMOOTH",
"270 17 OFFCURVE",
"296 23 OFFCURVE",
"296 36 CURVE SMOOTH",
"296 37 OFFCURVE",
"295 38 OFFCURVE",
"293 39 CURVE",
"291 39 OFFCURVE",
"283 37 OFFCURVE",
"269 33 CURVE SMOOTH",
"255 29 OFFCURVE",
"244 27 OFFCURVE",
"235 27 CURVE SMOOTH",
"180 27 OFFCURVE",
"137 45 OFFCURVE",
"106 81 CURVE SMOOTH",
"93 95 OFFCURVE",
"82 112 OFFCURVE",
"75 131 CURVE SMOOTH",
"71 141 OFFCURVE",
"65 159 OFFCURVE",
"58 186 CURVE SMOOTH",
"57 191 OFFCURVE",
"54 193 OFFCURVE",
"50 193 CURVE SMOOTH",
"35 193 OFFCURVE",
"27 182 OFFCURVE",
"27 160 CURVE SMOOTH",
"27 141 OFFCURVE",
"32 116 OFFCURVE",
"43 86 CURVE SMOOTH",
"59 42 OFFCURVE",
"90 7 OFFCURVE",
"135 -19 CURVE SMOOTH",
"177 -42 OFFCURVE",
"223 -54 OFFCURVE",
"273 -54 CURVE SMOOTH",
"386 -54 OFFCURVE",
"474 -2 OFFCURVE",
"535 103 CURVE SMOOTH",
"568 157 OFFCURVE",
"605 261 OFFCURVE",
"646 414 CURVE",
"704 261 OFFCURVE",
"738 174 OFFCURVE",
"749 152 CURVE SMOOTH",
"793 56 OFFCURVE",
"840 -8 OFFCURVE",
"890 -39 CURVE SMOOTH",
"914 -54 OFFCURVE",
"938 -62 OFFCURVE",
"962 -63 CURVE SMOOTH"
);
},
{
closed = 1;
nodes = (
"365 -8 OFFCURVE",
"438 74 OFFCURVE",
"500 202 CURVE SMOOTH",
"555 315 OFFCURVE",
"587 425 OFFCURVE",
"595 534 CURVE",
"606 512 OFFCURVE",
"618 485 OFFCURVE",
"631 452 CURVE",
"599 326 OFFCURVE",
"580 254 OFFCURVE",
"573 236 CURVE SMOOTH",
"546 153 OFFCURVE",
"512 89 OFFCURVE",
"473 45 CURVE SMOOTH",
"423 -10 OFFCURVE",
"359 -40 OFFCURVE",
"282 -43 CURVE"
);
}
);
width = 1004;
}
);
note = N;
unicode = 004E;
},
{
glyphname = Eng;
lastChange = "2021-11-24 20:56:06 +0000";
layers = (
{
background = {
hints = (
{
horizontal = 1;
place = "{151, 15}";
type = Stem;
},
{
horizontal = 1;
place = "{543, 41}";
type = Stem;
},
{
horizontal = 1;
place = "{670, 16}";
type = Stem;
},
{
horizontal = 1;
place = "{755, 11}";
type = Stem;
},
{
place = "{119, 12}";
type = Stem;
},
{
place = "{277, 33}";
type = Stem;
},
{
place = "{371, 19}";
type = Stem;
},
{
place = "{475, 21}";
type = Stem;
},
{
place = "{928, 51}";
type = Stem;
},
{
horizontal = 1;
place = "{158, 27}";
type = Stem;
},
{
horizontal = 1;
place = "{725, 17}";
type = Stem;
}
);
paths = (
{
closed = 1;
nodes = (
"912 283 OFFCURVE",
"872 153 OFFCURVE",
"834 47 CURVE SMOOTH",
"725 -254 OFFCURVE",
"633 -351 OFFCURVE",
"538 -351 CURVE SMOOTH",
"482 -351 OFFCURVE",
"439 -312 OFFCURVE",
"428 -266 CURVE SMOOTH",
"420 -231 OFFCURVE",
"422 -212 OFFCURVE",
"408 -212 CURVE SMOOTH",
"392 -212 OFFCURVE",
"378 -231 OFFCURVE",
"383 -270 CURVE SMOOTH",
"390 -322 OFFCURVE",
"428 -366 OFFCURVE",
"521 -367 CURVE SMOOTH",
"672 -369 OFFCURVE",
"778 -229 OFFCURVE",
"867 -2 CURVE SMOOTH",
"911 112 OFFCURVE",
"952 256 OFFCURVE",
"996 436 CURVE SMOOTH",
"1040 616 OFFCURVE",
"958 468 OFFCURVE",
"955 444 CURVE"
);
}
);
};
hints = (
{
horizontal = 1;
place = "{-54, 11}";
type = Stem;
},
{
horizontal = 1;
place = "{17, 10}";
type = Stem;
},
{
horizontal = 1;
place = "{688, 9}";
type = Stem;
},
{
horizontal = 1;
place = "{764, 9}";
type = Stem;
},
{
place = "{224, 25}";
type = Stem;
},
{
place = "{575, 20}";
type = Stem;
},
{
horizontal = 1;
place = "{375, 40}";
type = Stem;
},
{
horizontal = 1;
place = "{696, 25}";
type = Stem;
},
{
place = "{477, 71}";
type = Stem;
},
{
horizontal = 1;
place = "{-63, 19}";
type = Stem;
}
);
layerId = "64752FBD-EC7B-42BB-A7F3-340BB4BBD1AC";
paths = (
{
closed = 1;
nodes = (
"807 135 OFFCURVE",
"752 280 CURVE SMOOTH",
"670 496 LINE",
"711 624 OFFCURVE",
"751 688 OFFCURVE",
"792 688 CURVE SMOOTH",
"812 688 OFFCURVE",
"825 675 OFFCURVE",
"830 649 CURVE SMOOTH",
"832 642 OFFCURVE",
"834 638 OFFCURVE",
"836 638 CURVE SMOOTH",
"839 638 OFFCURVE",
"840 641 OFFCURVE",
"840 648 CURVE SMOOTH",
"840 673 OFFCURVE",
"816 697 OFFCURVE",
"791 697 CURVE SMOOTH",
"740 697 OFFCURVE",
"695 642 OFFCURVE",
"655 532 CURVE",
"636 576 OFFCURVE",
"615 611 OFFCURVE",
"591 637 CURVE",
"584 682 OFFCURVE",
"570 716 OFFCURVE",
"550 738 CURVE SMOOTH",
"545 744 OFFCURVE",
"539 747 OFFCURVE",
"534 747 CURVE SMOOTH",
"529 747 OFFCURVE",
"526 744 OFFCURVE",
"526 739 CURVE SMOOTH",
"526 736 OFFCURVE",
"528 731 OFFCURVE",
"532 726 CURVE SMOOTH",
"545 708 OFFCURVE",
"555 687 OFFCURVE",
"562 663 CURVE",
"515 702 OFFCURVE",
"461 721 OFFCURVE",
"402 721 CURVE SMOOTH",
"343 721 OFFCURVE",
"298 701 OFFCURVE",
"267 661 CURVE SMOOTH",
"238 625 OFFCURVE",
"224 577 OFFCURVE",
"224 516 CURVE SMOOTH",
"224 451 OFFCURVE",
"240 389 OFFCURVE",
"271 329 CURVE SMOOTH",
"306 263 OFFCURVE",
"351 219 OFFCURVE",
"408 198 CURVE SMOOTH",
"410 197 OFFCURVE",
"412 197 OFFCURVE",
"414 197 CURVE SMOOTH",
"421 197 OFFCURVE",
"424 199 OFFCURVE",
"424 204 CURVE SMOOTH",
"424 207 OFFCURVE",
"421 210 OFFCURVE",
"415 213 CURVE SMOOTH",
"391 223 OFFCURVE",
"372 233 OFFCURVE",
"359 243 CURVE SMOOTH",
"324 270 OFFCURVE",
"296 307 OFFCURVE",
"276 355 CURVE SMOOTH",
"258 399 OFFCURVE",
"249 445 OFFCURVE",
"249 493 CURVE SMOOTH",
"249 548 OFFCURVE",
"261 593 OFFCURVE",
"284 630 CURVE SMOOTH",
"311 674 OFFCURVE",
"351 696 OFFCURVE",
"403 696 CURVE SMOOTH",
"468 696 OFFCURVE",
"525 654 OFFCURVE",
"575 570 CURVE",
"575 564 LINE SMOOTH",
"575 507 OFFCURVE",
"566 443 OFFCURVE",
"548 373 CURVE",
"549 401 OFFCURVE",
"539 415 OFFCURVE",
"518 415 CURVE SMOOTH",
"497 415 OFFCURVE",
"477 396 OFFCURVE",
"477 375 CURVE",
"505 380 OFFCURVE",
"530 357 OFFCURVE",
"534 326 CURVE",
"523 291 OFFCURVE",
"508 255 OFFCURVE",
"489 216 CURVE SMOOTH",
"465 167 OFFCURVE",
"436 120 OFFCURVE",
"403 73 CURVE SMOOTH",
"356 8 OFFCURVE",
"317 -28 OFFCURVE",
"285 -35 CURVE SMOOTH",
"271 -38 OFFCURVE",
"262 -41 OFFCURVE",
"258 -43 CURVE",
"174 -40 OFFCURVE",
"112 5 OFFCURVE",
"73 93 CURVE SMOOTH",
"96 42 OFFCURVE",
"144 17 OFFCURVE",
"218 17 CURVE SMOOTH",
"270 17 OFFCURVE",
"296 23 OFFCURVE",
"296 36 CURVE SMOOTH",
"296 37 OFFCURVE",
"295 38 OFFCURVE",
"293 39 CURVE",
"291 39 OFFCURVE",
"283 37 OFFCURVE",
"269 33 CURVE SMOOTH",
"255 29 OFFCURVE",
"244 27 OFFCURVE",
"235 27 CURVE SMOOTH",
"180 27 OFFCURVE",
"137 45 OFFCURVE",
"106 81 CURVE SMOOTH",
"93 95 OFFCURVE",
"82 112 OFFCURVE",
"75 131 CURVE SMOOTH",
"71 141 OFFCURVE",
"65 159 OFFCURVE",
"58 186 CURVE SMOOTH",
"57 191 OFFCURVE",
"54 193 OFFCURVE",
"50 193 CURVE SMOOTH",
"35 193 OFFCURVE",
"27 182 OFFCURVE",
"27 160 CURVE SMOOTH",
"27 141 OFFCURVE",
"32 116 OFFCURVE",
"43 86 CURVE SMOOTH",
"59 42 OFFCURVE",
"90 7 OFFCURVE",
"135 -19 CURVE SMOOTH",
"177 -42 OFFCURVE",
"223 -54 OFFCURVE",
"273 -54 CURVE SMOOTH",
"386 -54 OFFCURVE",
"474 -2 OFFCURVE",
"535 103 CURVE SMOOTH",
"568 157 OFFCURVE",
"605 261 OFFCURVE",
"646 414 CURVE",
"704 261 OFFCURVE",
"738 174 OFFCURVE",
"749 152 CURVE SMOOTH",
"793 56 OFFCURVE",
"840 -8 OFFCURVE",
"890 -39 CURVE SMOOTH",
"914 -54 OFFCURVE",
"938 -63 OFFCURVE",
"962 -63 CURVE SMOOTH",
"964 -63 LINE SMOOTH",
"1004 -63 OFFCURVE",
"1038 -47 OFFCURVE",
"1065 -13 CURVE SMOOTH",
"1067 -10 OFFCURVE",
"1068 -7 OFFCURVE",
"1068 -4 CURVE SMOOTH",
"1068 1 OFFCURVE",
"1066 3 OFFCURVE",
"1061 3 CURVE SMOOTH",
"1060 3 OFFCURVE",
"1051 -5 OFFCURVE",
"1032 -20 CURVE SMOOTH",
"1013 -36 OFFCURVE",
"994 -44 OFFCURVE",
"973 -44 CURVE SMOOTH",
"891 -44 OFFCURVE"
);
},
{
closed = 1;
nodes = (
"365 -8 OFFCURVE",
"438 74 OFFCURVE",
"500 202 CURVE SMOOTH",
"555 315 OFFCURVE",
"587 425 OFFCURVE",
"595 534 CURVE",
"606 512 OFFCURVE",
"618 485 OFFCURVE",
"631 452 CURVE",
"599 326 OFFCURVE",
"580 254 OFFCURVE",
"573 236 CURVE SMOOTH",
"546 153 OFFCURVE",
"512 89 OFFCURVE",
"473 45 CURVE SMOOTH",
"423 -10 OFFCURVE",
"359 -40 OFFCURVE",
"282 -43 CURVE"
);
},
{
closed = 1;
nodes = (
"1211 762 OFFCURVE",
"1190 773 OFFCURVE",
"1163 773 CURVE SMOOTH",
"1027 773 OFFCURVE",
"1019 646 OFFCURVE",
"839 60 CURVE SMOOTH",
"749 -234 OFFCURVE",
"633 -351 OFFCURVE",
"538 -351 CURVE SMOOTH",
"482 -351 OFFCURVE",
"439 -312 OFFCURVE",
"428 -266 CURVE SMOOTH",
"420 -231 OFFCURVE",
"422 -212 OFFCURVE",
"408 -212 CURVE SMOOTH",
"392 -212 OFFCURVE",
"378 -231 OFFCURVE",
"383 -270 CURVE SMOOTH",
"390 -322 OFFCURVE",
"428 -366 OFFCURVE",
"521 -367 CURVE SMOOTH",
"672 -369 OFFCURVE",
"778 -212 OFFCURVE",
"867 15 CURVE SMOOTH",
"923 161 OFFCURVE",
"1047 729 OFFCURVE",
"1146 761 CURVE SMOOTH",
"1152 763 OFFCURVE",
"1159 764 OFFCURVE",
"1166 764 CURVE SMOOTH",
"1193 764 OFFCURVE",
"1211 753 OFFCURVE",
"1220 730 CURVE SMOOTH",
"1221 726 OFFCURVE",
"1223 724 OFFCURVE",
"1226 724 CURVE SMOOTH",
"1230 724 OFFCURVE",
"1232 726 OFFCURVE",
"1232 731 CURVE SMOOTH",
"1232 734 OFFCURVE",
"1231 738 OFFCURVE",
"1228 741 CURVE SMOOTH"
);
}
);
width = 1004;
}
);
unicode = 014A;
},
{
glyphname = O;
lastChange = "2021-11-24 20:48:23 +0000";
layers = (
{
hints = (
{
horizontal = 1;
place = "{-40, 26}";
type = Stem;
},
{
horizontal = 1;
place = "{284, 42}";
type = Stem;
},
{
horizontal = 1;
place = "{620, 17}";
type = Stem;
},
{
horizontal = 1;
place = "{754, 21}";
type = Stem;
},
{
horizontal = 1;
place = "{882, -20}";
target = down;
type = TopGhost;
},
{
place = "{9, 44}";
type = Stem;
},
{
place = "{108, 53}";
type = Stem;
},
{
place = "{584, 22}";
type = Stem;
},
{
place = "{816, 61}";
type = Stem;
},
{
horizontal = 1;
place = "{264, 24}";
type = Stem;
},
{
place = "{580, 20}";
type = Stem;
},
{
place = "{462, 24}";
type = Stem;
},
{
horizontal = 1;
place = "{-198, 16}";
type = Stem;
},
{
place = "{580, 24}";
type = Stem;
},
{
place = "{119, 45}";
type = Stem;
}
);
layerId = "64752FBD-EC7B-42BB-A7F3-340BB4BBD1AC";
paths = (
{
closed = 1;
nodes = (
"177 -192 OFFCURVE",
"259 -139 OFFCURVE",
"338 -40 CURVE",
"468 -36 OFFCURVE",
"588 10 OFFCURVE",
"699 98 CURVE SMOOTH",
"818 193 OFFCURVE",
"877 302 OFFCURVE",
"877 426 CURVE SMOOTH",
"877 511 OFFCURVE",
"850 583 OFFCURVE",
"797 640 CURVE SMOOTH",
"750 691 OFFCURVE",
"685 728 OFFCURVE",
"604 751 CURVE",
"601 804 OFFCURVE",
"591 843 OFFCURVE",
"576 868 CURVE SMOOTH",
"570 877 OFFCURVE",
"564 882 OFFCURVE",
"558 882 CURVE SMOOTH",
"552 882 OFFCURVE",
"549 878 OFFCURVE",
"549 871 CURVE SMOOTH",
"549 867 OFFCURVE",
"550 862 OFFCURVE",
"552 856 CURVE SMOOTH",
"565 823 OFFCURVE",
"575 791 OFFCURVE",
"580 758 CURVE",
"533 769 OFFCURVE",
"483 775 OFFCURVE",
"432 775 CURVE SMOOTH",
"353 775 OFFCURVE",
"280 762 OFFCURVE",
"214 737 CURVE SMOOTH",
"154 714 OFFCURVE",
"106 682 OFFCURVE",
"70 639 CURVE SMOOTH",
"29 592 OFFCURVE",
"9 538 OFFCURVE",
"9 478 CURVE SMOOTH",
"9 387 OFFCURVE",
"49 323 OFFCURVE",
"128 286 CURVE",
"115 247 OFFCURVE",
"108 210 OFFCURVE",
"108 174 CURVE SMOOTH",
"108 46 OFFCURVE",
"187 -35 OFFCURVE",
"314 -40 CURVE",
"251 -115 OFFCURVE",
"187 -163 OFFCURVE",
"123 -182 CURVE",
"154 -161 LINE",
"161 -152 OFFCURVE",
"164 -126 OFFCURVE",
"164 -83 CURVE SMOOTH",
"164 -82 OFFCURVE",
"163 -81 OFFCURVE",
"161 -80 CURVE",
"149 -80 OFFCURVE",
"126 -105 OFFCURVE",
"119 -118 CURVE",
"119 -120 LINE SMOOTH",
"118 -144 OFFCURVE",
"118 -158 OFFCURVE",
"117 -163 CURVE SMOOTH",
"114 -177 OFFCURVE",
"105 -189 OFFCURVE",
"92 -198 CURVE"
);
},
{
closed = 1;
nodes = (
"317 -13 OFFCURVE",
"301 -12 OFFCURVE",
"287 -9 CURVE SMOOTH",
"245 0 OFFCURVE",
"213 23 OFFCURVE",
"191 60 CURVE SMOOTH",
"171 93 OFFCURVE",
"161 132 OFFCURVE",
"161 178 CURVE SMOOTH",
"161 207 OFFCURVE",
"166 238 OFFCURVE",
"175 270 CURVE",
"193 266 OFFCURVE",
"211 264 OFFCURVE",
"230 264 CURVE SMOOTH",
"257 264 OFFCURVE",
"279 272 OFFCURVE",
"295 287 CURVE SMOOTH",
"300 292 OFFCURVE",
"303 296 OFFCURVE",
"303 298 CURVE",
"303 298 OFFCURVE",
"303 298 OFFCURVE",
"302 299 CURVE",
"298 299 OFFCURVE",
"275 288 OFFCURVE",
"268 288 CURVE SMOOTH",
"239 288 OFFCURVE",
"212 292 OFFCURVE",
"187 301 CURVE",
"220 384 OFFCURVE",
"273 456 OFFCURVE",
"348 519 CURVE SMOOTH",
"426 584 OFFCURVE",
"503 617 OFFCURVE",
"580 620 CURVE",
"575 569 OFFCURVE",
"562 511 OFFCURVE",
"541 444 CURVE SMOOTH",
"522 387 OFFCURVE",
"504 329 OFFCURVE",
"485 271 CURVE",
"486 276 OFFCURVE",
"486 281 OFFCURVE",
"486 285 CURVE SMOOTH",
"486 312 OFFCURVE",
"474 326 OFFCURVE",
"451 326 CURVE SMOOTH",
"422 326 OFFCURVE",
"405 312 OFFCURVE",
"400 284 CURVE",
"435 288 OFFCURVE",
"461 253 OFFCURVE",
"462 218 CURVE",
"435 138 OFFCURVE",
"392 61 OFFCURVE",
"335 -14 CURVE"
);
},
{
closed = 1;
nodes = (
"83 361 OFFCURVE",
"53 416 OFFCURVE",
"53 488 CURVE SMOOTH",
"53 587 OFFCURVE",
"109 663 OFFCURVE",
"220 715 CURVE SMOOTH",
"276 741 OFFCURVE",
"340 754 OFFCURVE",
"412 754 CURVE SMOOTH",
"469 754 OFFCURVE",
"526 745 OFFCURVE",
"583 728 CURVE",
"584 716 OFFCURVE",
"584 703 OFFCURVE",
"584 690 CURVE SMOOTH",
"584 673 OFFCURVE",
"583 655 OFFCURVE",
"582 637 CURVE",
"489 632 OFFCURVE",
"401 600 OFFCURVE",
"320 541 CURVE SMOOTH",
"241 483 OFFCURVE",
"182 410 OFFCURVE",
"143 323 CURVE"
);
},
{
closed = 1;
nodes = (
"448 108 OFFCURVE",
"515 255 OFFCURVE",
"562 428 CURVE SMOOTH",
"581 497 OFFCURVE",
"594 561 OFFCURVE",
"600 620 CURVE",
"625 619 OFFCURVE",
"648 615 OFFCURVE",
"671 608 CURVE SMOOTH",
"694 601 OFFCURVE",
"709 598 OFFCURVE",
"715 598 CURVE SMOOTH",
"724 598 OFFCURVE",
"729 600 OFFCURVE",
"729 604 CURVE SMOOTH",
"729 620 OFFCURVE",
"688 639 OFFCURVE",
"607 638 CURVE SMOOTH",
"602 638 LINE",
"605 665 OFFCURVE",
"606 690 OFFCURVE",
"606 712 CURVE SMOOTH",
"606 720 LINE",
"624 713 OFFCURVE",
"642 706 OFFCURVE",
"659 698 CURVE SMOOTH",
"764 648 OFFCURVE",
"816 560 OFFCURVE",
"816 435 CURVE SMOOTH",
"816 324 OFFCURVE",
"767 222 OFFCURVE",
"670 130 CURVE SMOOTH",
"575 41 OFFCURVE",
"472 -7 OFFCURVE",
"359 -13 CURVE"
);
}
);
width = 852;
}
);
note = O;
unicode = 004F;
},
{
glyphname = Oslash;
lastChange = "2021-12-21 16:37:28 +0000";
layers = (
{
hints = (
{
horizontal = 1;
place = "{-27, 18}";
type = Stem;
},
{
horizontal = 1;
place = "{487, 23}";
type = Stem;
},
{
place = "{-29, 20}";
type = Stem;
},
{
place = "{40, 22}";
type = Stem;
},
{
place = "{588, 29}";
type = Stem;
},
{
horizontal = 1;
place = "{-40, 26}";
type = Stem;
},
{
horizontal = 1;
place = "{284, 42}";
type = Stem;
},
{
horizontal = 1;
place = "{620, 17}";
type = Stem;
},
{
horizontal = 1;
place = "{754, 21}";
type = Stem;
},
{
horizontal = 1;
place = "{882, -20}";
target = down;
type = TopGhost;
},
{
place = "{9, 44}";
type = Stem;
},
{
place = "{108, 53}";
type = Stem;
},
{
place = "{584, 22}";
type = Stem;
},
{
place = "{816, 61}";
type = Stem;
},
{
horizontal = 1;
place = "{264, 24}";
type = Stem;
},
{
place = "{580, 20}";
type = Stem;
},
{
place = "{462, 24}";
type = Stem;
},
{
horizontal = 1;
place = "{-198, 16}";
type = Stem;
},
{
place = "{580, 24}";
type = Stem;
},
{
place = "{119, 45}";
type = Stem;
},
{
horizontal = 1;
place = "{-143.127, 904.012}";
type = Stem;
},
{
place = "{174.45, 808.395}";
type = Stem;
}
);
layerId = "64752FBD-EC7B-42BB-A7F3-340BB4BBD1AC";
paths = (
{
closed = 1;
nodes = (
"338 -40 CURVE SMOOTH",
"468 -40 OFFCURVE",
"588 10 OFFCURVE",
"699 98 CURVE SMOOTH",
"818 193 OFFCURVE",
"877 302 OFFCURVE",
"877 426 CURVE SMOOTH",
"877 511 OFFCURVE",
"850 583 OFFCURVE",
"797 640 CURVE SMOOTH",
"716 728 OFFCURVE",
"572 775 OFFCURVE",
"432 775 CURVE SMOOTH",
"353 775 OFFCURVE",
"280 762 OFFCURVE",
"214 737 CURVE SMOOTH",
"154 714 OFFCURVE",
"106 682 OFFCURVE",
"70 639 CURVE SMOOTH",
"29 592 OFFCURVE",
"9 538 OFFCURVE",
"9 478 CURVE SMOOTH",
"9 387 OFFCURVE",
"49 323 OFFCURVE",
"128 286 CURVE",
"115 247 OFFCURVE",
"108 210 OFFCURVE",
"108 174 CURVE SMOOTH",
"108 41 OFFCURVE",
"182 -35 OFFCURVE"
);
},
{
closed = 1;
nodes = (
"581 735 OFFCURVE",
"659 698 CURVE SMOOTH",
"764 648 OFFCURVE",
"816 560 OFFCURVE",
"816 435 CURVE SMOOTH",
"816 324 OFFCURVE",
"767 222 OFFCURVE",
"670 130 CURVE SMOOTH",
"575 41 OFFCURVE",
"472 -7 OFFCURVE",
"359 -13 CURVE SMOOTH",
"291 -19 OFFCURVE",
"228 -2 OFFCURVE",
"191 60 CURVE SMOOTH",
"171 93 OFFCURVE",
"161 132 OFFCURVE",
"161 178 CURVE SMOOTH",
"161 207 OFFCURVE",
"166 238 OFFCURVE",
"175 270 CURVE",
"193 266 OFFCURVE",
"211 264 OFFCURVE",
"230 264 CURVE SMOOTH",
"257 264 OFFCURVE",
"279 272 OFFCURVE",
"295 287 CURVE SMOOTH",
"300 292 OFFCURVE",
"303 296 OFFCURVE",
"303 298 CURVE",
"303 298 OFFCURVE",
"303 298 OFFCURVE",
"302 299 CURVE",
"298 299 OFFCURVE",
"275 288 OFFCURVE",
"268 288 CURVE SMOOTH",
"239 288 OFFCURVE",
"212 292 OFFCURVE",
"187 301 CURVE",
"220 384 OFFCURVE",
"273 456 OFFCURVE",
"348 519 CURVE SMOOTH",
"447 601 OFFCURVE",
"558 642 OFFCURVE",
"671 608 CURVE SMOOTH",
"694 601 OFFCURVE",
"709 598 OFFCURVE",
"715 598 CURVE SMOOTH",
"724 598 OFFCURVE",
"729 600 OFFCURVE",
"729 604 CURVE SMOOTH",
"729 620 OFFCURVE",
"688 638 OFFCURVE",
"607 638 CURVE SMOOTH",
"507 638 OFFCURVE",
"409 606 OFFCURVE",
"320 541 CURVE SMOOTH",
"241 483 OFFCURVE",
"182 410 OFFCURVE",
"143 323 CURVE",
"83 361 OFFCURVE",
"53 416 OFFCURVE",
"53 488 CURVE SMOOTH",
"53 587 OFFCURVE",
"109 663 OFFCURVE",
"220 715 CURVE SMOOTH",
"276 741 OFFCURVE",
"340 754 OFFCURVE",
"412 754 CURVE SMOOTH",
"499 754 OFFCURVE"
);
},
{
closed = 1;
nodes = (
"232 -172 OFFCURVE",
"240 -172 CURVE SMOOTH",
"243 -172 OFFCURVE",
"249 -172 OFFCURVE",
"251.625 -170.29 CURVE",
"281 12 OFFCURVE",
"425 287 OFFCURVE",
"486.507 391.457 CURVE SMOOTH",
"567 527 OFFCURVE",
"654.279 659.836 OFFCURVE",
"755.781 796.741 CURVE SMOOTH",
"759.136 802.174 OFFCURVE",
"760.814 803.261 OFFCURVE",
"760.814 804.347 CURVE SMOOTH",
"760.814 809.78 OFFCURVE",
"754.103 813.04 OFFCURVE",
"746.553 813.04 CURVE SMOOTH",
"733.132 813.04 OFFCURVE",
"713 805 OFFCURVE",
"699 790 CURVE",
"657 733 OFFCURVE",
"629 691 OFFCURVE",
"610 661 CURVE SMOOTH",
"536 545 OFFCURVE",
"461 424 OFFCURVE",
"396 302 CURVE SMOOTH",
"305 132 OFFCURVE",
"260.014 -0.788 OFFCURVE",
"236.526 -97.491 CURVE SMOOTH",
"229.815 -124.655 OFFCURVE",
"225 -143 OFFCURVE",
"225 -157 CURVE SMOOTH",
"225 -164 OFFCURVE"
);
}
);
width = 852;
}
);
note = Oslash;
unicode = 00D8;
},
{
glyphname = OE;
lastChange = "2021-11-24 20:48:23 +0000";
layers = (
{
hints = (
{
horizontal = 1;
place = "{-169, 13}";
type = Stem;
},
{
horizontal = 1;
place = "{-31, 38}";
type = Stem;
},
{
horizontal = 1;
place = "{309, 36}";
type = Stem;
},
{
horizontal = 1;
place = "{620, 16}";
type = Stem;
},
{
horizontal = 1;
place = "{754, 20}";
type = Stem;
},
{
horizontal = 1;
place = "{882, -20}";
target = down;
type = TopGhost;
},
{
place = "{10, 43}";
type = Stem;
},
{
place = "{109, 52}";
type = Stem;
},
{
place = "{515, 10}";
type = Stem;
},
{
place = "{586, 21}";
type = Stem;
},
{
place = "{1288, 7}";
type = Stem;
},
{
horizontal = 1;
place = "{-42, 26}";
type = Stem;
},
{
horizontal = 1;
place = "{263, 23}";
type = Stem;
},
{
horizontal = 1;
place = "{282, 43}";
type = Stem;
},
{
place = "{464, 24}";
type = Stem;
},
{
place = "{582, 21}";
type = Stem;
},
{
place = "{596, 7}";
type = Stem;
},
{
horizontal = 1;
place = "{21, 46}";
type = Stem;
},
{
horizontal = 1;
place = "{149, 7}";
type = Stem;
},
{
horizontal = 1;
place = "{563, 50}";
type = Stem;
},
{
place = "{818, 57}";
type = Stem;
},
{
horizontal = 1;
place = "{617, 51}";
type = Stem;
},
{
place = "{581, 25}";
type = Stem;
},
{
place = "{120, 44}";
type = Stem;
},
{
horizontal = 1;
place = "{597, 17}";
type = Stem;
},
{
horizontal = 1;
place = "{341, 33}";
type = Stem;
}
);
layerId = "64752FBD-EC7B-42BB-A7F3-340BB4BBD1AC";
paths = (
{
closed = 1;
nodes = (
"178 -194 OFFCURVE",
"260 -141 OFFCURVE",
"339 -42 CURVE",
"418 -40 OFFCURVE",
"497 -19 OFFCURVE",
"576 19 CURVE SMOOTH",
"657 57 OFFCURVE",
"723 107 OFFCURVE",
"778 170 CURVE",
"762 130 OFFCURVE",
"744 95 OFFCURVE",
"725 64 CURVE",
"640 52 OFFCURVE",
"576 14 OFFCURVE",
"533 -51 CURVE SMOOTH",
"521 -70 OFFCURVE",
"515 -90 OFFCURVE",
"515 -108 CURVE SMOOTH",
"515 -142 OFFCURVE",
"543 -169 OFFCURVE",
"578 -169 CURVE SMOOTH",
"582 -169 OFFCURVE",
"583 -166 OFFCURVE",
"587 -165 CURVE SMOOTH",
"608 -160 OFFCURVE",
"618 -158 OFFCURVE",
"618 -156 CURVE",
"621 -156 OFFCURVE",
"604 -156 OFFCURVE",
"600 -156 CURVE SMOOTH",
"550 -156 OFFCURVE",
"525 -137 OFFCURVE",
"525 -98 CURVE SMOOTH",
"525 -74 OFFCURVE",
"538 -52 OFFCURVE",
"561 -30 CURVE SMOOTH",
"599 5 OFFCURVE",
"653 21 OFFCURVE",
"723 21 CURVE SMOOTH",
"753 21 OFFCURVE",
"785 17 OFFCURVE",
"819 10 CURVE SMOOTH",
"947 -18 OFFCURVE",
"1032 -31 OFFCURVE",
"1072 -31 CURVE SMOOTH",
"1168 -31 OFFCURVE",
"1234 -5 OFFCURVE",
"1273 49 CURVE SMOOTH",
"1288 70 OFFCURVE",
"1295 91 OFFCURVE",
"1295 114 CURVE SMOOTH",
"1295 142 OFFCURVE",
"1290 156 OFFCURVE",
"1277 156 CURVE SMOOTH",
"1272 156 OFFCURVE",
"1269 153 OFFCURVE",
"1269 149 CURVE",
"1269 149 OFFCURVE",
"1288 130 OFFCURVE",
"1288 107 CURVE SMOOTH",
"1288 87 OFFCURVE",
"1281 69 OFFCURVE",
"1266 51 CURVE SMOOTH",
"1241 21 OFFCURVE",
"1194 7 OFFCURVE",
"1125 7 CURVE SMOOTH",
"1054 7 OFFCURVE",
"957 24 OFFCURVE",
"835 59 CURVE SMOOTH",
"814 64 OFFCURVE",
"790 67 OFFCURVE",
"767 67 CURVE SMOOTH",
"757 67 OFFCURVE",
"746 67 OFFCURVE",
"735 66 CURVE",
"761 88 OFFCURVE",
"778 103 OFFCURVE",
"786 112 CURVE",
"821 143 OFFCURVE",
"848 217 OFFCURVE",
"868 331 CURVE",
"966 316 OFFCURVE",
"1029 309 OFFCURVE",
"1055 309 CURVE SMOOTH",
"1083 309 OFFCURVE",
"1108 313 OFFCURVE",
"1129 323 CURVE SMOOTH",
"1163 338 OFFCURVE",
"1180 353 OFFCURVE",
"1180 366 CURVE SMOOTH",
"1180 367 OFFCURVE",
"1179 368 OFFCURVE",
"1176 368 CURVE",
"1147 353 OFFCURVE",
"1112 345 OFFCURVE",
"1072 345 CURVE SMOOTH",
"1064 345 OFFCURVE",
"998 353 OFFCURVE",
"875 368 CURVE",
"875 375 LINE",
"890 474 OFFCURVE",
"908 545 OFFCURVE",
"929 586 CURVE",
"1000 571 OFFCURVE",
"1057 563 OFFCURVE",
"1102 563 CURVE SMOOTH",
"1180 563 OFFCURVE",
"1236 592 OFFCURVE",
"1268 650 CURVE SMOOTH",
"1270 654 OFFCURVE",
"1272 657 OFFCURVE",
"1272 660 CURVE SMOOTH",
"1272 661 OFFCURVE",
"1270 661 OFFCURVE",
"1269 663 CURVE",
"1265 663 OFFCURVE",
"1261 658 OFFCURVE",
"1254 649 CURVE SMOOTH",
"1234 625 OFFCURVE",
"1194 613 OFFCURVE",
"1134 613 CURVE SMOOTH",
"1083 613 OFFCURVE",
"1021 621 OFFCURVE",
"948 636 CURVE SMOOTH",
"851 657 OFFCURVE",
"796 668 OFFCURVE",
"780 668 CURVE SMOOTH",
"776 668 OFFCURVE",
"773 668 OFFCURVE",
"769 667 CURVE",
"726 704 OFFCURVE",
"671 733 OFFCURVE",
"606 751 CURVE",
"601 804 OFFCURVE",
"593 843 OFFCURVE",
"578 868 CURVE SMOOTH",
"572 878 OFFCURVE",
"567 882 OFFCURVE",
"560 882 CURVE SMOOTH",
"553 882 OFFCURVE",
"550 878 OFFCURVE",
"550 871 CURVE SMOOTH",
"550 867 OFFCURVE",
"551 862 OFFCURVE",
"554 856 CURVE SMOOTH",
"567 824 OFFCURVE",
"576 790 OFFCURVE",
"581 757 CURVE",
"533 768 OFFCURVE",
"485 774 OFFCURVE",
"433 774 CURVE SMOOTH",
"354 774 OFFCURVE",
"281 761 OFFCURVE",
"215 736 CURVE SMOOTH",
"156 714 OFFCURVE",
"107 681 OFFCURVE",
"70 638 CURVE SMOOTH",
"29 590 OFFCURVE",
"10 536 OFFCURVE",
"10 477 CURVE SMOOTH",
"10 385 OFFCURVE",
"50 321 OFFCURVE",
"129 284 CURVE",
"116 246 OFFCURVE",
"109 209 OFFCURVE",
"109 173 CURVE SMOOTH",
"109 44 OFFCURVE",
"188 -37 OFFCURVE",
"315 -42 CURVE",
"252 -119 OFFCURVE",
"188 -166 OFFCURVE",
"124 -185 CURVE",
"154 -163 LINE",
"161 -154 OFFCURVE",
"164 -129 OFFCURVE",
"164 -86 CURVE SMOOTH",
"164 -84 OFFCURVE",
"163 -83 OFFCURVE",
"161 -83 CURVE SMOOTH",
"150 -83 OFFCURVE",
"125 -108 OFFCURVE",
"120 -120 CURVE",
"120 -123 LINE SMOOTH",
"118 -147 OFFCURVE",
"118 -162 OFFCURVE",
"117 -166 CURVE SMOOTH",
"114 -180 OFFCURVE",
"106 -191 OFFCURVE",
"92 -201 CURVE"
);
},
{
closed = 1;
nodes = (
"318 -16 OFFCURVE",
"303 -15 OFFCURVE",
"288 -11 CURVE SMOOTH",
"246 -2 OFFCURVE",
"214 20 OFFCURVE",
"192 57 CURVE SMOOTH",
"171 91 OFFCURVE",
"161 131 OFFCURVE",
"161 177 CURVE SMOOTH",
"161 206 OFFCURVE",
"167 236 OFFCURVE",
"177 268 CURVE",
"195 264 OFFCURVE",
"213 263 OFFCURVE",
"231 263 CURVE SMOOTH",
"259 263 OFFCURVE",
"281 271 OFFCURVE",
"296 286 CURVE SMOOTH",
"302 291 OFFCURVE",
"304 295 OFFCURVE",
"304 296 CURVE SMOOTH",
"304 298 OFFCURVE",
"304 298 OFFCURVE",
"303 298 CURVE SMOOTH",
"299 298 OFFCURVE",
"275 286 OFFCURVE",
"268 286 CURVE SMOOTH",
"240 286 OFFCURVE",
"214 291 OFFCURVE",
"188 300 CURVE",
"220 382 OFFCURVE",
"274 454 OFFCURVE",
"349 517 CURVE SMOOTH",
"428 582 OFFCURVE",
"506 615 OFFCURVE",
"582 620 CURVE",
"576 568 OFFCURVE",
"564 510 OFFCURVE",
"543 443 CURVE SMOOTH",
"486 270 LINE",
"488 274 OFFCURVE",
"488 280 OFFCURVE",
"488 284 CURVE SMOOTH",
"488 311 OFFCURVE",
"475 325 OFFCURVE",
"451 325 CURVE SMOOTH",
"422 325 OFFCURVE",
"406 311 OFFCURVE",
"401 282 CURVE",
"436 286 OFFCURVE",
"463 250 OFFCURVE",
"464 216 CURVE",
"436 137 OFFCURVE",
"393 59 OFFCURVE",
"336 -16 CURVE"
);
},
{
closed = 1;
nodes = (
"84 359 OFFCURVE",
"53 414 OFFCURVE",
"53 488 CURVE SMOOTH",
"53 586 OFFCURVE",
"109 663 OFFCURVE",
"221 714 CURVE SMOOTH",
"277 740 OFFCURVE",
"340 754 OFFCURVE",
"413 754 CURVE SMOOTH",
"471 754 OFFCURVE",
"528 746 OFFCURVE",
"585 728 CURVE",
"586 715 OFFCURVE",
"586 701 OFFCURVE",
"586 689 CURVE SMOOTH",
"586 672 OFFCURVE",
"585 654 OFFCURVE",
"583 636 CURVE",
"490 632 OFFCURVE",
"403 600 OFFCURVE",
"322 540 CURVE SMOOTH",
"243 482 OFFCURVE",
"184 409 OFFCURVE",
"143 321 CURVE"
);
},
{
closed = 1;
nodes = (
"454 113 OFFCURVE",
"525 271 OFFCURVE",
"572 456 CURVE",
"607 470 OFFCURVE",
"624 482 OFFCURVE",
"624 492 CURVE",
"624 492 OFFCURVE",
"603 524 OFFCURVE",
"603 545 CURVE SMOOTH",
"603 574 OFFCURVE",
"628 595 OFFCURVE",
"676 607 CURVE",
"696 600 OFFCURVE",
"710 597 OFFCURVE",
"717 597 CURVE SMOOTH",
"726 597 OFFCURVE",
"732 599 OFFCURVE",
"732 603 CURVE SMOOTH",
"732 607 OFFCURVE",
"729 610 OFFCURVE",
"722 614 CURVE",
"735 615 OFFCURVE",
"746 617 OFFCURVE",
"754 617 CURVE SMOOTH",
"761 617 LINE",
"798 567 OFFCURVE",
"818 506 OFFCURVE",
"818 434 CURVE SMOOTH",
"818 413 OFFCURVE",
"816 393 OFFCURVE",
"812 374 CURVE",
"798 374 LINE SMOOTH",
"732 374 OFFCURVE",
"682 360 OFFCURVE",
"650 334 CURVE SMOOTH",
"612 305 LINE",
"615 302 LINE",
"653 328 OFFCURVE",
"701 341 OFFCURVE",
"762 341 CURVE SMOOTH",
"775 341 OFFCURVE",
"789 341 OFFCURVE",
"804 339 CURVE",
"778 246 OFFCURVE",
"721 164 OFFCURVE",
"633 95 CURVE SMOOTH",
"546 27 OFFCURVE",
"456 -11 OFFCURVE",
"360 -16 CURVE"
);
},
{
closed = 1;
nodes = (
"599 586 OFFCURVE",
"601 603 OFFCURVE",
"603 620 CURVE",
"618 618 OFFCURVE",
"632 617 OFFCURVE",
"646 614 CURVE",
"637 608 LINE SMOOTH",
"622 597 OFFCURVE",
"608 585 OFFCURVE",
"596 570 CURVE"
);
},
{
closed = 1;
nodes = (
"657 636 OFFCURVE",
"635 638 OFFCURVE",
"608 638 CURVE SMOOTH",
"604 638 LINE",
"606 664 OFFCURVE",
"607 689 OFFCURVE",
"607 711 CURVE SMOOTH",
"607 720 LINE",
"655 701 OFFCURVE",
"694 681 OFFCURVE",
"723 657 CURVE",
"708 652 OFFCURVE",
"692 643 OFFCURVE",
"675 633 CURVE"
);
},
{
closed = 1;
nodes = (
"853 561 OFFCURVE",
"840 586 OFFCURVE",
"822 610 CURVE",
"862 603 OFFCURVE",
"891 596 OFFCURVE",
"911 592 CURVE",
"893 577 OFFCURVE",
"879 561 OFFCURVE",
"868 545 CURVE",
"866 543 OFFCURVE",
"864 539 OFFCURVE",
"862 532 CURVE"
);
}
);
width = 1303;
}
);
note = OE;
unicode = 0152;
},
{
glyphname = P;
lastChange = "2021-11-24 20:48:23 +0000";
layers = (
{
hints = (
{
horizontal = 1;
place = "{196, 15}";
type = Stem;
},
{
horizontal = 1;
place = "{588, 41}";
type = Stem;
},
{
horizontal = 1;
place = "{715, 16}";
type = Stem;
},
{
horizontal = 1;
place = "{800, 11}";
type = Stem;
},
{
place = "{56, 12}";
type = Stem;
},
{
place = "{214, 33}";
type = Stem;
},
{
place = "{308, 19}";
type = Stem;
},
{
place = "{412, 21}";
type = Stem;
},
{
place = "{865, 51}";
type = Stem;
},
{
horizontal = 1;
place = "{203, 27}";
type = Stem;
},
{
horizontal = 1;
place = "{770, 17}";
type = Stem;
}
);
layerId = "64752FBD-EC7B-42BB-A7F3-340BB4BBD1AC";
paths = (
{
closed = 1;
nodes = (
"169 -92 LINE SMOOTH",
"203 -91 OFFCURVE",
"235 -85 OFFCURVE",
"264 -74 CURVE SMOOTH",
"344 -43 OFFCURVE",
"405 47 OFFCURVE",
"446 196 CURVE",
"470 196 LINE SMOOTH",
"671 196 OFFCURVE",
"808 255 OFFCURVE",
"881 374 CURVE SMOOTH",
"904 413 OFFCURVE",
"916 453 OFFCURVE",
"916 494 CURVE SMOOTH",
"916 567 OFFCURVE",
"887 624 OFFCURVE",
"829 667 CURVE SMOOTH",
"780 703 OFFCURVE",
"717 724 OFFCURVE",
"640 729 CURVE",
"667 756 OFFCURVE",
"695 770 OFFCURVE",
"724 770 CURVE SMOOTH",
"747 770 OFFCURVE",
"766 760 OFFCURVE",
"781 740 CURVE SMOOTH",
"797 720 OFFCURVE",
"806 710 OFFCURVE",
"807 710 CURVE SMOOTH",
"814 710 OFFCURVE",
"817 716 OFFCURVE",
"817 729 CURVE SMOOTH",
"817 744 OFFCURVE",
"808 758 OFFCURVE",
"791 769 CURVE SMOOTH",
"774 781 OFFCURVE",
"757 787 OFFCURVE",
"741 787 CURVE SMOOTH",
"704 787 OFFCURVE",
"664 768 OFFCURVE",
"623 730 CURVE",
"617 731 OFFCURVE",
"611 731 OFFCURVE",
"605 731 CURVE SMOOTH",
"554 731 OFFCURVE",
"494 721 OFFCURVE",
"424 700 CURVE",
"408 774 OFFCURVE",
"372 811 OFFCURVE",
"315 811 CURVE SMOOTH",
"281 811 OFFCURVE",
"259 799 OFFCURVE",
"248 774 CURVE",
"282 777 OFFCURVE",
"302 757 OFFCURVE",
"308 716 CURVE",
"321 723 OFFCURVE",
"327 736 OFFCURVE",
"327 755 CURVE SMOOTH",
"327 776 OFFCURVE",
"318 791 OFFCURVE",
"299 799 CURVE",
"304 800 OFFCURVE",
"309 800 OFFCURVE",
"314 800 CURVE SMOOTH",
"362 800 OFFCURVE",
"393 765 OFFCURVE",
"406 695 CURVE",
"275 653 LINE SMOOTH",
"218 637 OFFCURVE",
"174 629 OFFCURVE",
"143 629 CURVE SMOOTH",
"93 629 OFFCURVE",
"68 649 OFFCURVE",
"68 690 CURVE SMOOTH",
"68 705 OFFCURVE",
"72 720 OFFCURVE",
"81 736 CURVE SMOOTH",
"90 753 OFFCURVE",
"95 762 OFFCURVE",
"95 763 CURVE SMOOTH",
"95 766 OFFCURVE",
"94 768 OFFCURVE",
"91 768 CURVE SMOOTH",
"88 768 OFFCURVE",
"85 765 OFFCURVE",
"82 760 CURVE SMOOTH",
"65 732 OFFCURVE",
"56 705 OFFCURVE",
"56 680 CURVE SMOOTH",
"56 624 OFFCURVE",
"103 588 OFFCURVE",
"160 588 CURVE SMOOTH",
"196 588 OFFCURVE",
"237 596 OFFCURVE",
"284 613 CURVE SMOOTH",
"299 618 OFFCURVE",
"341 634 OFFCURVE",
"410 663 CURVE",
"411 647 OFFCURVE",
"412 629 OFFCURVE",
"412 610 CURVE SMOOTH",
"412 563 OFFCURVE",
"407 510 OFFCURVE",
"398 449 CURVE SMOOTH",
"395 428 OFFCURVE",
"390 403 OFFCURVE",
"384 375 CURVE",
"373 378 OFFCURVE",
"365 390 OFFCURVE",
"359 413 CURVE",
"347 413 OFFCURVE",
"328 384 OFFCURVE",
"328 371 CURVE SMOOTH",
"328 354 OFFCURVE",
"334 341 OFFCURVE",
"347 333 CURVE",
"362 344 OFFCURVE",
"373 354 OFFCURVE",
"382 362 CURVE",
"373 319 OFFCURVE",
"362 278 OFFCURVE",
"351 237 CURVE",
"314 253 OFFCURVE",
"286 275 OFFCURVE",
"267 302 CURVE SMOOTH",
"254 322 OFFCURVE",
"247 342 OFFCURVE",
"247 363 CURVE SMOOTH",
"247 404 OFFCURVE",
"276 438 OFFCURVE",
"334 464 CURVE",
"335 465 OFFCURVE",
"335 465 OFFCURVE",
"335 465 CURVE",
"334 467 OFFCURVE",
"332 468 OFFCURVE",
"328 468 CURVE SMOOTH",
"305 468 OFFCURVE",
"281 453 OFFCURVE",
"254 422 CURVE SMOOTH",
"227 392 OFFCURVE",
"214 363 OFFCURVE",
"214 336 CURVE SMOOTH",
"214 313 OFFCURVE",
"221 292 OFFCURVE",
"236 273 CURVE SMOOTH",
"258 244 OFFCURVE",
"294 223 OFFCURVE",
"343 210 CURVE",
"312 105 OFFCURVE",
"282 34 OFFCURVE",
"251 -3 CURVE SMOOTH",
"248 -7 OFFCURVE",
"246 -10 OFFCURVE",
"246 -12 CURVE SMOOTH",
"246 -15 OFFCURVE",
"247 -17 OFFCURVE",
"250 -17 CURVE SMOOTH",
"253 -17 OFFCURVE",
"255 -15 OFFCURVE",
"258 -12 CURVE SMOOTH",
"292 26 OFFCURVE",
"326 99 OFFCURVE",
"360 206 CURVE",
"399 200 LINE",
"342 17 OFFCURVE",
"281 -74 OFFCURVE",
"217 -74 CURVE SMOOTH",
"201 -74 OFFCURVE",
"185 -68 OFFCURVE",
"169 -55 CURVE SMOOTH",
"153 -43 OFFCURVE",
"144 -37 OFFCURVE",
"142 -37 CURVE SMOOTH",
"133 -37 OFFCURVE",
"128 -45 OFFCURVE",
"128 -61 CURVE SMOOTH",
"128 -82 OFFCURVE",
"141 -93 OFFCURVE",
"166 -92 CURVE SMOOTH"
);
},
{
closed = 1;
nodes = (
"392 223 OFFCURVE",
"379 226 OFFCURVE",
"368 230 CURVE",
"389 299 OFFCURVE",
"404 362 OFFCURVE",
"414 420 CURVE SMOOTH",
"427 489 OFFCURVE",
"433 550 OFFCURVE",
"433 603 CURVE SMOOTH",
"433 628 OFFCURVE",
"432 650 OFFCURVE",
"429 671 CURVE",
"500 699 OFFCURVE",
"559 714 OFFCURVE",
"607 715 CURVE",
"534 640 OFFCURVE",
"481 530 OFFCURVE",
"448 385 CURVE SMOOTH",
"434 322 OFFCURVE",
"420 267 OFFCURVE",
"405 220 CURVE"
);
},
{
closed = 1;
nodes = (
"474 211 OFFCURVE",
"462 212 OFFCURVE",
"450 213 CURVE",
"492 374 OFFCURVE",
"516 463 OFFCURVE",
"521 480 CURVE SMOOTH",
"556 592 OFFCURVE",
"591 670 OFFCURVE",
"628 715 CURVE",
"696 713 OFFCURVE",
"752 694 OFFCURVE",
"795 657 CURVE SMOOTH",
"842 617 OFFCURVE",
"865 563 OFFCURVE",
"865 496 CURVE SMOOTH",
"865 457 OFFCURVE",
"855 419 OFFCURVE",
"834 382 CURVE SMOOTH",
"802 323 OFFCURVE",
"752 279 OFFCURVE",
"685 250 CURVE SMOOTH",
"626 224 OFFCURVE",
"560 211 OFFCURVE",
"486 211 CURVE SMOOTH"
);
}
);
width = 826;
}
);
note = P;
unicode = 0050;
},
{
glyphname = Thorn;
lastChange = "2021-12-21 16:22:31 +0000";
layers = (
{
background = {
hints = (
{
horizontal = 1;
place = "{196, 15}";
type = Stem;
},
{
horizontal = 1;
place = "{588, 41}";
type = Stem;
},
{
horizontal = 1;
place = "{715, 16}";
type = Stem;
},
{
horizontal = 1;
place = "{800, 11}";
type = Stem;
},
{
place = "{56, 12}";
type = Stem;
},
{
place = "{214, 33}";
type = Stem;
},
{
place = "{308, 19}";
type = Stem;
},
{
place = "{412, 21}";
type = Stem;
},
{
place = "{865, 51}";
type = Stem;
},
{
horizontal = 1;
place = "{203, 27}";
type = Stem;
},
{
horizontal = 1;
place = "{770, 17}";
type = Stem;
}
);
paths = (
{
closed = 1;
nodes = (
"351 233 OFFCURVE",
"299 256 OFFCURVE",
"267 302 CURVE SMOOTH",
"254 322 OFFCURVE",
"247 342 OFFCURVE",
"247 363 CURVE SMOOTH",
"247 404 OFFCURVE",
"276 438 OFFCURVE",
"334 464 CURVE",
"335 465 OFFCURVE",
"335 465 OFFCURVE",
"335 465 CURVE",
"334 467 OFFCURVE",
"332 468 OFFCURVE",
"328 468 CURVE SMOOTH",
"305 468 OFFCURVE",
"281 453 OFFCURVE",
"254 422 CURVE SMOOTH",
"227 392 OFFCURVE",
"214 363 OFFCURVE",
"214 336 CURVE SMOOTH",
"214 313 OFFCURVE",
"221 292 OFFCURVE",
"236 273 CURVE SMOOTH",
"258 244 OFFCURVE",
"294 222 OFFCURVE",
"343 210 CURVE SMOOTH",
"360 206 LINE",
"399 200 LINE",
"342 17 OFFCURVE",
"281 -74 OFFCURVE",
"217 -74 CURVE SMOOTH",
"201 -74 OFFCURVE",
"185 -68 OFFCURVE",
"169 -55 CURVE SMOOTH",
"153 -43 OFFCURVE",
"144 -37 OFFCURVE",
"142 -37 CURVE SMOOTH",
"133 -37 OFFCURVE",
"128 -45 OFFCURVE",
"128 -61 CURVE SMOOTH",
"128 -82 OFFCURVE",
"141 -92 OFFCURVE",
"166 -92 CURVE SMOOTH",
"169 -92 LINE SMOOTH",
"203 -92 OFFCURVE",
"235 -85 OFFCURVE",
"264 -74 CURVE SMOOTH",
"344 -43 OFFCURVE",
"405 47 OFFCURVE",
"446 196 CURVE",
"470 196 LINE SMOOTH",
"671 196 OFFCURVE",
"808 255 OFFCURVE",
"881 374 CURVE SMOOTH",
"904 413 OFFCURVE",
"916 453 OFFCURVE",
"916 494 CURVE SMOOTH",
"916 567 OFFCURVE",
"887 624 OFFCURVE",
"829 667 CURVE SMOOTH",
"780 703 OFFCURVE",
"717 724 OFFCURVE",
"640 729 CURVE",
"667 756 OFFCURVE",
"695 770 OFFCURVE",
"724 770 CURVE SMOOTH",
"747 770 OFFCURVE",
"766 760 OFFCURVE",
"781 740 CURVE SMOOTH",
"797 720 OFFCURVE",
"806 710 OFFCURVE",
"807 710 CURVE SMOOTH",
"814 710 OFFCURVE",
"817 716 OFFCURVE",
"817 729 CURVE SMOOTH",
"817 744 OFFCURVE",
"808 758 OFFCURVE",
"791 769 CURVE SMOOTH",
"774 781 OFFCURVE",
"757 787 OFFCURVE",
"741 787 CURVE SMOOTH",
"704 787 OFFCURVE",
"664 768 OFFCURVE",
"623 730 CURVE",
"617 731 OFFCURVE",
"611 731 OFFCURVE",
"605 731 CURVE SMOOTH",
"450 731 OFFCURVE",
"271 629 OFFCURVE",
"143 629 CURVE SMOOTH",
"93 629 OFFCURVE",
"68 649 OFFCURVE",
"68 690 CURVE SMOOTH",
"68 705 OFFCURVE",
"72 720 OFFCURVE",
"81 736 CURVE SMOOTH",
"90 753 OFFCURVE",
"95 762 OFFCURVE",
"95 763 CURVE SMOOTH",
"95 766 OFFCURVE",
"94 768 OFFCURVE",
"91 768 CURVE SMOOTH",
"88 768 OFFCURVE",
"85 765 OFFCURVE",
"82 760 CURVE SMOOTH",
"65 732 OFFCURVE",
"56 705 OFFCURVE",
"56 680 CURVE SMOOTH",
"56 624 OFFCURVE",
"103 588 OFFCURVE",
"160 588 CURVE SMOOTH",
"196 588 OFFCURVE",
"237 596 OFFCURVE",
"284 613 CURVE SMOOTH",
"410 655 OFFCURVE",
"496 713 OFFCURVE",
"607 715 CURVE",
"534 640 OFFCURVE",
"481 530 OFFCURVE",
"448 385 CURVE SMOOTH",
"434 322 OFFCURVE",
"420 267 OFFCURVE",
"405 220 CURVE"
);
},
{
closed = 1;
nodes = (
"474 211 OFFCURVE",
"462 212 OFFCURVE",
"450 213 CURVE",
"492 374 OFFCURVE",
"516 463 OFFCURVE",
"521 480 CURVE SMOOTH",
"556 592 OFFCURVE",
"591 670 OFFCURVE",
"628 715 CURVE",
"696 713 OFFCURVE",
"752 694 OFFCURVE",
"795 657 CURVE SMOOTH",
"842 617 OFFCURVE",
"865 563 OFFCURVE",
"865 496 CURVE SMOOTH",
"865 457 OFFCURVE",
"855 419 OFFCURVE",
"834 382 CURVE SMOOTH",
"802 323 OFFCURVE",
"752 279 OFFCURVE",
"685 250 CURVE SMOOTH",
"626 224 OFFCURVE",
"560 211 OFFCURVE",
"486 211 CURVE SMOOTH"
);
}
);
};
hints = (
{
horizontal = 1;
place = "{409, 23}";
type = Stem;
},
{
horizontal = 1;
place = "{651, 41}";
type = Stem;
},
{
place = "{593, 79}";
type = Stem;
}
);
layerId = "64752FBD-EC7B-42BB-A7F3-340BB4BBD1AC";
paths = (
{
closed = 1;
nodes = (
"641 614 OFFCURVE",
"494 614 CURVE SMOOTH",
"364 614 OFFCURVE",
"213 532 OFFCURVE",
"105 532 CURVE SMOOTH",
"63 532 OFFCURVE",
"41 544 OFFCURVE",
"41 577 CURVE SMOOTH",
"40 611 OFFCURVE",
"63 623 OFFCURVE",
"74 637 CURVE SMOOTH",
"77 640 OFFCURVE",
"71 644 OFFCURVE",
"66 644 CURVE SMOOTH",
"60 644 OFFCURVE",
"25 621 OFFCURVE",
"25 573 CURVE SMOOTH",
"25 528 OFFCURVE",
"72 486 OFFCURVE",
"120 486 CURVE SMOOTH",
"278 486 OFFCURVE",
"367 593 OFFCURVE",
"522 593 CURVE SMOOTH",
"644 592 OFFCURVE",
"721 533 OFFCURVE",
"721 420 CURVE SMOOTH",
"721 272 OFFCURVE",
"552 185 OFFCURVE",
"390 185 CURVE SMOOTH",
"284 185 OFFCURVE",
"193 237 OFFCURVE",
"193 307 CURVE SMOOTH",
"193 352 OFFCURVE",
"231 386 OFFCURVE",
"262 395 CURVE SMOOTH",
"265 396 OFFCURVE",
"267 398 OFFCURVE",
"267 400 CURVE SMOOTH",
"267 401 OFFCURVE",
"266 403 OFFCURVE",
"261 403 CURVE SMOOTH",
"204 403 OFFCURVE",
"157 354 OFFCURVE",
"157 297 CURVE SMOOTH",
"157 212 OFFCURVE",
"247 165 OFFCURVE",
"388 165 CURVE SMOOTH",
"573 165 OFFCURVE",
"771 264 OFFCURVE",
"771 424 CURVE SMOOTH",
"771 552 OFFCURVE"
);
},
{
closed = 1;
nodes = (
"711 818 OFFCURVE",
"694 824 OFFCURVE",
"678 824 CURVE SMOOTH",
"590 824 OFFCURVE",
"524 747 OFFCURVE",
"475 651 CURVE SMOOTH",
"418 540 OFFCURVE",
"375 347 OFFCURVE",
"350 253 CURVE SMOOTH",
"269 -20 OFFCURVE",
"196 -145 OFFCURVE",
"132 -145 CURVE SMOOTH",
"116 -145 OFFCURVE",
"100 -139 OFFCURVE",
"84 -126 CURVE SMOOTH",
"68 -114 OFFCURVE",
"59 -108 OFFCURVE",
"57 -108 CURVE SMOOTH",
"48 -108 OFFCURVE",
"43 -116 OFFCURVE",
"43 -132 CURVE SMOOTH",
"43 -153 OFFCURVE",
"56 -163 OFFCURVE",
"81 -163 CURVE SMOOTH",
"84 -163 LINE SMOOTH",
"118 -163 OFFCURVE",
"150 -156 OFFCURVE",
"179 -145 CURVE SMOOTH",
"259 -114 OFFCURVE",
"324 -11 OFFCURVE",
"396 234 CURVE SMOOTH",
"425 347 OFFCURVE",
"472 546 OFFCURVE",
"517 655 CURVE SMOOTH",
"547 730 OFFCURVE",
"598 807 OFFCURVE",
"661 807 CURVE SMOOTH",
"684 807 OFFCURVE",
"703 797 OFFCURVE",
"718 777 CURVE SMOOTH",
"734 757 OFFCURVE",
"743 747 OFFCURVE",
"744 747 CURVE SMOOTH",
"751 747 OFFCURVE",
"754 753 OFFCURVE",
"754 766 CURVE SMOOTH",
"754 781 OFFCURVE",
"745 795 OFFCURVE",
"728 806 CURVE SMOOTH"
);
}
);
width = 706;
}
);
note = Thorn;
unicode = 00DE;
},
{
glyphname = Q;
lastChange = "2021-11-24 20:48:23 +0000";
layers = (
{
hints = (
{
horizontal = 1;
place = "{-220, 41}";
type = Stem;
},
{
horizontal = 1;
place = "{-45, 14}";
type = Stem;
},
{
horizontal = 1;
place = "{130, 23}";
type = Stem;
},
{
horizontal = 1;
place = "{711, 19}";
type = Stem;
},
{
place = "{17, 15}";
type = Stem;
},
{
place = "{83, 43}";
type = Stem;
},
{
place = "{204, 18}";
type = Stem;
},
{
place = "{547, 21}";
type = Stem;
},
{
place = "{823, 12}";
type = Stem;
},
{
place = "{781, 60}";
type = Stem;
},
{
horizontal = 1;
place = "{-263, 16}";
type = Stem;
},
{
horizontal = 1;
place = "{-47, 19}";
type = Stem;
},
{
horizontal = 1;
place = "{219, 43}";
type = Stem;
},
{
place = "{424, 24}";
type = Stem;
}
);
layerId = "64752FBD-EC7B-42BB-A7F3-340BB4BBD1AC";
paths = (
{
closed = 1;
nodes = (
"154 -256 OFFCURVE",
"249 -186 OFFCURVE",
"338 -54 CURVE",
"503 -165 OFFCURVE",
"629 -220 OFFCURVE",
"714 -220 CURVE SMOOTH",
"795 -220 OFFCURVE",
"835 -184 OFFCURVE",
"835 -111 CURVE SMOOTH",
"835 -86 OFFCURVE",
"832 -73 OFFCURVE",
"825 -73 CURVE SMOOTH",
"822 -73 OFFCURVE",
"820 -75 OFFCURVE",
"820 -80 CURVE SMOOTH",
"820 -87 OFFCURVE",
"823 -102 OFFCURVE",
"823 -109 CURVE SMOOTH",
"823 -156 OFFCURVE",
"785 -179 OFFCURVE",
"709 -179 CURVE SMOOTH",
"645 -179 OFFCURVE",
"546 -134 OFFCURVE",
"413 -45 CURVE",
"494 -37 OFFCURVE",
"568 -12 OFFCURVE",
"633 31 CURVE SMOOTH",
"701 75 OFFCURVE",
"753 132 OFFCURVE",
"790 203 CURVE SMOOTH",
"824 270 OFFCURVE",
"841 336 OFFCURVE",
"841 400 CURVE SMOOTH",
"841 481 OFFCURVE",
"814 551 OFFCURVE",
"760 611 CURVE SMOOTH",
"708 668 OFFCURVE",
"642 705 OFFCURVE",
"563 722 CURVE",
"558 759 OFFCURVE",
"549 786 OFFCURVE",
"538 803 CURVE SMOOTH",
"533 812 OFFCURVE",
"527 817 OFFCURVE",
"521 817 CURVE SMOOTH",
"514 817 OFFCURVE",
"511 813 OFFCURVE",
"511 806 CURVE SMOOTH",
"511 802 OFFCURVE",
"512 797 OFFCURVE",
"515 792 CURVE",
"524 770 OFFCURVE",
"531 748 OFFCURVE",
"536 726 CURVE",
"519 729 OFFCURVE",
"501 730 OFFCURVE",
"483 730 CURVE SMOOTH",
"381 730 OFFCURVE",
"290 698 OFFCURVE",
"210 634 CURVE SMOOTH",
"125 565 OFFCURVE",
"83 481 OFFCURVE",
"83 380 CURVE SMOOTH",
"83 288 OFFCURVE",
"125 214 OFFCURVE",
"209 159 CURVE",
"220 156 LINE",
"225 147 OFFCURVE",
"230 143 OFFCURVE",
"233 143 CURVE SMOOTH",
"233 143 OFFCURVE",
"234 143 OFFCURVE",
"234 143 CURVE",
"233 148 OFFCURVE",
"231 153 OFFCURVE",
"229 158 CURVE",
"232 159 OFFCURVE",
"234 160 OFFCURVE",
"234 163 CURVE SMOOTH",
"234 166 OFFCURVE",
"231 169 OFFCURVE",
"226 172 CURVE",
"223 187 OFFCURVE",
"222 202 OFFCURVE",
"222 217 CURVE SMOOTH",
"222 240 OFFCURVE",
"225 265 OFFCURVE",
"232 293 CURVE SMOOTH",
"241 330 OFFCURVE",
"246 349 OFFCURVE",
"246 350 CURVE",
"239 373 OFFCURVE",
"229 385 OFFCURVE",
"218 385 CURVE SMOOTH",
"213 385 OFFCURVE",
"209 383 OFFCURVE",
"204 379 CURVE",
"196 326 OFFCURVE",
"192 283 OFFCURVE",
"192 251 CURVE SMOOTH",
"192 239 OFFCURVE",
"193 228 OFFCURVE",
"194 219 CURVE",
"198 207 OFFCURVE",
"202 196 OFFCURVE",
"207 185 CURVE",
"153 224 OFFCURVE",
"126 286 OFFCURVE",
"126 370 CURVE SMOOTH",
"126 474 OFFCURVE",
"159 557 OFFCURVE",
"225 618 CURVE SMOOTH",
"291 680 OFFCURVE",
"376 711 OFFCURVE",
"481 711 CURVE SMOOTH",
"501 711 OFFCURVE",
"521 709 OFFCURVE",
"540 705 CURVE",
"545 680 OFFCURVE",
"547 653 OFFCURVE",
"547 625 CURVE SMOOTH",
"547 562 OFFCURVE",
"536 491 OFFCURVE",
"513 412 CURVE SMOOTH",
"447 207 LINE",
"448 212 OFFCURVE",
"448 216 OFFCURVE",
"448 220 CURVE SMOOTH",
"448 248 OFFCURVE",
"436 262 OFFCURVE",
"413 262 CURVE SMOOTH",
"384 262 OFFCURVE",
"368 248 OFFCURVE",
"363 219 CURVE",
"396 223 OFFCURVE",
"424 188 OFFCURVE",
"424 153 CURVE",
"407 103 OFFCURVE",
"382 51 OFFCURVE",
"350 -2 CURVE",
"205 101 OFFCURVE",
"109 153 OFFCURVE",
"62 153 CURVE SMOOTH",
"32 153 OFFCURVE",
"17 140 OFFCURVE",
"17 115 CURVE SMOOTH",
"17 91 OFFCURVE",
"29 67 OFFCURVE",
"53 42 CURVE SMOOTH",
"72 21 OFFCURVE",
"95 5 OFFCURVE",
"120 -7 CURVE SMOOTH",
"169 -30 OFFCURVE",
"236 -44 OFFCURVE",
"321 -47 CURVE",
"245 -156 OFFCURVE",
"166 -222 OFFCURVE",
"85 -247 CURVE",
"117 -226 LINE",
"123 -217 OFFCURVE",
"126 -191 OFFCURVE",
"126 -148 CURVE SMOOTH",
"126 -146 OFFCURVE",
"125 -145 OFFCURVE",
"123 -145 CURVE SMOOTH",
"112 -145 OFFCURVE",
"88 -170 OFFCURVE",
"81 -183 CURVE",
"81 -185 LINE SMOOTH",
"81 -209 OFFCURVE",
"80 -223 OFFCURVE",
"79 -228 CURVE SMOOTH",
"76 -242 OFFCURVE",
"68 -254 OFFCURVE",
"54 -263 CURVE"
);
},
{
closed = 1;
nodes = (
"273 -29 OFFCURVE",
"249 -26 OFFCURVE",
"221 -20 CURVE SMOOTH",
"141 -3 OFFCURVE",
"84 29 OFFCURVE",
"49 75 CURVE SMOOTH",
"38 89 OFFCURVE",
"32 101 OFFCURVE",
"32 112 CURVE SMOOTH",
"32 124 OFFCURVE",
"39 130 OFFCURVE",
"53 130 CURVE SMOOTH",
"78 130 OFFCURVE",
"116 111 OFFCURVE",
"167 73 CURVE SMOOTH",
"303 -28 LINE",
"293 -28 LINE SMOOTH"
);
},
{
closed = 1;
nodes = (
"365 -12 LINE",
"434 101 OFFCURVE",
"488 226 OFFCURVE",
"525 363 CURVE SMOOTH",
"554 469 OFFCURVE",
"568 564 OFFCURVE",
"568 647 CURVE SMOOTH",
"568 664 OFFCURVE",
"567 681 OFFCURVE",
"566 698 CURVE",
"631 678 OFFCURVE",
"683 638 OFFCURVE",
"722 578 CURVE SMOOTH",
"761 518 OFFCURVE",
"781 452 OFFCURVE",
"781 379 CURVE SMOOTH",
"781 297 OFFCURVE",
"756 218 OFFCURVE",
"707 141 CURVE SMOOTH",
"637 31 OFFCURVE",
"532 -26 OFFCURVE",
"392 -31 CURVE"
);
}
);
width = 796;
}
);
note = Q;
unicode = 0051;
},
{
glyphname = R;
lastChange = "2021-11-24 20:48:23 +0000";
layers = (
{
hints = (
{
horizontal = 1;
place = "{-133, 14}";
type = Stem;
},
{
horizontal = 1;
place = "{196, 15}";
type = Stem;
},
{
horizontal = 1;
place = "{588, 41}";
type = Stem;
},
{
horizontal = 1;
place = "{715, 16}";
type = Stem;
},
{
horizontal = 1;
place = "{800, 11}";
type = Stem;
},
{
place = "{5, 13}";
type = Stem;
},
{
place = "{164, 33}";
type = Stem;
},
{
place = "{258, 19}";
type = Stem;
},
{
place = "{362, 21}";
type = Stem;
},
{
place = "{497, 44}";
type = Stem;
},
{
place = "{815, 51}";
type = Stem;
},
{
place = "{1000, 14}";
type = Stem;
},
{
horizontal = 1;
place = "{203, 27}";
type = Stem;
},
{
horizontal = 1;
place = "{770, 17}";
type = Stem;
}
);
layerId = "64752FBD-EC7B-42BB-A7F3-340BB4BBD1AC";
paths = (
{
closed = 1;
nodes = (
"917 -184 OFFCURVE",
"919 -182 OFFCURVE",
"919 -179 CURVE SMOOTH",
"919 -174 OFFCURVE",
"909 -153 OFFCURVE",
"909 -145 CURVE SMOOTH",
"909 -136 OFFCURVE",
"915 -132 OFFCURVE",
"927 -132 CURVE SMOOTH",
"929 -132 OFFCURVE",
"931 -132 OFFCURVE",
"934 -133 CURVE",
"941 -133 LINE SMOOTH",
"990 -133 OFFCURVE",
"1014 -113 OFFCURVE",
"1014 -73 CURVE SMOOTH",
"1014 -66 OFFCURVE",
"1012 -57 OFFCURVE",
"1009 -46 CURVE SMOOTH",
"1006 -32 OFFCURVE",
"1002 -25 OFFCURVE",
"997 -25 CURVE SMOOTH",
"996 -25 OFFCURVE",
"995 -26 OFFCURVE",
"995 -28 CURVE SMOOTH",
"995 -33 OFFCURVE",
"1000 -52 OFFCURVE",
"1000 -60 CURVE SMOOTH",
"1000 -99 OFFCURVE",
"976 -119 OFFCURVE",
"929 -119 CURVE SMOOTH",
"864 -119 OFFCURVE",
"791 -83 OFFCURVE",
"712 -11 CURVE SMOOTH",
"635 58 OFFCURVE",
"582 131 OFFCURVE",
"555 208 CURVE",
"686 233 OFFCURVE",
"778 288 OFFCURVE",
"830 374 CURVE SMOOTH",
"854 413 OFFCURVE",
"866 453 OFFCURVE",
"866 494 CURVE SMOOTH",
"866 567 OFFCURVE",
"837 624 OFFCURVE",
"779 667 CURVE SMOOTH",
"730 703 OFFCURVE",
"667 724 OFFCURVE",
"590 729 CURVE",
"617 756 OFFCURVE",
"645 770 OFFCURVE",
"674 770 CURVE SMOOTH",
"696 770 OFFCURVE",
"715 760 OFFCURVE",
"731 740 CURVE SMOOTH",
"747 720 OFFCURVE",
"756 710 OFFCURVE",
"757 710 CURVE SMOOTH",
"764 710 OFFCURVE",
"767 716 OFFCURVE",
"767 729 CURVE SMOOTH",
"767 744 OFFCURVE",
"758 758 OFFCURVE",
"741 769 CURVE SMOOTH",
"724 781 OFFCURVE",
"707 787 OFFCURVE",
"691 787 CURVE SMOOTH",
"654 787 OFFCURVE",
"614 768 OFFCURVE",
"572 730 CURVE",
"566 731 OFFCURVE",
"560 731 OFFCURVE",
"554 731 CURVE SMOOTH",
"504 731 OFFCURVE",
"444 721 OFFCURVE",
"374 700 CURVE",
"357 774 OFFCURVE",
"321 811 OFFCURVE",
"265 811 CURVE SMOOTH",
"231 811 OFFCURVE",
"208 799 OFFCURVE",
"197 774 CURVE",
"232 777 OFFCURVE",
"252 757 OFFCURVE",
"258 716 CURVE",
"271 723 OFFCURVE",
"277 736 OFFCURVE",
"277 755 CURVE SMOOTH",
"277 776 OFFCURVE",
"268 791 OFFCURVE",
"249 799 CURVE",
"254 800 OFFCURVE",
"259 800 OFFCURVE",
"264 800 CURVE SMOOTH",
"312 800 OFFCURVE",
"342 765 OFFCURVE",
"355 695 CURVE",
"224 653 LINE SMOOTH",
"167 637 OFFCURVE",
"123 629 OFFCURVE",
"92 629 CURVE SMOOTH",
"43 629 OFFCURVE",
"18 649 OFFCURVE",
"18 690 CURVE SMOOTH",
"18 705 OFFCURVE",
"22 720 OFFCURVE",
"31 736 CURVE SMOOTH",
"40 753 OFFCURVE",
"45 762 OFFCURVE",
"45 763 CURVE SMOOTH",
"45 766 OFFCURVE",
"44 768 OFFCURVE",
"41 768 CURVE SMOOTH",
"38 768 OFFCURVE",
"34 765 OFFCURVE",
"31 760 CURVE SMOOTH",
"14 732 OFFCURVE",
"5 705 OFFCURVE",
"5 680 CURVE SMOOTH",
"5 624 OFFCURVE",
"53 588 OFFCURVE",
"110 588 CURVE SMOOTH",
"146 588 OFFCURVE",
"187 596 OFFCURVE",
"234 613 CURVE SMOOTH",
"249 618 OFFCURVE",
"291 634 OFFCURVE",
"360 663 CURVE",
"361 647 OFFCURVE",
"362 629 OFFCURVE",
"362 610 CURVE SMOOTH",
"362 563 OFFCURVE",
"357 510 OFFCURVE",
"348 449 CURVE SMOOTH",
"345 428 OFFCURVE",
"340 403 OFFCURVE",
"334 375 CURVE",
"323 378 OFFCURVE",
"315 390 OFFCURVE",
"309 413 CURVE",
"297 413 OFFCURVE",
"278 384 OFFCURVE",
"278 371 CURVE SMOOTH",
"278 354 OFFCURVE",
"284 341 OFFCURVE",
"296 333 CURVE",
"311 344 OFFCURVE",
"323 354 OFFCURVE",
"331 362 CURVE",
"322 319 OFFCURVE",
"312 278 OFFCURVE",
"301 237 CURVE",
"264 253 OFFCURVE",
"236 275 OFFCURVE",
"217 302 CURVE SMOOTH",
"204 322 OFFCURVE",
"197 342 OFFCURVE",
"197 363 CURVE SMOOTH",
"197 404 OFFCURVE",
"226 438 OFFCURVE",
"283 464 CURVE",
"284 465 OFFCURVE",
"284 465 OFFCURVE",
"285 465 CURVE",
"284 467 OFFCURVE",
"282 468 OFFCURVE",
"277 468 CURVE SMOOTH",
"255 468 OFFCURVE",
"231 453 OFFCURVE",
"204 422 CURVE SMOOTH",
"177 392 OFFCURVE",
"164 363 OFFCURVE",
"164 336 CURVE SMOOTH",
"164 313 OFFCURVE",
"171 292 OFFCURVE",
"186 273 CURVE SMOOTH",
"208 244 OFFCURVE",
"244 223 OFFCURVE",
"293 210 CURVE",
"262 105 OFFCURVE",
"231 34 OFFCURVE",
"200 -3 CURVE SMOOTH",
"197 -7 OFFCURVE",
"196 -10 OFFCURVE",
"196 -12 CURVE SMOOTH",
"196 -15 OFFCURVE",
"197 -17 OFFCURVE",
"199 -17 CURVE SMOOTH",
"202 -17 OFFCURVE",
"205 -15 OFFCURVE",
"208 -12 CURVE SMOOTH",
"242 26 OFFCURVE",
"276 99 OFFCURVE",
"310 206 CURVE",
"349 200 LINE",
"291 17 OFFCURVE",
"230 -74 OFFCURVE",
"167 -74 CURVE SMOOTH",
"151 -74 OFFCURVE",
"135 -68 OFFCURVE",
"119 -55 CURVE SMOOTH",
"103 -43 OFFCURVE",
"94 -37 OFFCURVE",
"92 -37 CURVE SMOOTH",
"82 -37 OFFCURVE",
"77 -45 OFFCURVE",
"77 -61 CURVE SMOOTH",
"77 -82 OFFCURVE",
"90 -93 OFFCURVE",
"115 -92 CURVE SMOOTH",
"118 -92 LINE SMOOTH",
"153 -91 OFFCURVE",
"184 -85 OFFCURVE",
"213 -74 CURVE SMOOTH",
"293 -43 OFFCURVE",
"354 47 OFFCURVE",
"395 196 CURVE",
"420 196 LINE SMOOTH",
"449 196 OFFCURVE",
"478 198 OFFCURVE",
"507 201 CURVE",
"513 182 OFFCURVE",
"521 162 OFFCURVE",
"530 142 CURVE SMOOTH",
"602 -11 OFFCURVE",
"726 -119 OFFCURVE",
"902 -181 CURVE SMOOTH",
"907 -183 OFFCURVE",
"911 -184 OFFCURVE",
"914 -184 CURVE SMOOTH"
);
},
{
closed = 1;
nodes = (
"342 223 OFFCURVE",
"329 226 OFFCURVE",
"317 230 CURVE",
"338 299 OFFCURVE",
"353 362 OFFCURVE",
"364 420 CURVE SMOOTH",
"377 489 OFFCURVE",
"383 550 OFFCURVE",
"383 603 CURVE SMOOTH",
"383 628 OFFCURVE",
"382 650 OFFCURVE",
"379 671 CURVE",
"450 699 OFFCURVE",
"509 714 OFFCURVE",
"557 715 CURVE",
"484 640 OFFCURVE",
"431 530 OFFCURVE",
"398 385 CURVE SMOOTH",
"383 322 OFFCURVE",
"369 267 OFFCURVE",
"355 220 CURVE"
);
},
{
closed = 1;
nodes = (
"424 211 OFFCURVE",
"412 212 OFFCURVE",
"400 213 CURVE",
"442 374 OFFCURVE",
"466 463 OFFCURVE",
"471 480 CURVE SMOOTH",
"506 592 OFFCURVE",
"541 670 OFFCURVE",
"577 715 CURVE",
"645 713 OFFCURVE",
"701 694 OFFCURVE",
"744 657 CURVE SMOOTH",
"791 617 OFFCURVE",
"815 563 OFFCURVE",
"815 496 CURVE SMOOTH",
"815 457 OFFCURVE",
"805 419 OFFCURVE",
"784 382 CURVE SMOOTH",
"739 299 OFFCURVE",
"661 246 OFFCURVE",
"551 223 CURVE",
"544 244 OFFCURVE",
"541 264 OFFCURVE",
"541 282 CURVE SMOOTH",
"541 301 OFFCURVE",
"545 317 OFFCURVE",
"552 331 CURVE",
"550 336 OFFCURVE",
"547 339 OFFCURVE",
"543 339 CURVE SMOOTH",
"536 339 OFFCURVE",
"527 331 OFFCURVE",
"517 316 CURVE SMOOTH",
"507 301 OFFCURVE",
"501 289 OFFCURVE",
"499 280 CURVE SMOOTH",
"498 275 OFFCURVE",
"497 268 OFFCURVE",
"497 261 CURVE SMOOTH",
"497 247 OFFCURVE",
"499 232 OFFCURVE",
"503 215 CURVE",
"481 212 OFFCURVE",
"459 211 OFFCURVE",
"436 211 CURVE SMOOTH"
);
}
);
width = 877;
}
);
note = R;
unicode = 0052;
},
{
glyphname = S;
lastChange = "2021-11-24 20:48:23 +0000";
layers = (
{
hints = (
{
horizontal = 1;
place = "{-143, 18}";
type = Stem;
},
{
horizontal = 1;
place = "{324, 14}";
type = Stem;
},
{
horizontal = 1;
place = "{395, 33}";
type = Stem;
},
{
horizontal = 1;
place = "{471, 16}";
type = Stem;
},
{
horizontal = 1;
place = "{707, 13}";
type = Stem;
},
{
place = "{41, 45}";
type = Stem;
},
{
place = "{472, 30}";
type = Stem;
},
{
place = "{666, 59}";
type = Stem;
},
{
horizontal = 1;
place = "{301, 13}";
type = Stem;
},
{
place = "{507, 42}";
type = Stem;
},
{
place = "{424, 49}";
type = Stem;
},
{
place = "{630, 13}";
type = Stem;
}
);
layerId = "64752FBD-EC7B-42BB-A7F3-340BB4BBD1AC";
paths = (
{
closed = 1;
nodes = (
"450 -143 OFFCURVE",
"534 -113 OFFCURVE",
"607 -53 CURVE SMOOTH",
"686 11 OFFCURVE",
"725 89 OFFCURVE",
"725 180 CURVE SMOOTH",
"725 259 OFFCURVE",
"692 331 OFFCURVE",
"626 394 CURVE SMOOTH",
"522 491 LINE",
"489 526 OFFCURVE",
"473 560 OFFCURVE",
"473 593 CURVE SMOOTH",
"473 624 OFFCURVE",
"485 650 OFFCURVE",
"508 673 CURVE SMOOTH",
"532 696 OFFCURVE",
"559 707 OFFCURVE",
"590 707 CURVE SMOOTH",
"602 707 OFFCURVE",
"614 705 OFFCURVE",
"626 700 CURVE SMOOTH",
"641 694 OFFCURVE",
"650 691 OFFCURVE",
"651 691 CURVE SMOOTH",
"655 691 OFFCURVE",
"657 693 OFFCURVE",
"657 696 CURVE SMOOTH",
"657 709 OFFCURVE",
"616 720 OFFCURVE",
"583 720 CURVE SMOOTH",
"541 720 OFFCURVE",
"505 708 OFFCURVE",
"474 683 CURVE SMOOTH",
"441 657 OFFCURVE",
"424 623 OFFCURVE",
"424 581 CURVE SMOOTH",
"424 543 OFFCURVE",
"444 502 OFFCURVE",
"483 458 CURVE SMOOTH",
"594 343 LINE",
"642 288 OFFCURVE",
"666 229 OFFCURVE",
"666 166 CURVE SMOOTH",
"666 81 OFFCURVE",
"634 10 OFFCURVE",
"569 -46 CURVE SMOOTH",
"508 -99 OFFCURVE",
"434 -125 OFFCURVE",
"347 -125 CURVE SMOOTH",
"257 -125 OFFCURVE",
"190 -101 OFFCURVE",
"144 -53 CURVE SMOOTH",
"105 -13 OFFCURVE",
"86 38 OFFCURVE",
"86 101 CURVE SMOOTH",
"86 166 OFFCURVE",
"111 220 OFFCURVE",
"162 263 CURVE SMOOTH",
"208 303 OFFCURVE",
"263 324 OFFCURVE",
"324 324 CURVE SMOOTH",
"369 324 OFFCURVE",
"405 312 OFFCURVE",
"433 286 CURVE SMOOTH",
"459 262 OFFCURVE",
"472 232 OFFCURVE",
"472 196 CURVE SMOOTH",
"472 163 OFFCURVE",
"461 133 OFFCURVE",
"438 108 CURVE SMOOTH",
"413 79 OFFCURVE",
"378 61 OFFCURVE",
"334 52 CURVE SMOOTH",
"328 51 OFFCURVE",
"325 48 OFFCURVE",
"325 45 CURVE SMOOTH",
"325 43 OFFCURVE",
"328 42 OFFCURVE",
"334 42 CURVE SMOOTH",
"385 42 OFFCURVE",
"427 58 OFFCURVE",
"459 89 CURVE SMOOTH",
"488 118 OFFCURVE",
"502 152 OFFCURVE",
"502 193 CURVE SMOOTH",
"502 233 OFFCURVE",
"487 266 OFFCURVE",
"458 293 CURVE SMOOTH",
"425 323 OFFCURVE",
"379 338 OFFCURVE",
"320 338 CURVE SMOOTH",
"249 337 OFFCURVE",
"187 316 OFFCURVE",
"132 274 CURVE SMOOTH",
"71 227 OFFCURVE",
"41 166 OFFCURVE",
"41 93 CURVE SMOOTH",
"41 27 OFFCURVE",
"65 -27 OFFCURVE",
"112 -69 CURVE SMOOTH",
"168 -118 OFFCURVE",
"249 -143 OFFCURVE",
"355 -143 CURVE SMOOTH"
);
},
{
closed = 1;
nodes = (
"604 194 OFFCURVE",
"606 197 OFFCURVE",
"606 200 CURVE SMOOTH",
"606 201 OFFCURVE",
"606 202 OFFCURVE",
"606 203 CURVE SMOOTH",
"597 270 OFFCURVE",
"559 334 OFFCURVE",
"491 395 CURVE SMOOTH",
"424 456 OFFCURVE",
"359 487 OFFCURVE",
"298 487 CURVE SMOOTH",
"257 487 OFFCURVE",
"227 471 OFFCURVE",
"206 438 CURVE SMOOTH",
"197 423 OFFCURVE",
"192 410 OFFCURVE",
"192 400 CURVE SMOOTH",
"192 391 OFFCURVE",
"196 381 OFFCURVE",
"203 370 CURVE",
"212 387 OFFCURVE",
"226 395 OFFCURVE",
"245 395 CURVE SMOOTH",
"254 395 OFFCURVE",
"264 393 OFFCURVE",
"274 388 CURVE",
"275 401 OFFCURVE",
"268 412 OFFCURVE",
"254 421 CURVE SMOOTH",
"246 426 OFFCURVE",
"239 428 OFFCURVE",
"231 428 CURVE SMOOTH",
"223 428 OFFCURVE",
"216 426 OFFCURVE",
"208 420 CURVE",
"223 454 OFFCURVE",
"252 471 OFFCURVE",
"293 471 CURVE SMOOTH",
"332 471 OFFCURVE",
"376 456 OFFCURVE",
"425 426 CURVE SMOOTH",
"474 396 OFFCURVE",
"514 359 OFFCURVE",
"546 314 CURVE",
"537 312 OFFCURVE",
"525 316 OFFCURVE",
"510 326 CURVE",
"508 323 OFFCURVE",
"507 318 OFFCURVE",
"507 311 CURVE SMOOTH",
"507 308 OFFCURVE",
"507 306 OFFCURVE",
"507 303 CURVE SMOOTH",
"508 292 OFFCURVE",
"511 284 OFFCURVE",
"515 280 CURVE SMOOTH",
"525 269 OFFCURVE",
"536 264 OFFCURVE",
"549 266 CURVE",
"552 280 OFFCURVE",
"554 292 OFFCURVE",
"555 301 CURVE",
"577 267 OFFCURVE",
"591 233 OFFCURVE",
"596 199 CURVE SMOOTH",
"597 194 OFFCURVE",
"599 192 OFFCURVE",
"602 193 CURVE SMOOTH"
);
},
{
closed = 1;
nodes = (
"642 564 OFFCURVE",
"651 599 OFFCURVE",
"669 633 CURVE SMOOTH",
"682 655 OFFCURVE",
"696 677 OFFCURVE",
"709 700 CURVE",
"709 725 OFFCURVE",
"703 738 OFFCURVE",
"691 738 CURVE SMOOTH",
"688 738 OFFCURVE",
"685 737 OFFCURVE",
"682 736 CURVE",
"652 675 OFFCURVE",
"635 631 OFFCURVE",
"630 604 CURVE",
"631 555 OFFCURVE",
"635 530 OFFCURVE",
"643 529 CURVE"
);
}
);
width = 800;
}
);
note = S;
unicode = 0053;
},
{
glyphname = Germandbls;
lastChange = "2021-11-24 20:50:44 +0000";
layers = (
{
hints = (
{
horizontal = 1;
place = "{-160, 12}";
type = Stem;
},
{
horizontal = 1;
place = "{129, 14}";
type = Stem;
},
{
horizontal = 1;
place = "{458, 10}";
type = Stem;
},
{
place = "{326, 16}";
type = Stem;
},
{
horizontal = 1;
place = "{7, 21}";
type = Stem;
},
{
place = "{319, 41}";
type = Stem;
}
);
layerId = "64752FBD-EC7B-42BB-A7F3-340BB4BBD1AC";
paths = (
{
closed = 1;
nodes = (
"-151 -174 LINE SMOOTH",
"-60 -174 OFFCURVE",
"26 -129 OFFCURVE",
"66 -41 CURVE SMOOTH",
"118 74 OFFCURVE",
"210 406 OFFCURVE",
"259 510 CURVE SMOOTH",
"299 598 OFFCURVE",
"372 684 OFFCURVE",
"441 684 CURVE SMOOTH",
"462 684 OFFCURVE",
"480 662 OFFCURVE",
"480 622 CURVE SMOOTH",
"480 602 OFFCURVE",
"475 576 OFFCURVE",
"463 546 CURVE SMOOTH",
"449 508 OFFCURVE",
"432 483 OFFCURVE",
"407 466 CURVE SMOOTH",
"398 460 OFFCURVE",
"394 456 OFFCURVE",
"394 454 CURVE SMOOTH",
"394 453 OFFCURVE",
"396 452 OFFCURVE",
"397 452 CURVE SMOOTH",
"398 452 OFFCURVE",
"399 453 OFFCURVE",
"400 453 CURVE SMOOTH",
"423 462 OFFCURVE",
"477 474 OFFCURVE",
"502 535 CURVE SMOOTH",
"512 558 OFFCURVE",
"517 582 OFFCURVE",
"517 603 CURVE SMOOTH",
"517 658 OFFCURVE",
"484 701 OFFCURVE",
"415 701 CURVE SMOOTH",
"318 701 OFFCURVE",
"259 590 OFFCURVE",
"216 457 CURVE SMOOTH",
"139 229 OFFCURVE",
"46 30 OFFCURVE",
"14 -42 CURVE SMOOTH",
"-20 -118 OFFCURVE",
"-58 -156 OFFCURVE",
"-103 -156 CURVE SMOOTH",
"-119 -156 OFFCURVE",
"-135 -150 OFFCURVE",
"-151 -137 CURVE SMOOTH",
"-167 -125 OFFCURVE",
"-176 -119 OFFCURVE",
"-178 -119 CURVE SMOOTH",
"-187 -119 OFFCURVE",
"-192 -127 OFFCURVE",
"-192 -143 CURVE SMOOTH",
"-192 -164 OFFCURVE",
"-179 -174 OFFCURVE",
"-154 -174 CURVE SMOOTH"
);
},
{
closed = 1;
nodes = (
"380 34 OFFCURVE",
"407 39 OFFCURVE",
"434 64 CURVE SMOOTH",
"452 81 OFFCURVE",
"485 128 OFFCURVE",
"485 182 CURVE SMOOTH",
"485 212 OFFCURVE",
"475 244 OFFCURVE",
"448 274 CURVE SMOOTH",
"400 327 OFFCURVE",
"384 366 OFFCURVE",
"384 395 CURVE SMOOTH",
"384 437 OFFCURVE",
"417 458 OFFCURVE",
"434 469 CURVE SMOOTH",
"437 471 OFFCURVE",
"432 476 OFFCURVE",
"426 476 CURVE SMOOTH",
"424 476 OFFCURVE",
"423 476 OFFCURVE",
"421 475 CURVE SMOOTH",
"391 467 OFFCURVE",
"333 415 OFFCURVE",
"333 375 CURVE SMOOTH",
"333 368 OFFCURVE",
"334 362 OFFCURVE",
"338 356 CURVE SMOOTH",
"363 317 OFFCURVE",
"412 251 OFFCURVE",
"429 186 CURVE SMOOTH",
"433 170 OFFCURVE",
"435 155 OFFCURVE",
"435 142 CURVE SMOOTH",
"435 82 OFFCURVE",
"394 58 OFFCURVE",
"368 58 CURVE SMOOTH",
"321 58 OFFCURVE",
"240 96 OFFCURVE",
"227 191 CURVE SMOOTH",
"225 204 OFFCURVE",
"204 182 OFFCURVE",
"204 163 CURVE SMOOTH",
"204 138 OFFCURVE",
"222 111 OFFCURVE",
"256 77 CURVE SMOOTH",
"272 62 OFFCURVE",
"301 44 OFFCURVE",
"329 38 CURVE SMOOTH",
"338 35 OFFCURVE",
"347 34 OFFCURVE",
"356 34 CURVE SMOOTH"
);
},
{
closed = 1;
nodes = (
"46 28 OFFCURVE",
"42 17 OFFCURVE",
"42 16 CURVE SMOOTH",
"42 11 OFFCURVE",
"43 9 OFFCURVE",
"46 10 CURVE SMOOTH",
"48 11 OFFCURVE",
"50 13 OFFCURVE",
"52 18 CURVE SMOOTH",
"63 43 LINE",
"104 156 OFFCURVE",
"133 256 OFFCURVE",
"160 380 CURVE SMOOTH",
"172 428 OFFCURVE",
"177 481 OFFCURVE",
"177 540 CURVE SMOOTH",
"177 643 OFFCURVE",
"146 768 OFFCURVE",
"55 762 CURVE SMOOTH",
"23 760 OFFCURVE",
"1 746 OFFCURVE",
"-10 721 CURVE",
"24 724 OFFCURVE",
"45 707 OFFCURVE",
"50 667 CURVE",
"64 675 OFFCURVE",
"70 689 OFFCURVE",
"70 708 CURVE SMOOTH",
"69 729 OFFCURVE",
"62 743 OFFCURVE",
"41 750 CURVE",
"55 750 LINE SMOOTH",
"129 750 OFFCURVE",
"152 652 OFFCURVE",
"155 550 CURVE SMOOTH",
"154 469 OFFCURVE",
"136 351 OFFCURVE",
"131 328 CURVE",
"117 326 OFFCURVE",
"102 340 OFFCURVE",
"93 365 CURVE",
"79 362 OFFCURVE",
"61 336 OFFCURVE",
"61 322 CURVE SMOOTH",
"61 304 OFFCURVE",
"71 290 OFFCURVE",
"89 282 CURVE",
"106 295 OFFCURVE",
"117 305 OFFCURVE",
"128 315 CURVE",
"87 148 OFFCURVE",
"79 114 OFFCURVE",
"53 47 CURVE SMOOTH"
);
}
);
width = 503;
}
);
unicode = 1E9E;
},
{
glyphname = Schwa;
lastChange = "2021-12-21 16:30:02 +0000";
layers = (
{
hints = (
{
horizontal = 1;
place = "{755, 660}";
type = Stem;
},
{
horizontal = 1;
place = "{131, 643}";
type = Stem;
},
{
place = "{644, 631}";
type = Stem;
},
{
place = "{271, 643}";
type = Stem;
}
);
layerId = "64752FBD-EC7B-42BB-A7F3-340BB4BBD1AC";
paths = (
{
closed = 1;
nodes = (
"158 577 OFFCURVE",
"261 664 OFFCURVE",
"413 664 CURVE SMOOTH",
"534 664 OFFCURVE",
"621 600 OFFCURVE",
"582 399 CURVE SMOOTH",
"542 188 OFFCURVE",
"350 0 OFFCURVE",
"181 0 CURVE SMOOTH",
"49 0 OFFCURVE",
"81 156 OFFCURVE",
"159 230 CURVE SMOOTH",
"309 374 OFFCURVE",
"501 369 OFFCURVE",
"572 369 CURVE SMOOTH",
"587 369 OFFCURVE",
"592 384 OFFCURVE",
"564 384 CURVE SMOOTH",
"514 384 OFFCURVE",
"309 410 OFFCURVE",
"139 268 CURVE SMOOTH",
"13 162 OFFCURVE",
"-12 -20 OFFCURVE",
"164 -20 CURVE SMOOTH",
"626 -20 OFFCURVE",
"841 696 OFFCURVE",
"438 696 CURVE SMOOTH",
"283 696 OFFCURVE",
"159 608 OFFCURVE",
"78 525 CURVE SMOOTH",
"67 513 OFFCURVE",
"81 504 OFFCURVE",
"92 513 CURVE SMOOTH"
);
}
);
width = 670;
}
);
unicode = 018F;
},
{
glyphname = T;
lastChange = "2021-11-24 20:48:23 +0000";
layers = (
{
hints = (
{
horizontal = 1;
place = "{-54, 10}";
type = Stem;
},
{
horizontal = 1;
place = "{17, 10}";
type = Stem;
},
{
horizontal = 1;
place = "{384, 42}";
type = Stem;
},
{
horizontal = 1;
place = "{497, 9}";
type = Stem;
},
{
horizontal = 1;
place = "{565, 31}";
type = Stem;
},
{
horizontal = 1;
place = "{651, 39}";
type = Stem;
},
{
place = "{19, 9}";
type = Stem;
},
{
place = "{561, 21}";
type = Stem;
},
{
place = "{885, 8}";
type = Stem;
},
{
horizontal = 1;
place = "{568, 34}";
type = Stem;
},
{
horizontal = 1;
place = "{676, 13}";
type = Stem;
},
{
place = "{556, 22}";
type = Stem;
},
{
place = "{472, 71}";
type = Stem;
}
);
layerId = "64752FBD-EC7B-42BB-A7F3-340BB4BBD1AC";
paths = (
{
closed = 1;
nodes = (
"360 -54 OFFCURVE",
"438 -18 OFFCURVE",
"500 53 CURVE SMOOTH",
"547 108 OFFCURVE",
"589 190 OFFCURVE",
"626 299 CURVE SMOOTH",
"655 388 OFFCURVE",
"683 476 OFFCURVE",
"711 565 CURVE",
"719 565 LINE SMOOTH",
"835 564 OFFCURVE",
"893 599 OFFCURVE",
"893 668 CURVE SMOOTH",
"893 697 OFFCURVE",
"887 711 OFFCURVE",
"874 711 CURVE SMOOTH",
"870 711 OFFCURVE",
"868 709 OFFCURVE",
"868 706 CURVE",
"868 706 OFFCURVE",
"885 688 OFFCURVE",
"885 668 CURVE SMOOTH",
"885 651 OFFCURVE",
"879 635 OFFCURVE",
"866 620 CURVE SMOOTH",
"851 604 OFFCURVE",
"820 596 OFFCURVE",
"772 596 CURVE SMOOTH",
"757 596 OFFCURVE",
"740 597 OFFCURVE",
"723 598 CURVE",
"732 617 LINE SMOOTH",
"749 656 OFFCURVE",
"770 676 OFFCURVE",
"795 676 CURVE SMOOTH",
"806 676 OFFCURVE",
"817 671 OFFCURVE",
"826 660 CURVE SMOOTH",
"836 650 OFFCURVE",
"842 645 OFFCURVE",
"844 645 CURVE SMOOTH",
"850 645 OFFCURVE",
"853 649 OFFCURVE",
"853 656 CURVE SMOOTH",
"853 675 OFFCURVE",
"820 689 OFFCURVE",
"800 689 CURVE SMOOTH",
"781 689 OFFCURVE",
"760 682 OFFCURVE",
"739 669 CURVE SMOOTH",
"718 656 OFFCURVE",
"702 641 OFFCURVE",
"691 624 CURVE SMOOTH",
"677 602 LINE",
"648 606 OFFCURVE",
"615 612 OFFCURVE",
"578 620 CURVE",
"570 680 OFFCURVE",
"553 723 OFFCURVE",
"527 750 CURVE",
"521 755 OFFCURVE",
"516 758 OFFCURVE",
"511 758 CURVE SMOOTH",
"505 758 OFFCURVE",
"502 755 OFFCURVE",
"502 750 CURVE SMOOTH",
"502 747 OFFCURVE",
"504 742 OFFCURVE",
"509 737 CURVE SMOOTH",
"533 708 OFFCURVE",
"549 670 OFFCURVE",
"556 625 CURVE",
"338 676 LINE SMOOTH",
"293 685 OFFCURVE",
"254 690 OFFCURVE",
"220 690 CURVE SMOOTH",
"136 690 OFFCURVE",
"74 661 OFFCURVE",
"35 603 CURVE SMOOTH",
"24 587 OFFCURVE",
"19 571 OFFCURVE",
"19 555 CURVE SMOOTH",
"19 528 OFFCURVE",
"32 510 OFFCURVE",
"58 501 CURVE SMOOTH",
"65 498 OFFCURVE",
"71 497 OFFCURVE",
"74 497 CURVE SMOOTH",
"78 497 OFFCURVE",
"80 500 OFFCURVE",
"83 500 CURVE SMOOTH",
"100 501 OFFCURVE",
"109 503 OFFCURVE",
"109 505 CURVE SMOOTH",
"109 506 OFFCURVE",
"108 506 OFFCURVE",
"106 506 CURVE SMOOTH",
"54 506 OFFCURVE",
"28 525 OFFCURVE",
"28 562 CURVE SMOOTH",
"28 583 OFFCURVE",
"38 602 OFFCURVE",
"59 619 CURVE SMOOTH",
"85 640 OFFCURVE",
"125 651 OFFCURVE",
"178 651 CURVE SMOOTH",
"220 651 OFFCURVE",
"273 644 OFFCURVE",
"337 631 CURVE SMOOTH",
"436 610 OFFCURVE",
"511 593 OFFCURVE",
"560 582 CURVE",
"561 571 OFFCURVE",
"561 559 OFFCURVE",
"561 547 CURVE SMOOTH",
"561 496 OFFCURVE",
"555 442 OFFCURVE",
"543 385 CURVE",
"542 412 OFFCURVE",
"532 426 OFFCURVE",
"513 426 CURVE SMOOTH",
"492 426 OFFCURVE",
"472 404 OFFCURVE",
"472 383 CURVE",
"475 384 OFFCURVE",
"479 384 OFFCURVE",
"482 384 CURVE SMOOTH",
"509 384 OFFCURVE",
"526 369 OFFCURVE",
"533 338 CURVE",
"524 302 OFFCURVE",
"510 264 OFFCURVE",
"493 225 CURVE SMOOTH",
"472 175 OFFCURVE",
"445 126 OFFCURVE",
"414 78 CURVE SMOOTH",
"371 11 OFFCURVE",
"333 -27 OFFCURVE",
"302 -36 CURVE SMOOTH",
"291 -39 OFFCURVE",
"284 -42 OFFCURVE",
"281 -43 CURVE SMOOTH",
"276 -44 OFFCURVE",
"270 -44 OFFCURVE",
"265 -44 CURVE SMOOTH",
"178 -44 OFFCURVE",
"114 2 OFFCURVE",
"73 93 CURVE SMOOTH",
"96 42 OFFCURVE",
"144 17 OFFCURVE",
"218 17 CURVE SMOOTH",
"270 17 OFFCURVE",
"296 23 OFFCURVE",
"296 36 CURVE SMOOTH",
"296 37 OFFCURVE",
"295 38 OFFCURVE",
"293 39 CURVE",
"291 39 OFFCURVE",
"283 37 OFFCURVE",
"269 33 CURVE SMOOTH",
"255 29 OFFCURVE",
"244 27 OFFCURVE",
"235 27 CURVE SMOOTH",
"180 27 OFFCURVE",
"137 45 OFFCURVE",
"106 81 CURVE SMOOTH",
"93 95 OFFCURVE",
"82 112 OFFCURVE",
"75 131 CURVE SMOOTH",
"71 142 OFFCURVE",
"65 160 OFFCURVE",
"58 186 CURVE SMOOTH",
"57 191 OFFCURVE",
"54 193 OFFCURVE",
"50 193 CURVE SMOOTH",
"35 193 OFFCURVE",
"27 182 OFFCURVE",
"27 160 CURVE SMOOTH",
"27 141 OFFCURVE",
"32 116 OFFCURVE",
"43 86 CURVE SMOOTH",
"58 43 OFFCURVE",
"88 9 OFFCURVE",
"133 -18 CURVE SMOOTH",
"174 -42 OFFCURVE",
"219 -54 OFFCURVE",
"266 -54 CURVE SMOOTH"
);
},
{
closed = 1;
nodes = (
"389 2 OFFCURVE",
"456 91 OFFCURVE",
"511 226 CURVE SMOOTH",
"558 344 OFFCURVE",
"582 454 OFFCURVE",
"582 557 CURVE SMOOTH",
"582 578 LINE",
"609 573 OFFCURVE",
"635 570 OFFCURVE",
"660 568 CURVE",
"644 533 OFFCURVE",
"619 452 OFFCURVE",
"585 326 CURVE SMOOTH",
"555 217 OFFCURVE",
"524 137 OFFCURVE",
"493 87 CURVE SMOOTH",
"446 13 OFFCURVE",
"385 -30 OFFCURVE",
"308 -41 CURVE"
);
}
);
width = 666;
}
);
note = T;
unicode = 0054;
},
{
glyphname = U;
lastChange = "2021-11-24 20:48:23 +0000";
layers = (
{
hints = (
{
horizontal = 1;
place = "{-34, 13}";
type = Stem;
},
{
horizontal = 1;
place = "{180, 17}";
type = Stem;
},
{
horizontal = 1;
place = "{744, 18}";
type = Stem;
},
{
place = "{8, 37}";
type = Stem;
},
{
place = "{320, 54}";
type = Stem;
},
{
place = "{518, 48}";
type = Stem;
},
{
place = "{728, 56}";
type = Stem;
},
{
horizontal = 1;
place = "{-47, 25}";
type = Stem;
}
);
layerId = "64752FBD-EC7B-42BB-A7F3-340BB4BBD1AC";
paths = (
{
closed = 1;
nodes = (
"406 -142 OFFCURVE",
"409 -136 OFFCURVE",
"410 -123 CURVE SMOOTH",
"413 -94 OFFCURVE",
"417 -66 OFFCURVE",
"422 -39 CURVE",
"509 -3 OFFCURVE",
"624 131 OFFCURVE",
"766 362 CURVE",
"741 261 OFFCURVE",
"728 181 OFFCURVE",
"728 121 CURVE SMOOTH",
"728 18 OFFCURVE",
"763 -34 OFFCURVE",
"834 -34 CURVE SMOOTH",
"883 -34 OFFCURVE",
"938 21 OFFCURVE",
"998 130 CURVE SMOOTH",
"1001 137 OFFCURVE",
"1001 140 OFFCURVE",
"996 140 CURVE SMOOTH",
"993 140 OFFCURVE",
"990 137 OFFCURVE",
"987 133 CURVE SMOOTH",
"956 84 OFFCURVE",
"936 53 OFFCURVE",
"927 41 CURVE SMOOTH",
"895 0 OFFCURVE",
"867 -21 OFFCURVE",
"842 -21 CURVE SMOOTH",
"803 -21 OFFCURVE",
"784 29 OFFCURVE",
"784 129 CURVE SMOOTH",
"784 259 OFFCURVE",
"806 389 OFFCURVE",
"851 520 CURVE SMOOTH",
"856 535 OFFCURVE",
"859 544 OFFCURVE",
"859 545 CURVE SMOOTH",
"859 554 OFFCURVE",
"852 558 OFFCURVE",
"837 558 CURVE SMOOTH",
"826 558 OFFCURVE",
"818 554 OFFCURVE",
"815 546 CURVE",
"814 545 OFFCURVE",
"812 536 OFFCURVE",
"808 521 CURVE SMOOTH",
"791 450 OFFCURVE",
"738 349 OFFCURVE",
"649 218 CURVE SMOOTH",
"554 79 OFFCURVE",
"480 0 OFFCURVE",
"425 -18 CURVE",
"441 62 OFFCURVE",
"465 149 OFFCURVE",
"497 242 CURVE",
"504 236 OFFCURVE",
"511 227 OFFCURVE",
"518 216 CURVE",
"530 220 OFFCURVE",
"541 251 OFFCURVE",
"538 264 CURVE SMOOTH",
"535 277 OFFCURVE",
"528 287 OFFCURVE",
"515 295 CURVE",
"540 363 OFFCURVE",
"577 440 OFFCURVE",
"625 526 CURVE SMOOTH",
"682 631 OFFCURVE",
"732 700 OFFCURVE",
"774 735 CURVE",
"816 765 LINE SMOOTH",
"820 768 OFFCURVE",
"822 772 OFFCURVE",
"822 775 CURVE SMOOTH",
"822 782 OFFCURVE",
"818 785 OFFCURVE",
"809 785 CURVE SMOOTH",
"805 785 OFFCURVE",
"801 784 OFFCURVE",
"798 782 CURVE SMOOTH",
"752 758 OFFCURVE",
"697 690 OFFCURVE",
"632 578 CURVE SMOOTH",
"576 481 OFFCURVE",
"530 385 OFFCURVE",
"495 288 CURVE",
"479 267 OFFCURVE",
"471 254 OFFCURVE",
"472 250 CURVE",
"473 249 OFFCURVE",
"473 249 OFFCURVE",
"473 249 CURVE",
"476 250 OFFCURVE",
"479 250 OFFCURVE",
"482 250 CURVE",
"467 207 OFFCURVE",
"455 168 OFFCURVE",
"446 135 CURVE SMOOTH",
"431 80 OFFCURVE",
"419 27 OFFCURVE",
"411 -22 CURVE",
"407 -22 LINE SMOOTH",
"385 -22 OFFCURVE",
"374 4 OFFCURVE",
"374 53 CURVE SMOOTH",
"374 107 OFFCURVE",
"395 186 OFFCURVE",
"437 290 CURVE SMOOTH",
"543 542 LINE",
"558 586 OFFCURVE",
"566 624 OFFCURVE",
"566 655 CURVE SMOOTH",
"566 726 OFFCURVE",
"529 762 OFFCURVE",
"454 762 CURVE SMOOTH",
"435 762 OFFCURVE",
"413 759 OFFCURVE",
"390 754 CURVE SMOOTH",
"269 724 OFFCURVE",
"162 642 OFFCURVE",
"70 508 CURVE SMOOTH",
"29 447 OFFCURVE",
"8 385 OFFCURVE",
"8 321 CURVE SMOOTH",
"8 227 OFFCURVE",
"47 180 OFFCURVE",
"124 180 CURVE SMOOTH",
"144 180 OFFCURVE",
"166 184 OFFCURVE",
"190 191 CURVE SMOOTH",
"239 206 OFFCURVE",
"276 237 OFFCURVE",
"301 283 CURVE SMOOTH",
"303 287 OFFCURVE",
"304 290 OFFCURVE",
"304 293 CURVE SMOOTH",
"304 295 OFFCURVE",
"304 296 OFFCURVE",
"304 297 CURVE SMOOTH",
"303 302 OFFCURVE",
"300 301 OFFCURVE",
"294 294 CURVE SMOOTH",
"282 281 OFFCURVE",
"270 267 OFFCURVE",
"259 253 CURVE",
"238 232 OFFCURVE",
"215 217 OFFCURVE",
"192 208 CURVE SMOOTH",
"172 201 OFFCURVE",
"154 197 OFFCURVE",
"137 197 CURVE SMOOTH",
"76 197 OFFCURVE",
"45 238 OFFCURVE",
"45 320 CURVE SMOOTH",
"45 369 OFFCURVE",
"62 425 OFFCURVE",
"96 488 CURVE SMOOTH",
"127 544 OFFCURVE",
"168 594 OFFCURVE",
"221 638 CURVE SMOOTH",
"274 683 OFFCURVE",
"331 715 OFFCURVE",
"392 734 CURVE SMOOTH",
"414 741 OFFCURVE",
"433 744 OFFCURVE",
"450 744 CURVE SMOOTH",
"495 744 OFFCURVE",
"518 720 OFFCURVE",
"518 672 CURVE SMOOTH",
"518 641 OFFCURVE",
"508 600 OFFCURVE",
"489 551 CURVE SMOOTH",
"381 300 LINE SMOOTH",
"340 198 OFFCURVE",
"320 117 OFFCURVE",
"320 55 CURVE SMOOTH",
"320 -13 OFFCURVE",
"343 -47 OFFCURVE",
"386 -47 CURVE SMOOTH",
"393 -47 OFFCURVE",
"400 -46 OFFCURVE",
"407 -44 CURVE",
"404 -63 OFFCURVE",
"401 -83 OFFCURVE",
"399 -102 CURVE SMOOTH",
"398 -111 OFFCURVE",
"398 -118 OFFCURVE",
"398 -124 CURVE SMOOTH",
"398 -136 OFFCURVE",
"400 -142 OFFCURVE",
"403 -142 CURVE SMOOTH"
);
}
);
width = 925;
}
);
note = U;
unicode = 0055;
},
{
glyphname = V;
lastChange = "2021-11-24 20:48:23 +0000";
layers = (
{
hints = (
{
horizontal = 1;
place = "{-84, 23}";
type = Stem;
},
{
horizontal = 1;
place = "{265, 43}";
type = Stem;
},
{
horizontal = 1;
place = "{408, 12}";
type = Stem;
},
{
horizontal = 1;
place = "{533, 21}";
type = Stem;
},
{
horizontal = 1;
place = "{592, 11}";
type = Stem;
},
{
horizontal = 1;
place = "{688, 35}";
type = Stem;
},
{
place = "{-1, 18}";
type = Stem;
},
{
place = "{139, 21}";
type = Stem;
},
{
place = "{316, 17}";
type = Stem;
},
{
place = "{380, 10}";
type = Stem;
},
{
place = "{422, 7}";
type = Stem;
},
{
place = "{509, 52}";
type = Stem;
},
{
place = "{738, 20}";
type = Stem;
},
{
place = "{318, 8}";
type = Stem;
},
{
place = "{443, 24}";
type = Stem;
},
{
place = "{348, 10}";
type = Stem;
},
{
horizontal = 1;
place = "{618, 13}";
type = Stem;
},
{
place = "{358, 58}";
type = Stem;
},
{
horizontal = 1;
place = "{691, 25}";
type = Stem;
}
);
layerId = "64752FBD-EC7B-42BB-A7F3-340BB4BBD1AC";
paths = (
{
closed = 1;
nodes = (
"412 -78 OFFCURVE",
"429 -16 OFFCURVE",
"429 62 CURVE SMOOTH",
"429 170 OFFCURVE",
"405 275 OFFCURVE",
"356 377 CURVE SMOOTH",
"339 413 OFFCURVE",
"320 444 OFFCURVE",
"300 471 CURVE",
"322 496 OFFCURVE",
"333 521 OFFCURVE",
"333 547 CURVE SMOOTH",
"333 594 OFFCURVE",
"294 631 OFFCURVE",
"233 631 CURVE SMOOTH",
"191 631 OFFCURVE",
"148 599 OFFCURVE",
"139 556 CURVE",
"138 555 OFFCURVE",
"141 538 OFFCURVE",
"148 504 CURVE",
"165 523 OFFCURVE",
"180 533 OFFCURVE",
"194 533 CURVE SMOOTH",
"208 533 OFFCURVE",
"229 520 OFFCURVE",
"256 495 CURVE SMOOTH",
"265 487 OFFCURVE",
"274 478 OFFCURVE",
"282 469 CURVE",
"245 436 OFFCURVE",
"203 419 OFFCURVE",
"157 419 CURVE SMOOTH",
"115 419 OFFCURVE",
"82 430 OFFCURVE",
"56 448 CURVE SMOOTH",
"30 467 OFFCURVE",
"17 491 OFFCURVE",
"17 522 CURVE SMOOTH",
"17 553 OFFCURVE",
"29 581 OFFCURVE",
"52 608 CURVE SMOOTH",
"98 661 OFFCURVE",
"167 688 OFFCURVE",
"258 688 CURVE SMOOTH",
"297 688 OFFCURVE",
"342 682 OFFCURVE",
"391 669 CURVE",
"370 659 OFFCURVE",
"359 650 OFFCURVE",
"358 642 CURVE SMOOTH",
"354 613 OFFCURVE",
"365 567 OFFCURVE",
"390 504 CURVE SMOOTH",
"415 441 OFFCURVE",
"441 379 OFFCURVE",
"466 317 CURVE SMOOTH",
"495 237 OFFCURVE",
"509 166 OFFCURVE",
"509 103 CURVE",
"465 27 OFFCURVE",
"442 -26 OFFCURVE",
"442 -57 CURVE SMOOTH",
"442 -75 OFFCURVE",
"451 -84 OFFCURVE",
"469 -84 CURVE SMOOTH",
"517 -84 OFFCURVE",
"546 -46 OFFCURVE",
"556 29 CURVE SMOOTH",
"559 53 OFFCURVE",
"561 78 OFFCURVE",
"561 102 CURVE SMOOTH",
"561 121 OFFCURVE",
"560 140 OFFCURVE",
"558 159 CURVE",
"634 284 OFFCURVE",
"722 401 OFFCURVE",
"821 510 CURVE SMOOTH",
"931 631 OFFCURVE",
"1011 691 OFFCURVE",
"1062 691 CURVE SMOOTH",
"1083 691 OFFCURVE",
"1091 695 OFFCURVE",
"1091 701 CURVE SMOOTH",
"1091 711 OFFCURVE",
"1082 716 OFFCURVE",
"1063 716 CURVE SMOOTH",
"1017 716 OFFCURVE",
"939 656 OFFCURVE",
"829 535 CURVE SMOOTH",
"729 426 OFFCURVE",
"638 307 OFFCURVE",
"555 179 CURVE",
"546 243 OFFCURVE",
"519 327 OFFCURVE",
"475 432 CURVE SMOOTH",
"436 526 OFFCURVE",
"416 592 OFFCURVE",
"416 630 CURVE SMOOTH",
"416 641 OFFCURVE",
"417 652 OFFCURVE",
"420 661 CURVE",
"579 611 LINE SMOOTH",
"621 598 OFFCURVE",
"655 592 OFFCURVE",
"682 592 CURVE SMOOTH",
"727 592 OFFCURVE",
"752 608 OFFCURVE",
"758 640 CURVE SMOOTH",
"759 644 OFFCURVE",
"759 648 OFFCURVE",
"759 651 CURVE SMOOTH",
"759 663 OFFCURVE",
"753 669 OFFCURVE",
"740 669 CURVE SMOOTH",
"736 669 OFFCURVE",
"733 667 OFFCURVE",
"733 662 CURVE SMOOTH",
"733 658 OFFCURVE",
"739 651 OFFCURVE",
"739 643 CURVE SMOOTH",
"739 641 OFFCURVE",
"738 640 OFFCURVE",
"738 638 CURVE SMOOTH",
"733 615 OFFCURVE",
"716 603 OFFCURVE",
"685 603 CURVE SMOOTH",
"663 603 OFFCURVE",
"631 610 OFFCURVE",
"588 625 CURVE SMOOTH",
"536 644 OFFCURVE",
"484 664 OFFCURVE",
"431 683 CURVE SMOOTH",
"366 706 OFFCURVE",
"312 720 OFFCURVE",
"270 723 CURVE SMOOTH",
"260 724 OFFCURVE",
"250 724 OFFCURVE",
"240 724 CURVE SMOOTH",
"150 724 OFFCURVE",
"82 695 OFFCURVE",
"36 636 CURVE SMOOTH",
"11 605 OFFCURVE",
"-1 572 OFFCURVE",
"-1 535 CURVE SMOOTH",
"-1 457 OFFCURVE",
"67 407 OFFCURVE",
"154 407 CURVE SMOOTH",
"205 407 OFFCURVE",
"250 426 OFFCURVE",
"289 461 CURVE",
"326 416 OFFCURVE",
"356 358 OFFCURVE",
"381 288 CURVE",
"372 298 LINE SMOOTH",
"365 304 OFFCURVE",
"358 308 OFFCURVE",
"352 308 CURVE SMOOTH",
"345 308 OFFCURVE",
"338 304 OFFCURVE",
"331 297 CURVE SMOOTH",
"323 287 OFFCURVE",
"318 278 OFFCURVE",
"318 269 CURVE SMOOTH",
"318 262 OFFCURVE",
"321 255 OFFCURVE",
"326 248 CURVE",
"335 259 OFFCURVE",
"347 265 OFFCURVE",
"361 265 CURVE SMOOTH",
"372 265 OFFCURVE",
"382 262 OFFCURVE",
"391 255 CURVE",
"412 188 OFFCURVE",
"422 123 OFFCURVE",
"422 61 CURVE SMOOTH",
"422 -3 OFFCURVE",
"410 -56 OFFCURVE",
"387 -98 CURVE",
"393 -70 LINE",
"381 -51 OFFCURVE",
"369 -37 OFFCURVE",
"358 -28 CURVE SMOOTH",
"357 -27 OFFCURVE",
"356 -27 OFFCURVE",
"355 -28 CURVE SMOOTH",
"350 -33 OFFCURVE",
"347 -40 OFFCURVE",
"347 -48 CURVE SMOOTH",
"347 -54 OFFCURVE",
"349 -62 OFFCURVE",
"352 -70 CURVE",
"353 -71 LINE SMOOTH",
"371 -88 OFFCURVE",
"380 -101 OFFCURVE",
"380 -112 CURVE SMOOTH",
"380 -115 OFFCURVE",
"380 -119 OFFCURVE",
"379 -123 CURVE"
);
},
{
closed = 1;
nodes = (
"469 -61 OFFCURVE",
"466 -57 OFFCURVE",
"466 -48 CURVE SMOOTH",
"466 -45 OFFCURVE",
"466 -42 OFFCURVE",
"467 -38 CURVE SMOOTH",
"470 -13 OFFCURVE",
"484 24 OFFCURVE",
"508 71 CURVE",
"505 47 LINE SMOOTH",
"496 -25 OFFCURVE",
"485 -61 OFFCURVE",
"474 -61 CURVE SMOOTH"
);
},
{
closed = 1;
nodes = (
"280 493 OFFCURVE",
"267 504 OFFCURVE",
"254 514 CURVE SMOOTH",
"221 539 OFFCURVE",
"190 553 OFFCURVE",
"160 554 CURVE",
"159 593 OFFCURVE",
"196 623 OFFCURVE",
"239 618 CURVE SMOOTH",
"290 610 OFFCURVE",
"316 585 OFFCURVE",
"316 542 CURVE SMOOTH",
"316 521 OFFCURVE",
"308 500 OFFCURVE",
"292 480 CURVE"
);
}
);
width = 627;
}
);
note = V;
unicode = 0056;
},
{
glyphname = W;
lastChange = "2021-11-24 20:48:23 +0000";
layers = (
{
hints = (
{
horizontal = 1;
place = "{-29, 19}";
type = Stem;
},
{
horizontal = 1;
place = "{251, 15}";
type = Stem;
},
{
horizontal = 1;
place = "{645, 10}";
type = Stem;
},
{
horizontal = 1;
place = "{744, 18}";
type = Stem;
},
{
place = "{14, 36}";
type = Stem;
},
{
place = "{418, 53}";
type = Stem;
},
{
place = "{536, 15}";
type = Stem;
},
{
place = "{610, 49}";
type = Stem;
},
{
place = "{826, 50}";
type = Stem;
},
{
horizontal = 1;
place = "{-47, 25}";
type = Stem;
},
{
place = "{540, 13}";
type = Stem;
},
{
horizontal = 1;
place = "{764, 38}";
type = Stem;
},
{
place = "{853, 13}";
type = Stem;
}
);
layerId = "64752FBD-EC7B-42BB-A7F3-340BB4BBD1AC";
paths = (
{
closed = 1;
nodes = (
"574 -100 OFFCURVE",
"575 -99 OFFCURVE",
"575 -99 CURVE",
"578 -95 OFFCURVE",
"560 -64 OFFCURVE",
"553 -20 CURVE",
"638 37 OFFCURVE",
"742 164 OFFCURVE",
"864 362 CURVE",
"839 261 OFFCURVE",
"826 181 OFFCURVE",
"826 121 CURVE SMOOTH",
"826 21 OFFCURVE",
"862 -29 OFFCURVE",
"933 -29 CURVE SMOOTH",
"980 -29 OFFCURVE",
"1038 32 OFFCURVE",
"1105 154 CURVE SMOOTH",
"1166 273 OFFCURVE",
"1226 392 OFFCURVE",
"1286 511 CURVE",
"1382 680 OFFCURVE",
"1466 764 OFFCURVE",
"1538 764 CURVE SMOOTH",
"1564 764 OFFCURVE",
"1577 769 OFFCURVE",
"1577 780 CURVE SMOOTH",
"1577 795 OFFCURVE",
"1562 802 OFFCURVE",
"1532 802 CURVE SMOOTH",
"1484 802 OFFCURVE",
"1427 757 OFFCURVE",
"1362 668 CURVE SMOOTH",
"1314 603 OFFCURVE",
"1260 511 OFFCURVE",
"1200 392 CURVE SMOOTH",
"1089 164 LINE SMOOTH",
"1028 48 OFFCURVE",
"978 -10 OFFCURVE",
"937 -10 CURVE SMOOTH",
"896 -10 OFFCURVE",
"876 36 OFFCURVE",
"876 129 CURVE SMOOTH",
"876 220 OFFCURVE",
"905 350 OFFCURVE",
"963 520 CURVE SMOOTH",
"968 535 OFFCURVE",
"971 544 OFFCURVE",
"971 545 CURVE SMOOTH",
"971 554 OFFCURVE",
"964 558 OFFCURVE",
"949 558 CURVE SMOOTH",
"926 558 OFFCURVE",
"911 546 OFFCURVE",
"905 521 CURVE SMOOTH",
"890 458 OFFCURVE",
"843 365 OFFCURVE",
"764 244 CURVE SMOOTH",
"681 117 OFFCURVE",
"610 34 OFFCURVE",
"551 -4 CURVE",
"550 10 OFFCURVE",
"549 24 OFFCURVE",
"549 39 CURVE SMOOTH",
"549 91 OFFCURVE",
"558 146 OFFCURVE",
"576 203 CURVE",
"584 198 LINE",
"597 206 OFFCURVE",
"609 214 OFFCURVE",
"621 223 CURVE SMOOTH",
"635 231 OFFCURVE",
"641 238 OFFCURVE",
"641 242 CURVE SMOOTH",
"641 242 OFFCURVE",
"641 243 OFFCURVE",
"641 243 CURVE",
"622 242 OFFCURVE",
"607 249 OFFCURVE",
"597 265 CURVE",
"650 413 OFFCURVE",
"702 521 OFFCURVE",
"755 589 CURVE SMOOTH",
"784 626 OFFCURVE",
"810 645 OFFCURVE",
"833 645 CURVE SMOOTH",
"845 645 OFFCURVE",
"852 636 OFFCURVE",
"853 618 CURVE SMOOTH",
"853 615 OFFCURVE",
"855 613 OFFCURVE",
"859 612 CURVE SMOOTH",
"862 612 OFFCURVE",
"865 614 OFFCURVE",
"866 618 CURVE SMOOTH",
"871 631 OFFCURVE",
"850 655 OFFCURVE",
"822 655 CURVE SMOOTH",
"795 655 OFFCURVE",
"767 637 OFFCURVE",
"739 601 CURVE SMOOTH",
"688 536 OFFCURVE",
"636 424 OFFCURVE",
"581 264 CURVE",
"567 255 OFFCURVE",
"560 245 OFFCURVE",
"560 235 CURVE SMOOTH",
"560 227 OFFCURVE",
"562 220 OFFCURVE",
"565 215 CURVE",
"546 153 OFFCURVE",
"536 92 OFFCURVE",
"536 33 CURVE SMOOTH",
"536 17 OFFCURVE",
"537 2 OFFCURVE",
"538 -12 CURVE",
"525 -19 OFFCURVE",
"514 -22 OFFCURVE",
"504 -22 CURVE SMOOTH",
"483 -22 OFFCURVE",
"471 2 OFFCURVE",
"471 50 CURVE SMOOTH",
"471 104 OFFCURVE",
"492 184 OFFCURVE",
"534 290 CURVE SMOOTH",
"640 542 LINE SMOOTH",
"653 577 OFFCURVE",
"659 609 OFFCURVE",
"659 637 CURVE SMOOTH",
"659 720 OFFCURVE",
"611 762 OFFCURVE",
"514 762 CURVE SMOOTH",
"421 762 OFFCURVE",
"322 728 OFFCURVE",
"217 659 CURVE SMOOTH",
"106 586 OFFCURVE",
"40 506 OFFCURVE",
"20 418 CURVE SMOOTH",
"16 401 OFFCURVE",
"14 385 OFFCURVE",
"14 369 CURVE SMOOTH",
"14 289 OFFCURVE",
"57 250 OFFCURVE",
"143 250 CURVE SMOOTH",
"205 250 OFFCURVE",
"256 271 OFFCURVE",
"297 316 CURVE SMOOTH",
"303 322 OFFCURVE",
"305 326 OFFCURVE",
"305 329 CURVE SMOOTH",
"305 331 OFFCURVE",
"304 332 OFFCURVE",
"300 332 CURVE SMOOTH",
"301 332 OFFCURVE",
"286 322 OFFCURVE",
"256 302 CURVE SMOOTH",
"227 282 OFFCURVE",
"199 271 OFFCURVE",
"174 268 CURVE SMOOTH",
"165 267 OFFCURVE",
"157 266 OFFCURVE",
"149 266 CURVE SMOOTH",
"83 266 OFFCURVE",
"50 298 OFFCURVE",
"50 362 CURVE SMOOTH",
"50 377 OFFCURVE",
"52 392 OFFCURVE",
"56 409 CURVE SMOOTH",
"75 490 OFFCURVE",
"134 566 OFFCURVE",
"235 639 CURVE SMOOTH",
"332 709 OFFCURVE",
"422 744 OFFCURVE",
"503 744 CURVE SMOOTH",
"574 744 OFFCURVE",
"610 714 OFFCURVE",
"610 653 CURVE SMOOTH",
"610 625 OFFCURVE",
"602 591 OFFCURVE",
"586 551 CURVE SMOOTH",
"478 300 LINE SMOOTH",
"438 200 OFFCURVE",
"418 120 OFFCURVE",
"418 59 CURVE SMOOTH",
"418 -12 OFFCURVE",
"439 -47 OFFCURVE",
"483 -47 CURVE SMOOTH",
"500 -47 OFFCURVE",
"519 -41 OFFCURVE",
"540 -28 CURVE",
"543 -49 OFFCURVE",
"549 -67 OFFCURVE",
"556 -80 CURVE SMOOTH",
"563 -93 OFFCURVE",
"571 -100 OFFCURVE",
"574 -100 CURVE SMOOTH"
);
}
);
width = 1207;
}
);
note = W;
unicode = 0057;
},
{
glyphname = X;
lastChange = "2021-11-24 20:48:23 +0000";
layers = (
{
hints = (
{
horizontal = 1;
place = "{-12, 28}";
type = Stem;
},
{
horizontal = 1;
place = "{216, 23}";
type = Stem;
},
{
horizontal = 1;
place = "{735, 22}";
type = Stem;
},
{
horizontal = 1;
place = "{792, 11}";
type = Stem;
},
{
place = "{23, 40}";
type = Stem;
},
{
place = "{268, 59}";
type = Stem;
},
{
place = "{402, 13}";
type = Stem;
},
{
place = "{465, 45}";
type = Stem;
},
{
place = "{449, 60}";
type = Stem;
}
);
layerId = "64752FBD-EC7B-42BB-A7F3-340BB4BBD1AC";
paths = (
{
closed = 1;
nodes = (
"147 -70 OFFCURVE",
"265 32 OFFCURVE",
"402 194 CURVE",
"413 123 LINE SMOOTH",
"436 -10 OFFCURVE",
"475 -84 OFFCURVE",
"531 -99 CURVE SMOOTH",
"538 -100 OFFCURVE",
"543 -99 OFFCURVE",
"543 -91 CURVE SMOOTH",
"543 -88 OFFCURVE",
"541 -86 OFFCURVE",
"536 -85 CURVE SMOOTH",
"485 -72 OFFCURVE",
"448 3 OFFCURVE",
"425 140 CURVE SMOOTH",
"422 160 OFFCURVE",
"418 183 OFFCURVE",
"415 209 CURVE",
"465 270 LINE",
"468 191 OFFCURVE",
"479 127 OFFCURVE",
"500 78 CURVE SMOOTH",
"525 18 OFFCURVE",
"562 -12 OFFCURVE",
"609 -12 CURVE SMOOTH",
"647 -12 OFFCURVE",
"682 6 OFFCURVE",
"713 42 CURVE SMOOTH",
"738 71 OFFCURVE",
"757 107 OFFCURVE",
"768 148 CURVE SMOOTH",
"775 174 OFFCURVE",
"779 191 OFFCURVE",
"779 199 CURVE SMOOTH",
"779 205 OFFCURVE",
"778 207 OFFCURVE",
"774 207 CURVE SMOOTH",
"774 207 OFFCURVE",
"773 207 OFFCURVE",
"772 207 CURVE SMOOTH",
"767 205 OFFCURVE",
"765 202 OFFCURVE",
"764 197 CURVE SMOOTH",
"752 143 LINE",
"727 58 OFFCURVE",
"685 16 OFFCURVE",
"627 16 CURVE SMOOTH",
"586 16 OFFCURVE",
"554 56 OFFCURVE",
"533 136 CURVE SMOOTH",
"518 191 OFFCURVE",
"511 251 OFFCURVE",
"510 316 CURVE",
"645 475 OFFCURVE",
"723 565 OFFCURVE",
"744 586 CURVE SMOOTH",
"866 716 OFFCURVE",
"955 783 OFFCURVE",
"1011 788 CURVE SMOOTH",
"1026 789 OFFCURVE",
"1033 791 OFFCURVE",
"1032 794 CURVE SMOOTH",
"1031 800 OFFCURVE",
"1025 802 OFFCURVE",
"1015 802 CURVE SMOOTH",
"1013 802 OFFCURVE",
"1010 802 OFFCURVE",
"1008 802 CURVE SMOOTH",
"943 797 OFFCURVE",
"851 731 OFFCURVE",
"730 604 CURVE SMOOTH",
"678 550 OFFCURVE",
"604 464 OFFCURVE",
"509 345 CURVE",
"504 388 OFFCURVE",
"501 422 OFFCURVE",
"500 447 CURVE SMOOTH",
"495 552 OFFCURVE",
"474 632 OFFCURVE",
"436 686 CURVE SMOOTH",
"402 733 OFFCURVE",
"359 757 OFFCURVE",
"306 757 CURVE SMOOTH",
"299 757 OFFCURVE",
"292 757 OFFCURVE",
"285 756 CURVE",
"254 787 OFFCURVE",
"222 803 OFFCURVE",
"189 803 CURVE SMOOTH",
"174 803 OFFCURVE",
"162 800 OFFCURVE",
"153 793 CURVE SMOOTH",
"150 791 OFFCURVE",
"148 788 OFFCURVE",
"148 786 CURVE SMOOTH",
"148 785 OFFCURVE",
"149 784 OFFCURVE",
"152 784 CURVE SMOOTH",
"159 784 OFFCURVE",
"168 792 OFFCURVE",
"182 792 CURVE SMOOTH",
"210 792 OFFCURVE",
"238 779 OFFCURVE",
"265 752 CURVE",
"198 737 OFFCURVE",
"141 695 OFFCURVE",
"92 627 CURVE SMOOTH",
"46 561 OFFCURVE",
"23 493 OFFCURVE",
"23 423 CURVE SMOOTH",
"23 366 OFFCURVE",
"39 317 OFFCURVE",
"70 276 CURVE SMOOTH",
"102 236 OFFCURVE",
"140 216 OFFCURVE",
"185 216 CURVE SMOOTH",
"218 216 OFFCURVE",
"249 228 OFFCURVE",
"280 252 CURVE SMOOTH",
"311 277 OFFCURVE",
"327 316 OFFCURVE",
"327 369 CURVE SMOOTH",
"327 382 OFFCURVE",
"326 391 OFFCURVE",
"323 396 CURVE",
"324 414 OFFCURVE",
"319 427 OFFCURVE",
"308 436 CURVE SMOOTH",
"299 443 OFFCURVE",
"290 446 OFFCURVE",
"281 446 CURVE SMOOTH",
"277 446 OFFCURVE",
"272 446 OFFCURVE",
"268 444 CURVE",
"268 434 OFFCURVE",
"265 422 OFFCURVE",
"259 408 CURVE SMOOTH",
"257 403 OFFCURVE",
"255 398 OFFCURVE",
"254 393 CURVE",
"257 397 OFFCURVE",
"262 399 OFFCURVE",
"270 399 CURVE SMOOTH",
"284 399 OFFCURVE",
"300 395 OFFCURVE",
"319 387 CURVE",
"320 382 OFFCURVE",
"321 377 OFFCURVE",
"321 372 CURVE SMOOTH",
"321 331 OFFCURVE",
"303 296 OFFCURVE",
"266 266 CURVE SMOOTH",
"245 248 OFFCURVE",
"222 239 OFFCURVE",
"198 239 CURVE SMOOTH",
"162 239 OFFCURVE",
"130 258 OFFCURVE",
"103 296 CURVE SMOOTH",
"76 335 OFFCURVE",
"63 380 OFFCURVE",
"63 432 CURVE SMOOTH",
"63 493 OFFCURVE",
"84 557 OFFCURVE",
"125 622 CURVE SMOOTH",
"172 695 OFFCURVE",
"224 733 OFFCURVE",
"281 735 CURVE",
"324 683 OFFCURVE",
"351 604 OFFCURVE",
"363 498 CURVE SMOOTH",
"376 393 OFFCURVE",
"388 300 OFFCURVE",
"399 220 CURVE",
"260 59 OFFCURVE",
"142 -48 OFFCURVE",
"45 -99 CURVE SMOOTH",
"43 -100 OFFCURVE",
"42 -103 OFFCURVE",
"42 -108 CURVE SMOOTH",
"42 -113 OFFCURVE",
"44 -115 OFFCURVE",
"48 -113 CURVE SMOOTH"
);
},
{
closed = 1;
nodes = (
"398 357 OFFCURVE",
"388 445 OFFCURVE",
"383 501 CURVE SMOOTH",
"371 602 OFFCURVE",
"345 679 OFFCURVE",
"304 733 CURVE",
"383 717 OFFCURVE",
"431 618 OFFCURVE",
"449 435 CURVE SMOOTH",
"456 367 OFFCURVE",
"461 322 OFFCURVE",
"462 299 CURVE",
"448 280 OFFCURVE",
"431 259 OFFCURVE",
"412 236 CURVE"
);
}
);
width = 764;
}
);
note = X;
unicode = 0058;
},
{
glyphname = Y;
lastChange = "2021-11-24 20:48:23 +0000";
layers = (
{
hints = (
{
horizontal = 1;
place = "{-144, 16}";
type = Stem;
},
{
horizontal = 1;
place = "{-61, 11}";
type = Stem;
},
{
horizontal = 1;
place = "{691, 18}";
type = Stem;
},
{
place = "{308, 26}";
type = Stem;
},
{
place = "{640, 10}";
type = Stem;
},
{
place = "{676, 40}";
type = Stem;
}
);
layerId = "64752FBD-EC7B-42BB-A7F3-340BB4BBD1AC";
paths = (
{
closed = 1;
nodes = (
"469 -144 OFFCURVE",
"561 -96 OFFCURVE",
"646 -1 CURVE SMOOTH",
"697 56 OFFCURVE",
"761 164 OFFCURVE",
"838 322 CURVE SMOOTH",
"930 511 OFFCURVE",
"980 611 OFFCURVE",
"988 624 CURVE SMOOTH",
"1016 669 OFFCURVE",
"1043 691 OFFCURVE",
"1069 691 CURVE SMOOTH",
"1084 691 OFFCURVE",
"1096 681 OFFCURVE",
"1105 662 CURVE SMOOTH",
"1107 657 OFFCURVE",
"1110 655 OFFCURVE",
"1113 655 CURVE SMOOTH",
"1122 655 OFFCURVE",
"1126 661 OFFCURVE",
"1126 672 CURVE SMOOTH",
"1126 676 OFFCURVE",
"1125 680 OFFCURVE",
"1122 684 CURVE SMOOTH",
"1110 701 OFFCURVE",
"1094 709 OFFCURVE",
"1073 709 CURVE SMOOTH",
"1036 709 OFFCURVE",
"1000 689 OFFCURVE",
"965 648 CURVE SMOOTH",
"930 607 OFFCURVE",
"873 504 OFFCURVE",
"795 338 CURVE SMOOTH",
"717 173 OFFCURVE",
"658 67 OFFCURVE",
"618 22 CURVE SMOOTH",
"529 -78 OFFCURVE",
"441 -128 OFFCURVE",
"354 -128 CURVE SMOOTH",
"262 -128 OFFCURVE",
"180 -76 OFFCURVE",
"107 28 CURVE SMOOTH",
"141 -20 OFFCURVE",
"188 -49 OFFCURVE",
"248 -58 CURVE SMOOTH",
"263 -60 OFFCURVE",
"277 -61 OFFCURVE",
"289 -61 CURVE SMOOTH",
"316 -61 OFFCURVE",
"338 -56 OFFCURVE",
"356 -47 CURVE SMOOTH",
"359 -45 OFFCURVE",
"361 -42 OFFCURVE",
"360 -39 CURVE SMOOTH",
"359 -36 OFFCURVE",
"356 -36 OFFCURVE",
"353 -38 CURVE SMOOTH",
"338 -46 OFFCURVE",
"321 -50 OFFCURVE",
"301 -50 CURVE SMOOTH",
"244 -50 OFFCURVE",
"192 -29 OFFCURVE",
"146 14 CURVE SMOOTH",
"111 45 OFFCURVE",
"83 86 OFFCURVE",
"61 136 CURVE",
"58 141 OFFCURVE",
"55 143 OFFCURVE",
"50 143 CURVE SMOOTH",
"40 143 OFFCURVE",
"33 136 OFFCURVE",
"33 123 CURVE SMOOTH",
"33 105 OFFCURVE",
"48 70 OFFCURVE",
"78 21 CURVE SMOOTH",
"106 -24 OFFCURVE",
"144 -61 OFFCURVE",
"193 -92 CURVE SMOOTH",
"249 -127 OFFCURVE",
"307 -144 OFFCURVE",
"368 -144 CURVE SMOOTH"
);
},
{
closed = 1;
nodes = (
"645 136 OFFCURVE",
"650 166 OFFCURVE",
"650 198 CURVE SMOOTH",
"650 259 OFFCURVE",
"633 322 OFFCURVE",
"600 385 CURVE SMOOTH",
"568 446 OFFCURVE",
"526 499 OFFCURVE",
"474 542 CURVE",
"476 542 LINE SMOOTH",
"517 546 OFFCURVE",
"557 524 OFFCURVE",
"595 476 CURVE SMOOTH",
"647 411 OFFCURVE",
"674 313 OFFCURVE",
"676 182 CURVE SMOOTH",
"676 181 OFFCURVE",
"677 180 OFFCURVE",
"679 180 CURVE SMOOTH",
"690 180 OFFCURVE",
"716 193 OFFCURVE",
"716 200 CURVE SMOOTH",
"711 361 OFFCURVE",
"677 473 OFFCURVE",
"614 534 CURVE SMOOTH",
"579 567 OFFCURVE",
"539 584 OFFCURVE",
"492 584 CURVE SMOOTH",
"486 584 OFFCURVE",
"480 584 OFFCURVE",
"474 583 CURVE SMOOTH",
"461 582 OFFCURVE",
"448 578 OFFCURVE",
"434 572 CURVE",
"379 607 OFFCURVE",
"325 625 OFFCURVE",
"272 625 CURVE SMOOTH",
"265 625 OFFCURVE",
"259 625 OFFCURVE",
"252 624 CURVE SMOOTH",
"240 623 OFFCURVE",
"234 618 OFFCURVE",
"234 611 CURVE SMOOTH",
"234 605 OFFCURVE",
"239 602 OFFCURVE",
"248 602 CURVE SMOOTH",
"249 602 OFFCURVE",
"251 602 OFFCURVE",
"252 602 CURVE SMOOTH",
"303 607 OFFCURVE",
"357 593 OFFCURVE",
"413 561 CURVE",
"371 536 OFFCURVE",
"339 501 OFFCURVE",
"318 456 CURVE",
"312 472 OFFCURVE",
"308 480 OFFCURVE",
"303 480 CURVE SMOOTH",
"303 480 OFFCURVE",
"302 480 OFFCURVE",
"302 480 CURVE",
"306 463 OFFCURVE",
"308 445 OFFCURVE",
"308 428 CURVE SMOOTH",
"308 401 OFFCURVE",
"303 371 OFFCURVE",
"292 340 CURVE SMOOTH",
"268 275 LINE",
"274 250 OFFCURVE",
"283 237 OFFCURVE",
"295 237 CURVE SMOOTH",
"298 237 OFFCURVE",
"302 239 OFFCURVE",
"307 242 CURVE",
"326 316 OFFCURVE",
"335 369 OFFCURVE",
"334 400 CURVE",
"331 414 OFFCURVE",
"327 427 OFFCURVE",
"324 439 CURVE",
"345 490 OFFCURVE",
"386 523 OFFCURVE",
"449 538 CURVE",
"504 498 OFFCURVE",
"550 447 OFFCURVE",
"585 386 CURVE SMOOTH",
"622 321 OFFCURVE",
"640 256 OFFCURVE",
"640 191 CURVE SMOOTH",
"640 172 OFFCURVE",
"638 154 OFFCURVE",
"635 137 CURVE",
"631 168 LINE",
"610 185 OFFCURVE",
"592 197 OFFCURVE",
"577 204 CURVE",
"576 202 OFFCURVE",
"574 200 OFFCURVE",
"573 197 CURVE",
"573 185 OFFCURVE",
"579 166 OFFCURVE",
"586 158 CURVE",
"615 143 LINE",
"626 134 OFFCURVE",
"633 123 OFFCURVE",
"635 108 CURVE"
);
}
);
width = 791;
}
);
note = Y;
unicode = 0059;
},
{
glyphname = Z;
lastChange = "2021-11-24 20:48:23 +0000";
layers = (
{
hints = (
{
horizontal = 1;
place = "{-49, 10}";
type = Stem;
},
{
horizontal = 1;
place = "{110, 35}";
type = Stem;
},
{
horizontal = 1;
place = "{565, 48}";
type = Stem;
},
{
horizontal = 1;
place = "{695, 16}";
type = Stem;
},
{
place = "{16, 11}";
type = Stem;
},
{
place = "{863, 9}";
type = Stem;
},
{
horizontal = 1;
place = "{550, 21}";
type = Stem;
},
{
horizontal = 1;
place = "{639, 39}";
type = Stem;
},
{
place = "{170, 12}";
type = Stem;
},
{
place = "{366, 36}";
type = Stem;
},
{
horizontal = 1;
place = "{-53, 35}";
type = Stem;
},
{
place = "{897, 20}";
type = Stem;
}
);
layerId = "64752FBD-EC7B-42BB-A7F3-340BB4BBD1AC";
paths = (
{
closed = 1;
nodes = (
"107 -104 OFFCURVE",
"108 -101 OFFCURVE",
"112 -101 CURVE SMOOTH",
"117 -101 OFFCURVE",
"132 -104 OFFCURVE",
"139 -104 CURVE SMOOTH",
"146 -104 OFFCURVE",
"149 -103 OFFCURVE",
"149 -102 CURVE",
"148 -101 OFFCURVE",
"146 -100 OFFCURVE",
"145 -100 CURVE SMOOTH",
"112 -92 OFFCURVE",
"84 -78 OFFCURVE",
"62 -58 CURVE SMOOTH",
"39 -37 OFFCURVE",
"27 -11 OFFCURVE",
"27 17 CURVE SMOOTH",
"27 79 OFFCURVE",
"70 110 OFFCURVE",
"153 110 CURVE SMOOTH",
"179 110 OFFCURVE",
"207 106 OFFCURVE",
"237 99 CURVE",
"186 40 OFFCURVE",
"147 4 OFFCURVE",
"120 -9 CURVE SMOOTH",
"116 -11 OFFCURVE",
"114 -14 OFFCURVE",
"114 -18 CURVE SMOOTH",
"114 -22 OFFCURVE",
"117 -24 OFFCURVE",
"121 -24 CURVE SMOOTH",
"142 -24 OFFCURVE",
"185 16 OFFCURVE",
"252 95 CURVE",
"268 91 OFFCURVE",
"285 86 OFFCURVE",
"303 79 CURVE",
"231 0 OFFCURVE",
"165 -39 OFFCURVE",
"105 -39 CURVE SMOOTH",
"98 -39 OFFCURVE",
"86 -37 OFFCURVE",
"79 -37 CURVE SMOOTH",
"75 -37 OFFCURVE",
"72 -38 OFFCURVE",
"72 -42 CURVE SMOOTH",
"72 -46 OFFCURVE",
"84 -49 OFFCURVE",
"108 -49 CURVE SMOOTH",
"171 -49 OFFCURVE",
"241 -8 OFFCURVE",
"319 73 CURVE",
"332 68 OFFCURVE",
"345 63 OFFCURVE",
"359 56 CURVE SMOOTH",
"524 -17 OFFCURVE",
"651 -53 OFFCURVE",
"739 -53 CURVE SMOOTH",
"828 -53 OFFCURVE",
"872 -25 OFFCURVE",
"872 31 CURVE SMOOTH",
"872 43 OFFCURVE",
"870 57 OFFCURVE",
"864 72 CURVE SMOOTH",
"856 93 OFFCURVE",
"846 104 OFFCURVE",
"835 104 CURVE SMOOTH",
"832 104 OFFCURVE",
"831 103 OFFCURVE",
"831 100 CURVE SMOOTH",
"831 101 OFFCURVE",
"836 94 OFFCURVE",
"847 79 CURVE SMOOTH",
"857 66 OFFCURVE",
"863 52 OFFCURVE",
"863 38 CURVE SMOOTH",
"863 1 OFFCURVE",
"834 -18 OFFCURVE",
"777 -18 CURVE SMOOTH",
"680 -18 OFFCURVE",
"542 24 OFFCURVE",
"363 109 CURVE SMOOTH",
"355 113 LINE",
"421 197 OFFCURVE",
"468 259 OFFCURVE",
"496 300 CURVE SMOOTH",
"602 451 OFFCURVE",
"667 539 OFFCURVE",
"690 565 CURVE",
"734 562 OFFCURVE",
"775 566 OFFCURVE",
"814 575 CURVE SMOOTH",
"847 584 OFFCURVE",
"873 597 OFFCURVE",
"892 616 CURVE SMOOTH",
"909 633 OFFCURVE",
"917 650 OFFCURVE",
"917 668 CURVE SMOOTH",
"917 697 OFFCURVE",
"899 711 OFFCURVE",
"864 711 CURVE SMOOTH",
"808 711 OFFCURVE",
"747 678 OFFCURVE",
"682 612 CURVE",
"659 616 OFFCURVE",
"634 622 OFFCURVE",
"605 629 CURVE",
"644 702 OFFCURVE",
"666 751 OFFCURVE",
"671 776 CURVE SMOOTH",
"672 780 OFFCURVE",
"671 782 OFFCURVE",
"668 782 CURVE SMOOTH",
"658 782 OFFCURVE",
"651 778 OFFCURVE",
"648 769 CURVE SMOOTH",
"634 733 OFFCURVE",
"614 688 OFFCURVE",
"587 633 CURVE",
"470 663 OFFCURVE",
"387 678 OFFCURVE",
"339 678 CURVE SMOOTH",
"294 678 OFFCURVE",
"256 666 OFFCURVE",
"224 645 CURVE SMOOTH",
"191 622 OFFCURVE",
"173 592 OFFCURVE",
"170 555 CURVE",
"172 537 LINE",
"170 534 OFFCURVE",
"169 530 OFFCURVE",
"169 527 CURVE SMOOTH",
"169 520 OFFCURVE",
"181 513 OFFCURVE",
"204 505 CURVE",
"264 532 LINE SMOOTH",
"294 544 OFFCURVE",
"323 550 OFFCURVE",
"350 550 CURVE SMOOTH",
"361 550 OFFCURVE",
"371 549 OFFCURVE",
"382 547 CURVE",
"383 555 OFFCURVE",
"359 563 OFFCURVE",
"310 571 CURVE",
"290 570 OFFCURVE",
"268 567 OFFCURVE",
"245 560 CURVE SMOOTH",
"232 557 OFFCURVE",
"184 544 OFFCURVE",
"183 547 CURVE",
"182 568 OFFCURVE",
"193 587 OFFCURVE",
"218 604 CURVE SMOOTH",
"239 619 OFFCURVE",
"263 629 OFFCURVE",
"290 635 CURVE SMOOTH",
"305 638 OFFCURVE",
"321 639 OFFCURVE",
"338 639 CURVE SMOOTH",
"375 639 OFFCURVE",
"451 624 OFFCURVE",
"566 593 CURVE",
"528 518 OFFCURVE",
"494 456 OFFCURVE",
"463 409 CURVE SMOOTH",
"449 387 OFFCURVE",
"432 362 OFFCURVE",
"412 333 CURVE",
"406 339 OFFCURVE",
"403 350 OFFCURVE",
"402 367 CURVE",
"390 368 OFFCURVE",
"369 345 OFFCURVE",
"366 333 CURVE SMOOTH",
"365 329 OFFCURVE",
"365 326 OFFCURVE",
"365 323 CURVE SMOOTH",
"365 312 OFFCURVE",
"368 304 OFFCURVE",
"376 297 CURVE",
"394 307 LINE",
"350 244 OFFCURVE",
"309 188 OFFCURVE",
"270 140 CURVE",
"250 143 OFFCURVE",
"230 145 OFFCURVE",
"210 145 CURVE SMOOTH",
"125 145 OFFCURVE",
"65 115 OFFCURVE",
"29 56 CURVE SMOOTH",
"20 41 OFFCURVE",
"16 25 OFFCURVE",
"16 7 CURVE SMOOTH",
"16 -16 OFFCURVE",
"25 -38 OFFCURVE",
"44 -63 CURVE SMOOTH",
"65 -90 OFFCURVE",
"85 -104 OFFCURVE",
"106 -104 CURVE SMOOTH"
);
},
{
closed = 1;
nodes = (
"321 127 OFFCURVE",
"303 132 OFFCURVE",
"286 137 CURVE",
"352 220 OFFCURVE",
"415 309 OFFCURVE",
"475 403 CURVE SMOOTH",
"505 450 OFFCURVE",
"541 511 OFFCURVE",
"583 588 CURVE",
"606 582 OFFCURVE",
"627 577 OFFCURVE",
"646 573 CURVE",
"615 536 OFFCURVE",
"581 489 OFFCURVE",
"544 431 CURVE SMOOTH",
"464 301 LINE SMOOTH",
"412 220 OFFCURVE",
"370 160 OFFCURVE",
"338 120 CURVE"
);
},
{
closed = 1;
nodes = (
"742 605 OFFCURVE",
"735 606 OFFCURVE",
"728 606 CURVE",
"749 628 OFFCURVE",
"775 648 OFFCURVE",
"804 667 CURVE SMOOTH",
"831 686 OFFCURVE",
"853 695 OFFCURVE",
"871 695 CURVE SMOOTH",
"888 695 OFFCURVE",
"897 688 OFFCURVE",
"897 673 CURVE SMOOTH",
"897 642 OFFCURVE",
"872 622 OFFCURVE",
"822 613 CURVE SMOOTH",
"795 608 OFFCURVE",
"771 605 OFFCURVE",
"749 605 CURVE SMOOTH"
);
}
);
width = 870;
}
);
note = Z;
unicode = 005A;
},
